<svg width="203" height="200" viewBox="0 0 203 200" fill="none" xmlns="http://www.w3.org/2000/svg">
<g filter="url(#filter0_d_147_144)">
<path d="M15.1875 76.25H24.25C28.1875 76.25 31.3854 77.1979 33.8438 79.0938C35.0729 80.0521 36.0312 81.2396 36.7188 82.6562C37.4062 84.0729 37.75 85.7292 37.75 87.625V107C37.75 108.625 37.5729 110.052 37.2188 111.281C36.8646 112.51 36.4062 113.583 35.8438 114.5C35.2604 115.396 34.6042 116.167 33.875 116.812C33.1458 117.458 32.4062 117.979 31.6562 118.375C29.9062 119.333 27.875 119.875 25.5625 120H15.1875C13.6875 120 12.6042 119.688 11.9375 119.062C11.2708 118.438 10.8542 117.583 10.6875 116.5C10.5208 115.417 10.4375 114.188 10.4375 112.812V83.375C10.4375 82.0208 10.5208 80.8125 10.6875 79.75C10.8542 78.6667 11.2708 77.8125 11.9375 77.1875C12.6042 76.5625 13.6875 76.25 15.1875 76.25ZM24 83.5625H19.9375V112.562H24C24.8542 112.542 25.6562 112.333 26.4062 111.938C27.1146 111.583 27.6875 111.052 28.125 110.344C28.5833 109.615 28.8125 108.688 28.8125 107.562V89.125C28.8125 87.8958 28.5833 86.875 28.125 86.0625C27.6875 85.25 27.1146 84.6458 26.4062 84.25C25.6979 83.8542 24.8958 83.625 24 83.5625ZM64.5 93.4375C64.5 96.5625 62.9583 98.125 59.875 98.125C59.4167 98.125 58.875 98.1875 58.25 98.3125C57.6458 98.4167 57.0417 98.6458 56.4375 99C55.9792 99.2708 55.5625 99.625 55.1875 100.062C54.8125 100.521 54.5104 101.094 54.2812 101.781C54.0521 102.469 53.9375 103.292 53.9375 104.25V113.188C53.9375 114.417 53.8229 115.552 53.5938 116.594C53.3646 117.615 52.9062 118.438 52.2188 119.062C51.5521 119.688 50.5417 120 49.1875 120C47.875 120 46.8854 119.688 46.2188 119.062C45.5521 118.438 45.1042 117.604 44.875 116.562C44.6667 115.521 44.5625 114.396 44.5625 113.188V95.6875C44.5625 94.4167 44.6667 93.2708 44.875 92.25C45.1042 91.2083 45.5521 90.375 46.2188 89.75C46.8854 89.125 47.875 88.8125 49.1875 88.8125C50.5625 88.8125 51.5417 89.1875 52.125 89.9375C52.7292 90.6667 53.0938 91.6146 53.2188 92.7812C53.3646 93.9271 53.4375 95.1458 53.4375 96.4375H53.9375C54.4792 94.3125 55.3542 92.5104 56.5625 91.0312C57.7708 89.5521 59.1042 88.8125 60.5625 88.8125C62.1667 88.8125 63.2188 89.1771 63.7188 89.9062C64.2396 90.6354 64.5 91.8125 64.5 93.4375ZM79.6875 114.812C79.6875 116.583 79.2396 117.896 78.3438 118.75C77.4479 119.583 76.1875 120 74.5625 120C71.1042 120 69.375 118.271 69.375 114.812C69.375 113.021 69.8229 111.719 70.7188 110.906C71.6146 110.094 72.8958 109.688 74.5625 109.688C76.2917 109.688 77.5729 110.094 78.4062 110.906C79.2604 111.719 79.6875 113.021 79.6875 114.812ZM93 76.25H105.188C106.438 76.25 107.604 76.3542 108.688 76.5625C109.792 76.7708 110.677 77.2083 111.344 77.875C112.031 78.5208 112.375 79.5208 112.375 80.875C112.375 82.2292 112.031 83.2396 111.344 83.9062C110.677 84.5521 109.792 84.9792 108.688 85.1875C107.604 85.3958 106.438 85.5 105.188 85.5H97.75V93.625H101.688C102.938 93.625 104.104 93.7188 105.188 93.9062C106.292 94.0729 107.177 94.4896 107.844 95.1562C108.531 95.8021 108.875 96.8333 108.875 98.25C108.875 99.6667 108.542 100.708 107.875 101.375C107.208 102.021 106.323 102.438 105.219 102.625C104.135 102.792 102.958 102.875 101.688 102.875H97.75V112.812C97.75 114.167 97.6667 115.385 97.5 116.469C97.3333 117.552 96.9167 118.417 96.25 119.062C95.5833 119.688 94.5 120 93 120C91.5 120 90.4167 119.688 89.75 119.062C89.0833 118.438 88.6667 117.583 88.5 116.5C88.3333 115.417 88.25 114.188 88.25 112.812V83.4375C88.25 82.0833 88.3333 80.8646 88.5 79.7812C88.6667 78.6979 89.0833 77.8438 89.75 77.2188C90.4167 76.5729 91.5 76.25 93 76.25ZM127.562 81C127.562 82.6042 127.146 83.8021 126.312 84.5938C125.479 85.3646 124.312 85.75 122.812 85.75C121.312 85.75 120.146 85.3646 119.312 84.5938C118.479 83.8021 118.062 82.6042 118.062 81C118.062 79.3333 118.479 78.125 119.312 77.375C120.146 76.625 121.312 76.25 122.812 76.25C124.417 76.25 125.604 76.625 126.375 77.375C127.167 78.125 127.562 79.3333 127.562 81ZM118 113V95.75C118 94.5 118.104 93.3438 118.312 92.2812C118.542 91.2188 118.99 90.3646 119.656 89.7188C120.344 89.0729 121.375 88.75 122.75 88.75C124.125 88.75 125.146 89.0729 125.812 89.7188C126.5 90.3646 126.948 91.2188 127.156 92.2812C127.385 93.3438 127.5 94.5 127.5 95.75V113C127.5 114.271 127.385 115.438 127.156 116.5C126.948 117.562 126.5 118.417 125.812 119.062C125.146 119.688 124.125 120 122.75 120C121.375 120 120.344 119.688 119.656 119.062C118.99 118.417 118.542 117.562 118.312 116.5C118.104 115.438 118 114.271 118 113ZM144.812 96.9375C144.812 97.7917 145.354 98.5417 146.438 99.1875C147.521 99.8125 148.667 100.417 149.875 101C151.354 101.708 152.781 102.49 154.156 103.344C155.531 104.198 156.656 105.219 157.531 106.406C158.427 107.594 158.875 109.083 158.875 110.875C158.875 112.083 158.698 113.188 158.344 114.188C157.594 116.062 156.406 117.469 154.781 118.406C154.385 118.635 153.969 118.844 153.531 119.031C153.115 119.198 152.688 119.354 152.25 119.5C151.354 119.771 150.448 119.958 149.531 120.062C148.615 120.188 147.75 120.25 146.938 120.25C145.292 120.25 143.896 120.115 142.75 119.844C141.562 119.573 140.542 119.219 139.688 118.781C138.833 118.323 138.135 117.802 137.594 117.219C136.823 116.427 136.271 115.552 135.938 114.594C135.604 113.635 135.438 112.729 135.438 111.875C135.438 109.458 136.854 108.25 139.688 108.25C140.729 108.25 141.583 108.531 142.25 109.094C142.917 109.656 143.271 110.562 143.312 111.812C143.354 112.604 143.75 113.135 144.5 113.406C145.25 113.677 146.042 113.812 146.875 113.812C147.688 113.812 148.344 113.604 148.844 113.188C149.365 112.75 149.625 112.188 149.625 111.5C149.625 110.688 149.323 109.958 148.719 109.312C148.115 108.667 147.344 108.073 146.406 107.531C145.49 106.99 144.562 106.458 143.625 105.938C142.333 105.25 141.073 104.51 139.844 103.719C138.615 102.906 137.604 101.979 136.812 100.938C136.021 99.875 135.625 98.625 135.625 97.1875C135.625 95.5625 135.885 94.2083 136.406 93.125C136.948 92.0208 137.729 91.125 138.75 90.4375C139.771 89.7708 141.01 89.2917 142.469 89C143.948 88.7083 145.625 88.5417 147.5 88.5H148C149.646 88.5 151.083 88.6458 152.312 88.9375C153.479 89.2292 154.448 89.6146 155.219 90.0938C156.01 90.5521 156.635 91.0729 157.094 91.6562C157.719 92.4688 158.115 93.3021 158.281 94.1562C158.469 94.9896 158.562 95.7708 158.562 96.5C158.562 97.7292 158.104 98.5625 157.188 99C156.292 99.4167 155.229 99.6458 154 99.6875C153.083 99.6875 152.302 99.4167 151.656 98.875C151.01 98.3125 150.688 97.7083 150.688 97.0625C150.646 96.2708 150.323 95.6667 149.719 95.25C149.135 94.8333 148.417 94.625 147.562 94.625C146.812 94.625 146.167 94.8021 145.625 95.1562C145.083 95.4896 144.812 96.0833 144.812 96.9375ZM191.062 99.9375V112.938C191.062 114.208 190.948 115.385 190.719 116.469C190.51 117.531 190.062 118.385 189.375 119.031C188.708 119.677 187.688 120 186.312 120C184.938 120 183.896 119.677 183.188 119.031C182.5 118.385 182.031 117.531 181.781 116.469C181.552 115.385 181.438 114.208 181.438 112.938V100.625C181.438 99.4583 181.292 98.4271 181 97.5312C180.708 96.6354 179.938 96.1875 178.688 96.1875C177.854 96.1875 177.177 96.4583 176.656 97C176.135 97.5417 175.729 98.3021 175.438 99.2812C175.125 100.24 174.906 101.385 174.781 102.719C174.677 104.052 174.625 105.479 174.625 107V112.938C174.625 114.208 174.51 115.385 174.281 116.469C174.052 117.531 173.594 118.385 172.906 119.031C172.219 119.677 171.167 120 169.75 120C168.375 120 167.344 119.677 166.656 119.031C165.99 118.385 165.542 117.531 165.312 116.469C165.104 115.385 165 114.208 165 112.938V83.3125C165 82.0208 165.104 80.8438 165.312 79.7812C165.542 78.7188 165.99 77.8646 166.656 77.2188C167.344 76.5729 168.375 76.25 169.75 76.25C171.167 76.25 172.219 76.5729 172.906 77.2188C173.594 77.8646 174.052 78.7188 174.281 79.7812C174.51 80.8438 174.625 82.0208 174.625 83.3125V94C175.042 92.6458 175.812 91.4375 176.938 90.375C178.062 89.2917 179.562 88.75 181.438 88.75C182.583 88.75 183.74 88.9479 184.906 89.3438C186.073 89.7188 187.104 90.3438 188 91.2188C188.917 92.0938 189.656 93.25 190.219 94.6875C190.781 96.1042 191.062 97.8542 191.062 99.9375Z" fill="white"/>
</g>
<path d="M25.9579 40.7057C25.9579 41.5405 25.2788 42.2918 24.3451 42.2918H17.215C16.3662 42.2918 15.6023 41.624 15.6023 40.7057V38.7021C15.6023 37.8672 16.3662 37.1159 17.215 37.1159H24.3451C25.194 37.1159 25.9579 37.7837 25.9579 38.7021V40.7057ZM54.9028 40.6222C54.9028 41.1231 54.4784 41.457 54.054 41.457H50.2343C49.725 41.457 49.3854 41.0396 49.3854 40.6222V39.5369C49.3854 39.036 49.8098 38.7021 50.2343 38.7021H54.054C54.5633 38.7021 54.9028 39.1195 54.9028 39.5369V40.6222ZM57.3644 65.6672C57.3644 67.8377 55.5818 69.5909 53.3749 69.5909H14.0744C11.8674 69.5909 10.0849 67.8377 10.0849 65.6672V64.4984H57.3644V65.6672Z" fill="#212528"/>
<path d="M10.0001 43.7111C10.0001 41.5405 11.7826 39.7874 13.9895 39.7874H53.2901C55.497 39.7874 57.2795 41.5405 57.2795 43.7111V44.8798H10.0001V43.7111Z" fill="#51575B"/>
<path d="M10 44.7129H57.2795V65.2498H10V44.7129Z" fill="#3E4347"/>
<path d="M50.404 43.0432H26.7219L29.0986 30.2702C29.2683 29.5189 30.2869 28.4336 30.8811 28.1831C34.531 26.597 42.6798 26.597 46.2448 28.1831C46.839 28.4336 47.8576 29.6024 48.0273 30.2702L50.404 43.0432Z" fill="#51575B"/>
<path d="M49.3006 50.5567H27.9102L30.0323 39.9543C30.202 39.3699 31.1357 38.3681 31.645 38.2012C34.8706 36.8654 42.2553 36.8654 45.5658 38.2012C46.075 38.4516 47.0088 39.3699 47.1785 39.9543L49.3006 50.5567Z" fill="#3E4347"/>
<path d="M54.8179 56.4005C54.8179 65.2498 47.518 72.4293 38.5205 72.4293C29.523 72.4293 22.2231 65.2498 22.2231 56.4005C22.2231 47.5513 29.523 40.3717 38.5205 40.3717C47.518 40.4552 54.8179 47.6348 54.8179 56.4005Z" fill="#788287"/>
<path d="M53.0354 56.4005C53.0354 64.2479 46.5843 70.5927 38.6054 70.5927C30.6264 70.5927 24.1754 64.2479 24.1754 56.4005C24.1754 48.5531 30.6264 42.2083 38.6054 42.2083C46.5843 42.2083 53.0354 48.5531 53.0354 56.4005Z" fill="#212528"/>
<path d="M38.6054 67.9212C45.0747 67.9212 50.3191 62.7632 50.3191 56.4005C50.3191 50.0378 45.0747 44.8798 38.6054 44.8798C32.136 44.8798 26.8916 50.0378 26.8916 56.4005C26.8916 62.7632 32.136 67.9212 38.6054 67.9212Z" fill="#3E4347"/>
<path d="M38.6054 62.6618C42.1213 62.6618 44.9716 59.8585 44.9716 56.4005C44.9716 52.9425 42.1213 50.1393 38.6054 50.1393C35.0894 50.1393 32.2392 52.9425 32.2392 56.4005C32.2392 59.8585 35.0894 62.6618 38.6054 62.6618Z" fill="#212528"/>
<path opacity="0.5" d="M47.1785 51.475C47.1785 53.4786 45.5657 55.0648 43.5285 55.0648C41.4914 55.0648 39.8786 53.4786 39.8786 51.475C39.8786 49.4714 41.4914 47.8852 43.5285 47.8852C45.5657 47.8852 47.1785 49.5549 47.1785 51.475Z" fill="#F5F5F5"/>
<path opacity="0.5" d="M36.3135 60.9086C37.5792 60.9086 38.6053 59.8995 38.6053 58.6546C38.6053 57.4097 37.5792 56.4005 36.3135 56.4005C35.0477 56.4005 34.0217 57.4097 34.0217 58.6546C34.0217 59.8995 35.0477 60.9086 36.3135 60.9086Z" fill="#F5F5F5"/>
<path opacity="0.5" d="M32.2391 63.9975C32.9892 63.9975 33.5972 63.3995 33.5972 62.6618C33.5972 61.924 32.9892 61.326 32.2391 61.326C31.489 61.326 30.881 61.924 30.881 62.6618C30.881 63.3995 31.489 63.9975 32.2391 63.9975Z" fill="#F5F5F5"/>
<path d="M21.1196 61.9939C21.1196 62.8287 20.4405 63.5801 19.5068 63.5801H12.6313C11.7825 63.5801 11.0186 62.9122 11.0186 61.9939V47.8852C11.0186 47.0504 11.6976 46.299 12.6313 46.299H19.5068C20.3556 46.299 21.1196 46.9669 21.1196 47.8852V61.9939Z" fill="#636C72"/>
<path d="M17.4697 44.8798C18.7823 44.8798 19.8464 43.8333 19.8464 42.5423C19.8464 41.2513 18.7823 40.2047 17.4697 40.2047C16.157 40.2047 15.093 41.2513 15.093 42.5423C15.093 43.8333 16.157 44.8798 17.4697 44.8798Z" fill="#212528"/>
<path d="M45.5658 33.5261C45.5658 34.3609 44.8867 34.9453 44.1228 34.9453H33.0032C32.1544 34.9453 31.5602 34.2774 31.5602 33.5261V32.0234C31.5602 31.1886 32.2392 30.6042 33.0032 30.6042H44.1228C44.9716 30.6042 45.5658 31.272 45.5658 32.0234V33.5261Z" fill="white"/>
<path d="M42.5948 31.6895L52.7807 25.0943L50.9133 22.6733L42.5948 31.6895ZM54.4784 34.7783V31.9399L44.0378 33.86L54.4784 34.7783ZM44.8018 19H41.3216L39.4542 31.1051L44.8018 19ZM35.0403 31.6895L26.3823 22.6733L24.43 25.0943L35.0403 31.6895ZM35.2949 19H31.7299L37.5868 31.1051L35.2949 19ZM22.3928 31.9399V34.7783L33.3426 33.86L22.3928 31.9399Z" fill="#FFCE31"/>
<path d="M12.6172 130.359L10.2734 134.516V137.234C10.2734 137.552 10.2474 137.846 10.1953 138.117C10.1432 138.383 10.0339 138.596 9.86719 138.758C9.70573 138.919 9.45052 139 9.10156 139C8.7526 139 8.49219 138.919 8.32031 138.758C8.15365 138.596 8.04427 138.383 7.99219 138.117C7.9401 137.846 7.91406 137.552 7.91406 137.234V134.516L5.58594 130.359C5.46094 130.141 5.34115 129.927 5.22656 129.719C5.11198 129.505 5.05469 129.292 5.05469 129.078C5.05469 128.938 5.09375 128.797 5.17188 128.656C5.25521 128.51 5.40365 128.375 5.61719 128.25C5.85156 128.125 6.07031 128.062 6.27344 128.062C6.58073 128.062 6.83594 128.19 7.03906 128.445C7.2474 128.695 7.41927 128.969 7.55469 129.266L8.97656 132.25H9.22656L10.6484 129.266C10.7839 128.969 10.9531 128.695 11.1562 128.445C11.3646 128.19 11.6224 128.062 11.9297 128.062C12.1276 128.062 12.3464 128.125 12.5859 128.25C12.7891 128.375 12.9323 128.51 13.0156 128.656C13.1042 128.797 13.1484 128.938 13.1484 129.078C13.1484 129.177 13.1068 129.328 13.0234 129.531C12.9818 129.635 12.9271 129.758 12.8594 129.898C12.7917 130.039 12.7109 130.193 12.6172 130.359ZM12.4609 136.062V134.125C12.4609 133.641 12.526 133.234 12.6562 132.906C12.7865 132.573 12.9531 132.294 13.1562 132.07C13.3646 131.846 13.5964 131.672 13.8516 131.547C14.0964 131.422 14.3438 131.328 14.5938 131.266C14.8385 131.203 15.0651 131.164 15.2734 131.148C15.487 131.133 15.6536 131.125 15.7734 131.125C15.8932 131.125 16.0573 131.133 16.2656 131.148C16.474 131.164 16.6979 131.203 16.9375 131.266C17.1771 131.328 17.4167 131.422 17.6562 131.547C17.901 131.672 18.1198 131.846 18.3125 132.07C18.5104 132.294 18.6693 132.573 18.7891 132.906C18.9141 133.24 18.9766 133.646 18.9766 134.125V136.062C18.9766 136.536 18.9141 136.943 18.7891 137.281C18.6641 137.615 18.5052 137.893 18.3125 138.117C18.1198 138.341 17.901 138.516 17.6562 138.641C17.4167 138.766 17.1771 138.859 16.9375 138.922C16.6979 138.984 16.474 139.023 16.2656 139.039C16.0573 139.055 15.8932 139.062 15.7734 139.062C15.6589 139.062 15.4948 139.055 15.2812 139.039C15.0729 139.023 14.8438 138.984 14.5938 138.922C14.349 138.859 14.1016 138.766 13.8516 138.641C13.5964 138.516 13.3672 138.341 13.1641 138.117C12.9557 137.893 12.7865 137.615 12.6562 137.281C12.526 136.948 12.4609 136.542 12.4609 136.062ZM14.8672 133.781V136.609C14.8776 136.766 14.9141 136.898 14.9766 137.008C15.0339 137.112 15.1224 137.206 15.2422 137.289C15.3672 137.367 15.5443 137.406 15.7734 137.406C15.9922 137.406 16.1589 137.367 16.2734 137.289C16.3932 137.206 16.4818 137.112 16.5391 137.008C16.6068 136.883 16.6432 136.75 16.6484 136.609V133.781C16.6432 133.635 16.6068 133.492 16.5391 133.352C16.4818 133.247 16.3932 133.151 16.2734 133.062C16.1589 132.969 15.9922 132.922 15.7734 132.922C15.5443 132.922 15.3672 132.969 15.2422 133.062C15.1224 133.151 15.0339 133.247 14.9766 133.352C14.9141 133.471 14.8776 133.615 14.8672 133.781ZM20.5078 136.219V132.969C20.5078 132.646 20.5365 132.352 20.5938 132.086C20.6562 131.815 20.7734 131.599 20.9453 131.438C21.1224 131.271 21.3828 131.188 21.7266 131.188C22.0703 131.188 22.3255 131.268 22.4922 131.43C22.6641 131.591 22.776 131.807 22.8281 132.078C22.8854 132.349 22.9141 132.646 22.9141 132.969V136.016C22.9141 136.328 22.9531 136.599 23.0312 136.828C23.1094 137.057 23.2995 137.172 23.6016 137.172C23.8099 137.172 23.9792 137.102 24.1094 136.961C24.2448 136.82 24.3516 136.628 24.4297 136.383C24.5026 136.138 24.5521 135.852 24.5781 135.523C24.6042 135.19 24.6172 134.833 24.6172 134.453V132.969C24.6172 132.646 24.6458 132.352 24.7031 132.086C24.7656 131.815 24.8828 131.599 25.0547 131.438C25.2318 131.271 25.4922 131.188 25.8359 131.188C26.1797 131.188 26.4349 131.268 26.6016 131.43C26.7734 131.591 26.8854 131.807 26.9375 132.078C26.9948 132.349 27.0234 132.646 27.0234 132.969V137.234C27.0234 137.557 27 137.854 26.9531 138.125C26.9115 138.391 26.8073 138.604 26.6406 138.766C26.474 138.922 26.2057 139 25.8359 139C25.4974 139 25.2396 138.935 25.0625 138.805C24.8906 138.669 24.7734 138.503 24.7109 138.305C24.6484 138.102 24.6172 137.896 24.6172 137.688C24.5234 138.031 24.3333 138.336 24.0469 138.602C23.7604 138.867 23.3828 139 22.9141 139C22.6276 139 22.3411 138.953 22.0547 138.859C21.7682 138.766 21.5104 138.609 21.2812 138.391C21.0521 138.172 20.8646 137.885 20.7188 137.531C20.5781 137.177 20.5078 136.74 20.5078 136.219ZM34.0078 132.359C34.0078 133.141 33.6224 133.531 32.8516 133.531C32.737 133.531 32.6016 133.547 32.4453 133.578C32.2943 133.604 32.1432 133.661 31.9922 133.75C31.8776 133.818 31.7734 133.906 31.6797 134.016C31.5859 134.13 31.5104 134.273 31.4531 134.445C31.3958 134.617 31.3672 134.823 31.3672 135.062V137.297C31.3672 137.604 31.3385 137.888 31.2812 138.148C31.224 138.404 31.1094 138.609 30.9375 138.766C30.7708 138.922 30.5182 139 30.1797 139C29.8516 139 29.6042 138.922 29.4375 138.766C29.2708 138.609 29.1589 138.401 29.1016 138.141C29.0495 137.88 29.0234 137.599 29.0234 137.297V132.922C29.0234 132.604 29.0495 132.318 29.1016 132.062C29.1589 131.802 29.2708 131.594 29.4375 131.438C29.6042 131.281 29.8516 131.203 30.1797 131.203C30.5234 131.203 30.7682 131.297 30.9141 131.484C31.0651 131.667 31.1562 131.904 31.1875 132.195C31.224 132.482 31.2422 132.786 31.2422 133.109H31.3672C31.5026 132.578 31.7214 132.128 32.0234 131.758C32.3255 131.388 32.6589 131.203 33.0234 131.203C33.4245 131.203 33.6875 131.294 33.8125 131.477C33.9427 131.659 34.0078 131.953 34.0078 132.359ZM45.1953 129.844V137.234C45.1953 137.557 45.1719 137.854 45.125 138.125C45.0781 138.391 44.9714 138.604 44.8047 138.766C44.6432 138.922 44.3828 139 44.0234 139C43.6849 139 43.4297 138.935 43.2578 138.805C43.0859 138.669 42.9688 138.503 42.9062 138.305C42.849 138.102 42.8203 137.896 42.8203 137.688C42.7161 138.031 42.5286 138.336 42.2578 138.602C41.987 138.867 41.612 139 41.1328 139C40.8464 139 40.5599 138.953 40.2734 138.859C39.987 138.766 39.7292 138.609 39.5 138.391C39.2708 138.172 39.0833 137.888 38.9375 137.539C38.7969 137.185 38.7266 136.75 38.7266 136.234V133.969C38.7266 133.448 38.7969 133.013 38.9375 132.664C39.0833 132.31 39.2708 132.023 39.5 131.805C39.7292 131.591 39.987 131.438 40.2734 131.344C40.5599 131.25 40.8464 131.203 41.1328 131.203C41.612 131.203 41.987 131.333 42.2578 131.594C42.5286 131.854 42.7161 132.161 42.8203 132.516V129.844C42.8203 129.516 42.8464 129.219 42.8984 128.953C42.9557 128.682 43.0703 128.466 43.2422 128.305C43.4141 128.143 43.6745 128.062 44.0234 128.062C44.362 128.062 44.6146 128.143 44.7812 128.305C44.9479 128.466 45.0573 128.682 45.1094 128.953C45.1667 129.224 45.1953 129.521 45.1953 129.844ZM41.1328 134.141V136.031C41.1328 136.333 41.1693 136.599 41.2422 136.828C41.3151 137.057 41.5078 137.172 41.8203 137.172C42.2057 137.172 42.4714 136.984 42.6172 136.609C42.6901 136.422 42.7396 136.185 42.7656 135.898C42.7969 135.607 42.8151 135.26 42.8203 134.859C42.8203 134.615 42.7917 134.352 42.7344 134.07C42.6771 133.784 42.5755 133.539 42.4297 133.336C42.2839 133.133 42.0807 133.031 41.8203 133.031C41.5078 133.031 41.3151 133.143 41.2422 133.367C41.1693 133.591 41.1328 133.849 41.1328 134.141ZM49.6484 129.25C49.6484 129.651 49.5443 129.951 49.3359 130.148C49.1276 130.341 48.8359 130.438 48.4609 130.438C48.0859 130.438 47.7943 130.341 47.5859 130.148C47.3776 129.951 47.2734 129.651 47.2734 129.25C47.2734 128.833 47.3776 128.531 47.5859 128.344C47.7943 128.156 48.0859 128.062 48.4609 128.062C48.862 128.062 49.1589 128.156 49.3516 128.344C49.5495 128.531 49.6484 128.833 49.6484 129.25ZM47.2578 137.25V132.938C47.2578 132.625 47.2839 132.336 47.3359 132.07C47.3932 131.805 47.5052 131.591 47.6719 131.43C47.8438 131.268 48.1016 131.188 48.4453 131.188C48.7891 131.188 49.0443 131.268 49.2109 131.43C49.3828 131.591 49.4948 131.805 49.5469 132.07C49.6042 132.336 49.6328 132.625 49.6328 132.938V137.25C49.6328 137.568 49.6042 137.859 49.5469 138.125C49.4948 138.391 49.3828 138.604 49.2109 138.766C49.0443 138.922 48.7891 139 48.4453 139C48.1016 139 47.8438 138.922 47.6719 138.766C47.5052 138.604 47.3932 138.391 47.3359 138.125C47.2839 137.859 47.2578 137.568 47.2578 137.25ZM58.1484 132.953V139.234C58.1484 139.703 58.0859 140.099 57.9609 140.422C57.8307 140.745 57.6667 141.013 57.4688 141.227C57.276 141.44 57.0573 141.607 56.8125 141.727C56.5625 141.846 56.3255 141.938 56.1016 142C55.8672 142.057 55.6536 142.091 55.4609 142.102C55.2682 142.117 55.1224 142.125 55.0234 142.125C54.6536 142.125 54.2839 142.099 53.9141 142.047C53.5495 141.995 53.2135 141.898 52.9062 141.758C52.6042 141.617 52.3516 141.427 52.1484 141.188C51.9453 140.948 51.8307 140.641 51.8047 140.266C51.8047 140.078 51.8828 139.917 52.0391 139.781C52.2005 139.646 52.487 139.578 52.8984 139.578C53.3568 139.578 53.6589 139.625 53.8047 139.719C53.9505 139.818 54.0755 140.005 54.1797 140.281C54.2578 140.479 54.5078 140.578 54.9297 140.578C55.1641 140.578 55.3411 140.516 55.4609 140.391C55.5859 140.266 55.6693 140.112 55.7109 139.93C55.7526 139.753 55.7734 139.589 55.7734 139.438V137.688C55.6693 138.036 55.4818 138.344 55.2109 138.609C54.9401 138.87 54.5651 139 54.0859 139C53.7995 139 53.513 138.953 53.2266 138.859C52.9401 138.766 52.6823 138.609 52.4531 138.391C52.2188 138.177 52.0286 137.893 51.8828 137.539C51.737 137.185 51.6641 136.745 51.6641 136.219V133.953C51.6641 133.438 51.737 133.005 51.8828 132.656C52.0286 132.302 52.2188 132.016 52.4531 131.797C52.6823 131.578 52.9401 131.422 53.2266 131.328C53.513 131.234 53.7995 131.188 54.0859 131.188C54.5651 131.188 54.9401 131.32 55.2109 131.586C55.4818 131.852 55.6693 132.156 55.7734 132.5C55.7734 132.292 55.8021 132.089 55.8594 131.891C55.9219 131.688 56.0391 131.521 56.2109 131.391C56.3828 131.255 56.638 131.188 56.9766 131.188C57.3359 131.188 57.5964 131.268 57.7578 131.43C57.9245 131.586 58.0312 131.799 58.0781 132.07C58.125 132.336 58.1484 132.63 58.1484 132.953ZM54.0859 134.156V136.047C54.0859 136.344 54.1224 136.607 54.1953 136.836C54.2682 137.06 54.4609 137.172 54.7734 137.172C55.0339 137.172 55.2344 137.07 55.375 136.867C55.5208 136.664 55.6224 136.419 55.6797 136.133C55.7422 135.841 55.7734 135.573 55.7734 135.328C55.7682 134.932 55.75 134.589 55.7188 134.297C55.6927 134.005 55.6432 133.763 55.5703 133.57C55.4245 133.201 55.1589 133.016 54.7734 133.016C54.4609 133.016 54.2682 133.13 54.1953 133.359C54.1224 133.583 54.0859 133.849 54.0859 134.156ZM62.6797 129.25C62.6797 129.651 62.5755 129.951 62.3672 130.148C62.1589 130.341 61.8672 130.438 61.4922 130.438C61.1172 130.438 60.8255 130.341 60.6172 130.148C60.4089 129.951 60.3047 129.651 60.3047 129.25C60.3047 128.833 60.4089 128.531 60.6172 128.344C60.8255 128.156 61.1172 128.062 61.4922 128.062C61.8932 128.062 62.1901 128.156 62.3828 128.344C62.5807 128.531 62.6797 128.833 62.6797 129.25ZM60.2891 137.25V132.938C60.2891 132.625 60.3151 132.336 60.3672 132.07C60.4245 131.805 60.5365 131.591 60.7031 131.43C60.875 131.268 61.1328 131.188 61.4766 131.188C61.8203 131.188 62.0755 131.268 62.2422 131.43C62.4141 131.591 62.526 131.805 62.5781 132.07C62.6354 132.336 62.6641 132.625 62.6641 132.938V137.25C62.6641 137.568 62.6354 137.859 62.5781 138.125C62.526 138.391 62.4141 138.604 62.2422 138.766C62.0755 138.922 61.8203 139 61.4766 139C61.1328 139 60.875 138.922 60.7031 138.766C60.5365 138.604 60.4245 138.391 60.3672 138.125C60.3151 137.859 60.2891 137.568 60.2891 137.25ZM65.5547 131.188H65.9922V129.812C65.9922 129.5 66.0182 129.211 66.0703 128.945C66.1276 128.68 66.2422 128.466 66.4141 128.305C66.5859 128.143 66.8411 128.062 67.1797 128.062C67.5182 128.062 67.7708 128.143 67.9375 128.305C68.1042 128.466 68.2135 128.68 68.2656 128.945C68.3229 129.206 68.3516 129.495 68.3516 129.812V131.188H68.9922C69.3151 131.188 69.5833 131.24 69.7969 131.344C70.0104 131.448 70.1172 131.708 70.1172 132.125C70.1172 132.521 70.0104 132.776 69.7969 132.891C69.5833 133.005 69.3151 133.062 68.9922 133.062H68.3516V135.797C68.3516 136.047 68.388 136.276 68.4609 136.484C68.5391 136.693 68.737 136.797 69.0547 136.797C69.4349 136.797 69.7057 136.865 69.8672 137C70.0339 137.135 70.1172 137.401 70.1172 137.797C70.1172 138.214 69.9375 138.518 69.5781 138.711C69.224 138.904 68.8151 139 68.3516 139C67.9818 139 67.6667 138.961 67.4062 138.883C66.901 138.737 66.5443 138.453 66.3359 138.031C66.2318 137.828 66.1562 137.604 66.1094 137.359C66.0573 137.109 66.0234 136.841 66.0078 136.555C65.9974 136.263 65.9922 135.958 65.9922 135.641V133.062H65.5547C65.237 133.062 64.9714 133.005 64.7578 132.891C64.5495 132.776 64.4453 132.521 64.4453 132.125C64.4453 131.708 64.5495 131.448 64.7578 131.344C64.9714 131.24 65.237 131.188 65.5547 131.188ZM77.8984 132.969V137.234C77.8984 137.557 77.875 137.854 77.8281 138.125C77.7812 138.391 77.6745 138.604 77.5078 138.766C77.3464 138.922 77.0859 139 76.7266 139C76.388 139 76.1328 138.935 75.9609 138.805C75.7891 138.669 75.6719 138.503 75.6094 138.305C75.5521 138.102 75.5234 137.896 75.5234 137.688C75.4193 138.031 75.2318 138.336 74.9609 138.602C74.6901 138.867 74.3151 139 73.8359 139C73.5495 139 73.263 138.953 72.9766 138.859C72.6901 138.766 72.4323 138.609 72.2031 138.391C71.974 138.172 71.7865 137.888 71.6406 137.539C71.5 137.185 71.4297 136.75 71.4297 136.234V133.969C71.4297 133.448 71.5 133.013 71.6406 132.664C71.7865 132.31 71.974 132.023 72.2031 131.805C72.4323 131.591 72.6901 131.438 72.9766 131.344C73.263 131.25 73.5495 131.203 73.8359 131.203C74.3151 131.203 74.6901 131.333 74.9609 131.594C75.2318 131.854 75.4193 132.161 75.5234 132.516C75.5234 132.036 75.6406 131.695 75.875 131.492C76.1094 131.289 76.3932 131.188 76.7266 131.188C77.0651 131.188 77.3177 131.268 77.4844 131.43C77.651 131.591 77.7604 131.807 77.8125 132.078C77.8698 132.349 77.8984 132.646 77.8984 132.969ZM73.8359 134.141V136.031C73.8359 136.333 73.8724 136.599 73.9453 136.828C74.0182 137.057 74.2109 137.172 74.5234 137.172C74.9089 137.172 75.1745 136.984 75.3203 136.609C75.3932 136.422 75.4427 136.185 75.4688 135.898C75.5 135.607 75.5182 135.26 75.5234 134.859C75.5234 134.615 75.4948 134.352 75.4375 134.07C75.3802 133.784 75.2786 133.539 75.1328 133.336C74.987 133.133 74.7839 133.031 74.5234 133.031C74.2109 133.031 74.0182 133.143 73.9453 133.367C73.8724 133.591 73.8359 133.849 73.8359 134.141ZM79.8359 137.25V129.797C79.8359 129.479 79.862 129.19 79.9141 128.93C79.9714 128.669 80.0859 128.461 80.2578 128.305C80.4297 128.143 80.6849 128.062 81.0234 128.062C81.3672 128.062 81.6224 128.141 81.7891 128.297C81.9609 128.453 82.0729 128.664 82.125 128.93C82.1823 129.19 82.2109 129.479 82.2109 129.797V137.25C82.2109 137.568 82.1823 137.859 82.125 138.125C82.0729 138.391 81.9609 138.604 81.7891 138.766C81.6224 138.922 81.3672 139 81.0234 139C80.6849 139 80.4297 138.922 80.2578 138.766C80.0859 138.604 79.9714 138.391 79.9141 138.125C79.862 137.859 79.8359 137.568 79.8359 137.25ZM94.3516 132.969V137.234C94.3516 137.557 94.3281 137.854 94.2812 138.125C94.2344 138.391 94.1276 138.604 93.9609 138.766C93.7995 138.922 93.5391 139 93.1797 139C92.8411 139 92.5859 138.935 92.4141 138.805C92.2422 138.669 92.125 138.503 92.0625 138.305C92.0052 138.102 91.9766 137.896 91.9766 137.688C91.8724 138.031 91.6849 138.336 91.4141 138.602C91.1432 138.867 90.7682 139 90.2891 139C90.0026 139 89.7161 138.953 89.4297 138.859C89.1432 138.766 88.8854 138.609 88.6562 138.391C88.4271 138.172 88.2396 137.888 88.0938 137.539C87.9531 137.185 87.8828 136.75 87.8828 136.234V133.969C87.8828 133.448 87.9531 133.013 88.0938 132.664C88.2396 132.31 88.4271 132.023 88.6562 131.805C88.8854 131.591 89.1432 131.438 89.4297 131.344C89.7161 131.25 90.0026 131.203 90.2891 131.203C90.7682 131.203 91.1432 131.333 91.4141 131.594C91.6849 131.854 91.8724 132.161 91.9766 132.516C91.9766 132.036 92.0938 131.695 92.3281 131.492C92.5625 131.289 92.8464 131.188 93.1797 131.188C93.5182 131.188 93.7708 131.268 93.9375 131.43C94.1042 131.591 94.2135 131.807 94.2656 132.078C94.3229 132.349 94.3516 132.646 94.3516 132.969ZM90.2891 134.141V136.031C90.2891 136.333 90.3255 136.599 90.3984 136.828C90.4714 137.057 90.6641 137.172 90.9766 137.172C91.362 137.172 91.6276 136.984 91.7734 136.609C91.8464 136.422 91.8958 136.185 91.9219 135.898C91.9531 135.607 91.9714 135.26 91.9766 134.859C91.9766 134.615 91.9479 134.352 91.8906 134.07C91.8333 133.784 91.7318 133.539 91.5859 133.336C91.4401 133.133 91.237 133.031 90.9766 133.031C90.6641 133.031 90.4714 133.143 90.3984 133.367C90.3255 133.591 90.2891 133.849 90.2891 134.141ZM102.477 132.953V140.344C102.477 140.667 102.448 140.964 102.391 141.234C102.339 141.505 102.229 141.721 102.062 141.883C101.896 142.044 101.643 142.125 101.305 142.125C100.956 142.125 100.695 142.044 100.523 141.883C100.352 141.721 100.237 141.505 100.18 141.234C100.128 140.969 100.102 140.672 100.102 140.344V137.672C99.9974 138.021 99.8099 138.328 99.5391 138.594C99.2682 138.854 98.8932 138.984 98.4141 138.984C98.1276 138.984 97.8411 138.938 97.5547 138.844C97.2682 138.75 97.0104 138.594 96.7812 138.375C96.5521 138.161 96.3646 137.88 96.2188 137.531C96.0781 137.177 96.0078 136.74 96.0078 136.219V133.953C96.0078 133.438 96.0781 133.005 96.2188 132.656C96.3646 132.302 96.5521 132.016 96.7812 131.797C97.0104 131.578 97.2682 131.422 97.5547 131.328C97.8411 131.234 98.1276 131.188 98.4141 131.188C98.8932 131.188 99.2682 131.32 99.5391 131.586C99.8099 131.852 99.9974 132.156 100.102 132.5C100.102 132.292 100.13 132.089 100.188 131.891C100.25 131.688 100.367 131.521 100.539 131.391C100.711 131.255 100.966 131.188 101.305 131.188C101.664 131.188 101.924 131.268 102.086 131.43C102.253 131.586 102.359 131.799 102.406 132.07C102.453 132.336 102.477 132.63 102.477 132.953ZM98.4141 134.156V136.047C98.4141 136.339 98.4505 136.596 98.5234 136.82C98.5964 137.044 98.7891 137.156 99.1016 137.156C99.362 137.156 99.5651 137.057 99.7109 136.859C99.8568 136.656 99.9583 136.414 100.016 136.133C100.073 135.846 100.102 135.578 100.102 135.328C100.096 134.932 100.078 134.589 100.047 134.297C100.021 134.005 99.9714 133.763 99.8984 133.57C99.7526 133.201 99.487 133.016 99.1016 133.016C98.7891 133.016 98.5964 133.13 98.5234 133.359C98.4505 133.583 98.4141 133.849 98.4141 134.156ZM104.414 136.219V132.969C104.414 132.646 104.443 132.352 104.5 132.086C104.562 131.815 104.68 131.599 104.852 131.438C105.029 131.271 105.289 131.188 105.633 131.188C105.977 131.188 106.232 131.268 106.398 131.43C106.57 131.591 106.682 131.807 106.734 132.078C106.792 132.349 106.82 132.646 106.82 132.969V136.016C106.82 136.328 106.859 136.599 106.938 136.828C107.016 137.057 107.206 137.172 107.508 137.172C107.716 137.172 107.885 137.102 108.016 136.961C108.151 136.82 108.258 136.628 108.336 136.383C108.409 136.138 108.458 135.852 108.484 135.523C108.51 135.19 108.523 134.833 108.523 134.453V132.969C108.523 132.646 108.552 132.352 108.609 132.086C108.672 131.815 108.789 131.599 108.961 131.438C109.138 131.271 109.398 131.188 109.742 131.188C110.086 131.188 110.341 131.268 110.508 131.43C110.68 131.591 110.792 131.807 110.844 132.078C110.901 132.349 110.93 132.646 110.93 132.969V137.234C110.93 137.557 110.906 137.854 110.859 138.125C110.818 138.391 110.714 138.604 110.547 138.766C110.38 138.922 110.112 139 109.742 139C109.404 139 109.146 138.935 108.969 138.805C108.797 138.669 108.68 138.503 108.617 138.305C108.555 138.102 108.523 137.896 108.523 137.688C108.43 138.031 108.24 138.336 107.953 138.602C107.667 138.867 107.289 139 106.82 139C106.534 139 106.247 138.953 105.961 138.859C105.674 138.766 105.417 138.609 105.188 138.391C104.958 138.172 104.771 137.885 104.625 137.531C104.484 137.177 104.414 136.74 104.414 136.219ZM119.023 132.969V137.234C119.023 137.557 119 137.854 118.953 138.125C118.906 138.391 118.799 138.604 118.633 138.766C118.471 138.922 118.211 139 117.852 139C117.513 139 117.258 138.935 117.086 138.805C116.914 138.669 116.797 138.503 116.734 138.305C116.677 138.102 116.648 137.896 116.648 137.688C116.544 138.031 116.357 138.336 116.086 138.602C115.815 138.867 115.44 139 114.961 139C114.674 139 114.388 138.953 114.102 138.859C113.815 138.766 113.557 138.609 113.328 138.391C113.099 138.172 112.911 137.888 112.766 137.539C112.625 137.185 112.555 136.75 112.555 136.234V133.969C112.555 133.448 112.625 133.013 112.766 132.664C112.911 132.31 113.099 132.023 113.328 131.805C113.557 131.591 113.815 131.438 114.102 131.344C114.388 131.25 114.674 131.203 114.961 131.203C115.44 131.203 115.815 131.333 116.086 131.594C116.357 131.854 116.544 132.161 116.648 132.516C116.648 132.036 116.766 131.695 117 131.492C117.234 131.289 117.518 131.188 117.852 131.188C118.19 131.188 118.443 131.268 118.609 131.43C118.776 131.591 118.885 131.807 118.938 132.078C118.995 132.349 119.023 132.646 119.023 132.969ZM114.961 134.141V136.031C114.961 136.333 114.997 136.599 115.07 136.828C115.143 137.057 115.336 137.172 115.648 137.172C116.034 137.172 116.299 136.984 116.445 136.609C116.518 136.422 116.568 136.185 116.594 135.898C116.625 135.607 116.643 135.26 116.648 134.859C116.648 134.615 116.62 134.352 116.562 134.07C116.505 133.784 116.404 133.539 116.258 133.336C116.112 133.133 115.909 133.031 115.648 133.031C115.336 133.031 115.143 133.143 115.07 133.367C114.997 133.591 114.961 133.849 114.961 134.141ZM125.883 132.359C125.883 133.141 125.497 133.531 124.727 133.531C124.612 133.531 124.477 133.547 124.32 133.578C124.169 133.604 124.018 133.661 123.867 133.75C123.753 133.818 123.648 133.906 123.555 134.016C123.461 134.13 123.385 134.273 123.328 134.445C123.271 134.617 123.242 134.823 123.242 135.062V137.297C123.242 137.604 123.214 137.888 123.156 138.148C123.099 138.404 122.984 138.609 122.812 138.766C122.646 138.922 122.393 139 122.055 139C121.727 139 121.479 138.922 121.312 138.766C121.146 138.609 121.034 138.401 120.977 138.141C120.924 137.88 120.898 137.599 120.898 137.297V132.922C120.898 132.604 120.924 132.318 120.977 132.062C121.034 131.802 121.146 131.594 121.312 131.438C121.479 131.281 121.727 131.203 122.055 131.203C122.398 131.203 122.643 131.297 122.789 131.484C122.94 131.667 123.031 131.904 123.062 132.195C123.099 132.482 123.117 132.786 123.117 133.109H123.242C123.378 132.578 123.596 132.128 123.898 131.758C124.201 131.388 124.534 131.203 124.898 131.203C125.299 131.203 125.562 131.294 125.688 131.477C125.818 131.659 125.883 131.953 125.883 132.359ZM129.648 129.25C129.648 129.651 129.544 129.951 129.336 130.148C129.128 130.341 128.836 130.438 128.461 130.438C128.086 130.438 127.794 130.341 127.586 130.148C127.378 129.951 127.273 129.651 127.273 129.25C127.273 128.833 127.378 128.531 127.586 128.344C127.794 128.156 128.086 128.062 128.461 128.062C128.862 128.062 129.159 128.156 129.352 128.344C129.549 128.531 129.648 128.833 129.648 129.25ZM127.258 137.25V132.938C127.258 132.625 127.284 132.336 127.336 132.07C127.393 131.805 127.505 131.591 127.672 131.43C127.844 131.268 128.102 131.188 128.445 131.188C128.789 131.188 129.044 131.268 129.211 131.43C129.383 131.591 129.495 131.805 129.547 132.07C129.604 132.336 129.633 132.625 129.633 132.938V137.25C129.633 137.568 129.604 137.859 129.547 138.125C129.495 138.391 129.383 138.604 129.211 138.766C129.044 138.922 128.789 139 128.445 139C128.102 139 127.844 138.922 127.672 138.766C127.505 138.604 127.393 138.391 127.336 138.125C127.284 137.859 127.258 137.568 127.258 137.25ZM131.867 136.219V132.969C131.867 132.646 131.896 132.352 131.953 132.086C132.016 131.815 132.133 131.599 132.305 131.438C132.482 131.271 132.742 131.188 133.086 131.188C133.43 131.188 133.685 131.268 133.852 131.43C134.023 131.591 134.135 131.807 134.188 132.078C134.245 132.349 134.273 132.646 134.273 132.969V136.016C134.273 136.328 134.312 136.599 134.391 136.828C134.469 137.057 134.659 137.172 134.961 137.172C135.169 137.172 135.339 137.102 135.469 136.961C135.604 136.82 135.711 136.628 135.789 136.383C135.862 136.138 135.911 135.852 135.938 135.523C135.964 135.19 135.977 134.833 135.977 134.453V132.969C135.977 132.646 136.005 132.352 136.062 132.086C136.125 131.815 136.242 131.599 136.414 131.438C136.591 131.271 136.852 131.188 137.195 131.188C137.539 131.188 137.794 131.268 137.961 131.43C138.133 131.591 138.245 131.807 138.297 132.078C138.354 132.349 138.383 132.646 138.383 132.969V137.234C138.383 137.557 138.359 137.854 138.312 138.125C138.271 138.391 138.167 138.604 138 138.766C137.833 138.922 137.565 139 137.195 139C136.857 139 136.599 138.935 136.422 138.805C136.25 138.669 136.133 138.503 136.07 138.305C136.008 138.102 135.977 137.896 135.977 137.688C135.883 138.031 135.693 138.336 135.406 138.602C135.12 138.867 134.742 139 134.273 139C133.987 139 133.701 138.953 133.414 138.859C133.128 138.766 132.87 138.609 132.641 138.391C132.411 138.172 132.224 137.885 132.078 137.531C131.938 137.177 131.867 136.74 131.867 136.219ZM145.664 139C145.326 139 145.07 138.919 144.898 138.758C144.727 138.596 144.612 138.383 144.555 138.117C144.503 137.846 144.477 137.552 144.477 137.234V134.141C144.477 133.844 144.438 133.583 144.359 133.359C144.281 133.13 144.091 133.016 143.789 133.016C143.581 133.016 143.411 133.086 143.281 133.227C143.151 133.362 143.049 133.552 142.977 133.797C142.898 134.036 142.844 134.323 142.812 134.656C142.786 134.984 142.773 135.339 142.773 135.719V137.234C142.773 137.552 142.745 137.846 142.688 138.117C142.635 138.383 142.523 138.596 142.352 138.758C142.185 138.919 141.93 139 141.586 139C141.242 139 140.984 138.919 140.812 138.758C140.646 138.596 140.534 138.383 140.477 138.117C140.424 137.846 140.398 137.552 140.398 137.234V132.953C140.398 132.625 140.422 132.328 140.469 132.062C140.521 131.797 140.63 131.586 140.797 131.43C140.969 131.268 141.232 131.188 141.586 131.188C141.93 131.188 142.185 131.255 142.352 131.391C142.523 131.521 142.635 131.688 142.688 131.891C142.745 132.089 142.773 132.292 142.773 132.5C142.878 132.161 143.091 131.859 143.414 131.594C143.737 131.323 144.133 131.188 144.602 131.188C144.945 131.188 145.279 131.271 145.602 131.438C145.924 131.604 146.201 131.875 146.43 132.25C146.586 131.896 146.872 131.63 147.289 131.453C147.711 131.276 148.133 131.188 148.555 131.188C148.841 131.188 149.128 131.234 149.414 131.328C149.701 131.422 149.958 131.578 150.188 131.797C150.417 132.016 150.602 132.302 150.742 132.656C150.888 133.005 150.961 133.438 150.961 133.953V137.234C150.961 137.552 150.93 137.846 150.867 138.117C150.81 138.383 150.695 138.596 150.523 138.758C150.352 138.919 150.096 139 149.758 139C149.414 139 149.156 138.919 148.984 138.758C148.812 138.596 148.698 138.383 148.641 138.117C148.583 137.846 148.555 137.552 148.555 137.234V134.141C148.555 133.839 148.513 133.576 148.43 133.352C148.346 133.128 148.154 133.016 147.852 133.016C147.617 133.016 147.43 133.115 147.289 133.312C147.154 133.505 147.055 133.758 146.992 134.07C146.93 134.383 146.888 134.719 146.867 135.078V137.234C146.867 137.552 146.839 137.846 146.781 138.117C146.724 138.383 146.609 138.596 146.438 138.758C146.271 138.919 146.013 139 145.664 139ZM162.992 132.953V139.234C162.992 139.703 162.93 140.099 162.805 140.422C162.674 140.745 162.51 141.013 162.312 141.227C162.12 141.44 161.901 141.607 161.656 141.727C161.406 141.846 161.169 141.938 160.945 142C160.711 142.057 160.497 142.091 160.305 142.102C160.112 142.117 159.966 142.125 159.867 142.125C159.497 142.125 159.128 142.099 158.758 142.047C158.393 141.995 158.057 141.898 157.75 141.758C157.448 141.617 157.195 141.427 156.992 141.188C156.789 140.948 156.674 140.641 156.648 140.266C156.648 140.078 156.727 139.917 156.883 139.781C157.044 139.646 157.331 139.578 157.742 139.578C158.201 139.578 158.503 139.625 158.648 139.719C158.794 139.818 158.919 140.005 159.023 140.281C159.102 140.479 159.352 140.578 159.773 140.578C160.008 140.578 160.185 140.516 160.305 140.391C160.43 140.266 160.513 140.112 160.555 139.93C160.596 139.753 160.617 139.589 160.617 139.438V137.688C160.513 138.036 160.326 138.344 160.055 138.609C159.784 138.87 159.409 139 158.93 139C158.643 139 158.357 138.953 158.07 138.859C157.784 138.766 157.526 138.609 157.297 138.391C157.062 138.177 156.872 137.893 156.727 137.539C156.581 137.185 156.508 136.745 156.508 136.219V133.953C156.508 133.438 156.581 133.005 156.727 132.656C156.872 132.302 157.062 132.016 157.297 131.797C157.526 131.578 157.784 131.422 158.07 131.328C158.357 131.234 158.643 131.188 158.93 131.188C159.409 131.188 159.784 131.32 160.055 131.586C160.326 131.852 160.513 132.156 160.617 132.5C160.617 132.292 160.646 132.089 160.703 131.891C160.766 131.688 160.883 131.521 161.055 131.391C161.227 131.255 161.482 131.188 161.82 131.188C162.18 131.188 162.44 131.268 162.602 131.43C162.768 131.586 162.875 131.799 162.922 132.07C162.969 132.336 162.992 132.63 162.992 132.953ZM158.93 134.156V136.047C158.93 136.344 158.966 136.607 159.039 136.836C159.112 137.06 159.305 137.172 159.617 137.172C159.878 137.172 160.078 137.07 160.219 136.867C160.365 136.664 160.466 136.419 160.523 136.133C160.586 135.841 160.617 135.573 160.617 135.328C160.612 134.932 160.594 134.589 160.562 134.297C160.536 134.005 160.487 133.763 160.414 133.57C160.268 133.201 160.003 133.016 159.617 133.016C159.305 133.016 159.112 133.13 159.039 133.359C158.966 133.583 158.93 133.849 158.93 134.156ZM164.852 136.219V132.969C164.852 132.646 164.88 132.352 164.938 132.086C165 131.815 165.117 131.599 165.289 131.438C165.466 131.271 165.727 131.188 166.07 131.188C166.414 131.188 166.669 131.268 166.836 131.43C167.008 131.591 167.12 131.807 167.172 132.078C167.229 132.349 167.258 132.646 167.258 132.969V136.016C167.258 136.328 167.297 136.599 167.375 136.828C167.453 137.057 167.643 137.172 167.945 137.172C168.154 137.172 168.323 137.102 168.453 136.961C168.589 136.82 168.695 136.628 168.773 136.383C168.846 136.138 168.896 135.852 168.922 135.523C168.948 135.19 168.961 134.833 168.961 134.453V132.969C168.961 132.646 168.99 132.352 169.047 132.086C169.109 131.815 169.227 131.599 169.398 131.438C169.576 131.271 169.836 131.188 170.18 131.188C170.523 131.188 170.779 131.268 170.945 131.43C171.117 131.591 171.229 131.807 171.281 132.078C171.339 132.349 171.367 132.646 171.367 132.969V137.234C171.367 137.557 171.344 137.854 171.297 138.125C171.255 138.391 171.151 138.604 170.984 138.766C170.818 138.922 170.549 139 170.18 139C169.841 139 169.583 138.935 169.406 138.805C169.234 138.669 169.117 138.503 169.055 138.305C168.992 138.102 168.961 137.896 168.961 137.688C168.867 138.031 168.677 138.336 168.391 138.602C168.104 138.867 167.727 139 167.258 139C166.971 139 166.685 138.953 166.398 138.859C166.112 138.766 165.854 138.609 165.625 138.391C165.396 138.172 165.208 137.885 165.062 137.531C164.922 137.177 164.852 136.74 164.852 136.219ZM175.93 129.25C175.93 129.651 175.826 129.951 175.617 130.148C175.409 130.341 175.117 130.438 174.742 130.438C174.367 130.438 174.076 130.341 173.867 130.148C173.659 129.951 173.555 129.651 173.555 129.25C173.555 128.833 173.659 128.531 173.867 128.344C174.076 128.156 174.367 128.062 174.742 128.062C175.143 128.062 175.44 128.156 175.633 128.344C175.831 128.531 175.93 128.833 175.93 129.25ZM173.539 137.25V132.938C173.539 132.625 173.565 132.336 173.617 132.07C173.674 131.805 173.786 131.591 173.953 131.43C174.125 131.268 174.383 131.188 174.727 131.188C175.07 131.188 175.326 131.268 175.492 131.43C175.664 131.591 175.776 131.805 175.828 132.07C175.885 132.336 175.914 132.625 175.914 132.938V137.25C175.914 137.568 175.885 137.859 175.828 138.125C175.776 138.391 175.664 138.604 175.492 138.766C175.326 138.922 175.07 139 174.727 139C174.383 139 174.125 138.922 173.953 138.766C173.786 138.604 173.674 138.391 173.617 138.125C173.565 137.859 173.539 137.568 173.539 137.25ZM184.336 129.844V137.234C184.336 137.557 184.312 137.854 184.266 138.125C184.219 138.391 184.112 138.604 183.945 138.766C183.784 138.922 183.523 139 183.164 139C182.826 139 182.57 138.935 182.398 138.805C182.227 138.669 182.109 138.503 182.047 138.305C181.99 138.102 181.961 137.896 181.961 137.688C181.857 138.031 181.669 138.336 181.398 138.602C181.128 138.867 180.753 139 180.273 139C179.987 139 179.701 138.953 179.414 138.859C179.128 138.766 178.87 138.609 178.641 138.391C178.411 138.172 178.224 137.888 178.078 137.539C177.938 137.185 177.867 136.75 177.867 136.234V133.969C177.867 133.448 177.938 133.013 178.078 132.664C178.224 132.31 178.411 132.023 178.641 131.805C178.87 131.591 179.128 131.438 179.414 131.344C179.701 131.25 179.987 131.203 180.273 131.203C180.753 131.203 181.128 131.333 181.398 131.594C181.669 131.854 181.857 132.161 181.961 132.516V129.844C181.961 129.516 181.987 129.219 182.039 128.953C182.096 128.682 182.211 128.466 182.383 128.305C182.555 128.143 182.815 128.062 183.164 128.062C183.503 128.062 183.755 128.143 183.922 128.305C184.089 128.466 184.198 128.682 184.25 128.953C184.307 129.224 184.336 129.521 184.336 129.844ZM180.273 134.141V136.031C180.273 136.333 180.31 136.599 180.383 136.828C180.456 137.057 180.648 137.172 180.961 137.172C181.346 137.172 181.612 136.984 181.758 136.609C181.831 136.422 181.88 136.185 181.906 135.898C181.938 135.607 181.956 135.26 181.961 134.859C181.961 134.615 181.932 134.352 181.875 134.07C181.818 133.784 181.716 133.539 181.57 133.336C181.424 133.133 181.221 133.031 180.961 133.031C180.648 133.031 180.456 133.143 180.383 133.367C180.31 133.591 180.273 133.849 180.273 134.141ZM192.508 134.062V134.547C192.508 134.802 192.443 135.031 192.312 135.234C192.188 135.432 191.883 135.531 191.398 135.531H188.289V136.281C188.289 136.568 188.362 136.833 188.508 137.078C188.659 137.318 188.909 137.438 189.258 137.438C189.534 137.438 189.734 137.393 189.859 137.305C189.984 137.211 190.091 137.091 190.18 136.945C190.237 136.857 190.307 136.779 190.391 136.711C190.479 136.638 190.599 136.578 190.75 136.531C190.901 136.479 191.112 136.453 191.383 136.453C191.664 136.453 191.904 136.508 192.102 136.617C192.299 136.721 192.398 136.927 192.398 137.234C192.398 137.573 192.292 137.857 192.078 138.086C191.865 138.31 191.596 138.49 191.273 138.625C190.951 138.76 190.599 138.857 190.219 138.914C189.844 138.971 189.492 139 189.164 139C188.732 138.995 188.32 138.94 187.93 138.836C187.539 138.732 187.195 138.565 186.898 138.336C186.596 138.107 186.357 137.807 186.18 137.438C186.003 137.068 185.914 136.615 185.914 136.078V134.25C185.914 133.76 185.974 133.341 186.094 132.992C186.214 132.648 186.365 132.362 186.547 132.133C186.734 131.904 186.945 131.724 187.18 131.594C187.414 131.469 187.651 131.375 187.891 131.312C188.13 131.25 188.357 131.211 188.57 131.195C188.789 131.18 188.977 131.172 189.133 131.172C189.659 131.172 190.109 131.219 190.484 131.312C190.854 131.406 191.164 131.529 191.414 131.68C191.664 131.831 191.862 132.005 192.008 132.203C192.159 132.396 192.268 132.599 192.336 132.812C192.409 133.021 192.456 133.234 192.477 133.453C192.497 133.672 192.508 133.875 192.508 134.062ZM188.289 133.812V134.359H190.242C190.242 134.021 190.224 133.74 190.188 133.516C190.156 133.286 190.068 133.115 189.922 133C189.781 132.885 189.544 132.828 189.211 132.828C188.831 132.828 188.581 132.932 188.461 133.141C188.346 133.344 188.289 133.568 188.289 133.812ZM196.789 137.703C196.789 138.146 196.677 138.474 196.453 138.688C196.229 138.896 195.914 139 195.508 139C194.643 139 194.211 138.568 194.211 137.703C194.211 137.255 194.323 136.93 194.547 136.727C194.771 136.523 195.091 136.422 195.508 136.422C195.94 136.422 196.26 136.523 196.469 136.727C196.682 136.93 196.789 137.255 196.789 137.703Z" fill="url(#paint0_linear_147_144)" fill-opacity="0.95"/>
<path d="M177.415 71.8941C174.056 70.6077 171.999 67.4706 172.914 65.0805C173.83 62.6905 177.456 61.7305 180.815 63.0169C184.174 64.3034 186.231 67.4405 185.316 69.8305C184.336 72.1958 180.774 73.1806 177.415 71.8941Z" fill="#E07E1E"/>
<path d="M180.58 63.6315C183.874 64.8932 185.441 67.7641 184.76 69.5395C184.08 71.315 180.997 72.4047 177.703 71.1429C174.409 69.8812 172.842 67.0103 173.522 65.2349C174.202 63.4594 177.286 62.3698 180.58 63.6315ZM181.077 62.334C177.395 60.9239 173.47 62.0829 172.398 64.8826C171.325 67.6823 173.472 71.1668 177.153 72.5769C180.835 73.9871 184.76 72.8281 185.832 70.0284C186.931 67.1604 184.758 63.7442 181.077 62.334Z" fill="#3E4347"/>
<path d="M174.318 50.9751C171.282 49.8124 169.664 46.6871 170.684 44.0239C171.704 41.3608 174.996 40.1157 178.032 41.2785C181.067 42.4413 182.685 45.5665 181.665 48.2297C180.645 50.8928 177.289 52.1131 174.318 50.9751Z" fill="#E07E1E"/>
<path d="M177.77 41.9614C180.418 42.9757 181.947 45.7536 181.11 47.9387C180.246 50.1922 177.28 51.17 174.631 50.1557C171.983 49.1414 170.455 46.3635 171.292 44.1783C172.129 41.9932 175.057 40.9223 177.77 41.9614ZM178.345 40.4591C174.987 39.1726 171.306 40.6602 170.129 43.733C168.952 46.8059 170.697 50.3715 174.056 51.658C177.415 52.9444 181.095 51.4569 182.272 48.3841C183.449 45.3112 181.704 41.7455 178.345 40.4591Z" fill="#3E4347"/>
<path d="M183.856 59.7184C182.564 59.2236 181.534 58.0459 181.036 56.4457C180.55 55.0068 180.583 53.3748 181.003 51.8913C181.488 50.4326 182.281 49.3271 183.332 48.7116C184.292 48.1395 185.353 48.0762 186.322 48.4473C187.613 48.942 188.644 50.1197 189.142 51.7199C189.627 53.1589 189.595 54.7908 189.175 56.2743C188.69 57.733 187.896 58.8385 186.846 59.4541C185.912 59.9578 184.89 60.1142 183.856 59.7184Z" fill="#E07E1E"/>
<path d="M186.151 49.0866C187.249 49.5072 188.176 50.5671 188.597 51.9813C188.98 53.3024 189.026 54.7295 188.594 56.0517C188.213 57.2373 187.537 58.2309 186.668 58.7594C185.708 59.3314 184.79 59.2147 184.208 58.992C183.11 58.5714 182.183 57.5115 181.762 56.0974C181.379 54.7762 181.333 53.3491 181.766 52.027C182.146 50.8413 182.823 49.8477 183.692 49.3192C184.651 48.7472 185.569 48.864 186.151 49.0866ZM186.726 47.5843C185.628 47.1638 184.412 47.2459 183.27 47.9051C180.689 49.4222 179.457 53.4135 180.556 56.7317C181.17 58.6111 182.303 59.9065 183.659 60.426C184.757 60.8466 185.974 60.7644 187.115 60.1053C189.696 58.5881 190.928 54.5968 189.829 51.2786C189.28 49.424 188.083 48.1039 186.726 47.5843Z" fill="#3E4347"/>
<path d="M167.642 69.9517C166.802 69.6301 166.041 69.1036 165.293 68.3476C163.257 66.3149 162.494 63.2816 163.69 61.7041C164.406 60.8035 165.765 60.5412 167.251 61.1102C168.09 61.4319 168.852 61.9583 169.599 62.7144C170.617 63.7307 171.349 65.1073 171.667 66.4037C171.882 67.5824 171.774 68.6374 171.228 69.2895C170.487 70.2584 169.127 70.5207 167.642 69.9517Z" fill="#E07E1E"/>
<path d="M167.001 61.9544C167.777 62.2513 168.473 62.753 169.117 63.3913C170.071 64.3829 170.726 65.5734 170.941 66.7521C171.105 67.6764 171.038 68.4335 170.725 68.862C170.27 69.4707 169.118 69.5776 167.955 69.1323C167.18 68.8354 166.484 68.3336 165.839 67.6953C163.971 65.8052 163.464 63.2618 164.232 62.2246C164.687 61.616 165.839 61.5091 167.001 61.9544ZM167.603 60.3838C165.924 59.7406 164.253 60.0405 163.278 61.233C161.822 63.1025 162.558 66.5949 164.838 68.9562C165.65 69.737 166.54 70.3129 167.38 70.6345C169.059 71.2778 170.73 70.9779 171.705 69.7853C173.162 67.9159 172.425 64.4234 170.145 62.0622C169.333 61.2814 168.443 60.7054 167.603 60.3838Z" fill="#3E4347"/>
<path d="M180.605 47.9021C178.891 46.384 176.878 45.0649 174.488 44.1495C173.777 43.8774 173.105 43.6983 172.433 43.5192C172.393 47.1056 171.666 50.7426 170.332 54.2252C168.841 58.1175 166.602 61.6446 163.873 64.5146C164.596 64.9481 165.435 65.2697 166.275 65.5913C167.373 66.0119 168.407 66.4077 169.402 66.7105C169.732 64.8797 170.283 63.0548 170.989 61.211C173.056 55.8164 176.4 51.1462 180.605 47.9021ZM167.48 43.1096C160.037 43.7827 155.561 50.0552 155.561 50.0552C155.561 50.0552 155.856 50.6381 155.867 51.1903C155.904 51.6742 154.469 51.3595 154.595 52.1908C154.961 54.5234 157.118 58.5601 159.849 61.4854C162.459 59.1181 164.516 56.069 165.876 52.5181C167.053 49.4453 167.622 46.218 167.48 43.1096ZM192.997 64.4724C193.86 62.2189 197.033 61.4766 195.743 57.3023C195.743 57.3023 193.642 58.5335 191.841 59.1748C191.437 60.0378 191.006 60.9691 190.666 61.8568C189.724 64.3151 189.106 66.8971 188.862 69.4662C189.828 70.6191 190.277 71.5741 190.277 71.5741C193.999 69.3978 192.082 66.8624 192.997 64.4724ZM187.566 57.3807C186.359 55.1174 185.1 52.9907 183.542 51.0629C181.489 53.3302 179.809 55.9756 178.658 58.9802C177.533 61.9165 176.978 64.9141 176.953 67.8801C179.087 67.9147 181.482 67.6573 184.395 67.2069C184.78 64.8486 185.449 62.521 186.338 60.1992C186.678 59.3115 187.071 58.2872 187.566 57.3807Z" fill="#F29A2E"/>
<path d="M166.457 52.7408C165.045 56.4283 162.871 59.5892 160.325 61.9813C161.137 62.7621 162.104 63.5241 163.253 64.199C165.93 61.4655 168.208 58.0314 169.725 54.0708C171.085 50.52 171.721 46.9265 171.709 43.4767C170.468 43.2362 169.239 43.1571 168.113 43.1957C168.243 46.1428 167.712 49.4631 166.457 52.7408Z" fill="white"/>
<path d="M172.369 43.4944C172.175 43.4202 171.955 43.4143 171.696 43.3153C171.708 46.7652 171.073 50.3586 169.713 53.9095C168.169 57.9384 165.891 61.3725 163.241 64.0377C163.408 64.1802 163.667 64.2791 163.861 64.3533C166.589 61.4833 168.829 57.9562 170.32 54.0639C171.666 50.7426 172.328 47.0809 172.369 43.4944ZM166.457 52.7408C167.686 49.5314 168.217 46.2111 168.139 43.1274C167.919 43.1214 167.699 43.1155 167.453 43.1779C167.596 46.2863 167.026 49.5136 165.849 52.5864C164.489 56.1373 162.433 59.1865 159.822 61.5537C159.99 61.6962 160.131 61.907 160.299 62.0495C162.897 59.5209 165.044 56.4283 166.457 52.7408Z" fill="#3E4347"/>
<path d="M171.571 61.4337C170.891 63.2091 170.404 65.0588 170.009 66.8649C171.999 67.4705 174.003 67.8465 176.267 67.9306C176.292 64.9646 176.835 61.8057 177.986 58.8011C179.215 55.5917 180.947 52.8097 183.001 50.5424C182.409 49.7675 181.726 49.0362 181.017 48.3732C177.084 51.4867 173.663 55.9708 171.571 61.4337Z" fill="white"/>
<path d="M171.571 61.4337C173.663 55.9709 177.084 51.4867 181.082 48.3979C180.914 48.2554 180.747 48.1129 180.605 47.9021C176.4 51.1463 173.056 55.8165 170.989 61.2111C170.309 62.9865 169.759 64.8114 169.402 66.7106C169.595 66.7848 169.789 66.859 170.009 66.8649C170.404 65.0588 170.891 63.2092 171.571 61.4337ZM183.542 51.063C183.401 50.8522 183.233 50.7097 183.156 50.5236C181.103 52.791 179.371 55.5729 178.141 58.7823C176.964 61.8552 176.382 64.9211 176.422 67.9118L177.082 67.9296C177.107 64.9637 177.689 61.8977 178.787 59.0297C179.809 55.9757 181.424 53.3056 183.542 51.063Z" fill="#3E4347"/>
<path d="M188.144 58.3852C188.106 58.2922 188.003 58.1744 187.99 58.0131C187.586 58.8761 187.207 59.6708 186.894 60.4902C186.057 62.6754 185.413 64.9348 185.081 67.1565C185.236 67.1377 185.418 67.0506 185.638 67.0565C186.285 66.913 187.329 67.8611 188.283 68.8527C188.603 66.4696 189.143 64.0925 190.058 61.7025C190.346 60.9513 190.698 60.2249 190.986 59.4738C189.782 59.7173 188.735 59.551 188.144 58.3852Z" fill="white"/>
<path d="M186.893 60.4902C187.207 59.6708 187.586 58.8761 187.9 58.0567C187.758 57.8459 187.643 57.5668 187.501 57.356C187.044 58.3555 186.614 59.2868 186.248 60.2428C185.384 62.4963 184.715 64.8239 184.304 67.2505C184.55 67.1882 184.77 67.1941 185.016 67.1317C185.439 64.8664 186.056 62.6754 186.893 60.4902ZM191.75 59.2184C191.478 59.349 191.168 59.3867 190.921 59.449C190.569 60.1754 190.281 60.9266 189.994 61.6777C189.078 64.0677 188.512 66.5131 188.218 68.8279C188.424 69.0634 188.63 69.299 188.771 69.5098C189.015 66.9407 189.633 64.3587 190.575 61.9004C190.941 60.9444 191.346 60.0814 191.75 59.2184Z" fill="#3E4347"/>
<path d="M172.087 52.1568C169.43 53.4879 167.29 57.9147 170.35 59.4C174.03 61.2011 174.726 64.9914 177.384 63.6603C180.042 62.3291 180.599 58.9406 179.318 55.7094C178.064 52.41 174.81 50.8504 172.087 52.1568Z" fill="#E07E1E"/>
<path d="M172.152 52.1816C170.791 52.8348 169.763 54.1639 169.305 55.5543C169.108 56.2619 169.04 57.019 169.309 57.6702C169.514 58.2966 170.016 58.7241 170.636 59.0398C172.031 59.6524 173.178 60.7182 174.17 61.8028C174.711 62.3233 175.188 62.8191 175.717 63.1784C176.272 63.4693 176.738 63.4129 177.309 63.0833C177.879 62.7538 178.347 62.3064 178.711 61.7413C179.076 61.1762 179.247 60.5369 179.288 59.8481C179.436 58.4953 179.106 57.0376 178.632 55.7599C178.133 54.5506 177.322 53.3789 176.226 52.5674C175.632 52.1834 174.986 51.9361 174.288 51.8252C173.564 51.7827 172.787 51.8767 172.152 52.1816ZM172.114 52.0885C173.501 51.367 175.067 51.3403 176.552 51.9093C177.973 52.4536 179.223 53.6371 179.903 55.1503C180.544 56.5704 180.925 58.2825 180.711 60.0015C180.591 60.8952 180.277 61.7146 179.769 62.4598C179.262 63.205 178.587 63.8077 177.796 64.1314C177.379 64.3378 176.93 64.4585 176.475 64.4867C176.035 64.4748 175.557 64.3699 175.195 64.1532C174.473 63.7197 173.984 63.0626 173.507 62.5668C172.515 61.4822 171.562 60.4906 170.348 59.791C170.052 59.599 169.69 59.3823 169.446 59.0537C169.201 58.7251 168.983 58.3283 168.894 57.9809C168.703 57.1249 168.862 56.3243 169.149 55.5731C169.437 54.822 169.919 54.1451 170.439 53.5612C170.829 52.9278 171.388 52.4369 172.114 52.0885Z" fill="#3E4347"/>
<path d="M159.613 55.9138C161.717 56.7199 164.161 55.4473 165.071 53.0714C165.981 50.6955 165.013 48.1159 162.908 47.3098C160.804 46.5036 158.36 47.7762 157.45 50.1521C156.54 52.5281 157.508 55.1077 159.613 55.9138Z" fill="#FCFCFA"/>
<path d="M160.136 54.5481C161.598 55.1083 163.287 54.2478 163.909 52.6261C164.53 51.0044 163.848 49.2357 162.385 48.6755C160.922 48.1153 159.233 48.9758 158.612 50.5975C157.991 52.2191 158.673 53.9879 160.136 54.5481Z" fill="#29251C"/>
<defs>
<filter id="filter0_d_147_144" x="10.4375" y="75.25" width="189.625" height="52" filterUnits="userSpaceOnUse" color-interpolation-filters="sRGB">
<feFlood flood-opacity="0" result="BackgroundImageFix"/>
<feColorMatrix in="SourceAlpha" type="matrix" values="0 0 0 0 0 0 0 0 0 0 0 0 0 0 0 0 0 0 127 0" result="hardAlpha"/>
<feOffset dx="5" dy="3"/>
<feGaussianBlur stdDeviation="2"/>
<feComposite in2="hardAlpha" operator="out"/>
<feColorMatrix type="matrix" values="0 0 0 0 0 0 0 0 0 0 0 0 0 0 0 0 0 0 0.25 0"/>
<feBlend mode="normal" in2="BackgroundImageFix" result="effect1_dropShadow_147_144"/>
<feBlend mode="normal" in="SourceGraphic" in2="effect1_dropShadow_147_144" result="shape"/>
</filter>
<linearGradient id="paint0_linear_147_144" x1="0" y1="133.5" x2="203" y2="133.5" gradientUnits="userSpaceOnUse">
<stop stop-color="#C8EAFD"/>
</linearGradient>
</defs>
</svg>
