<svg width="327" height="281" viewBox="0 0 327 281" fill="none" xmlns="http://www.w3.org/2000/svg">
<g filter="url(#filter0_d_142_3)">
<path d="M34.7812 159.375H48.375C54.2812 159.375 59.0781 160.797 62.7656 163.641C64.6094 165.078 66.0469 166.859 67.0781 168.984C68.1094 171.109 68.625 173.594 68.625 176.438V205.5C68.625 207.938 68.3594 210.078 67.8281 211.922C67.2969 213.766 66.6094 215.375 65.7656 216.75C64.8906 218.094 63.9062 219.25 62.8125 220.219C61.7188 221.188 60.6094 221.969 59.4844 222.562C56.8594 224 53.8125 224.812 50.3438 225H34.7812C32.5312 225 30.9062 224.531 29.9062 223.594C28.9062 222.656 28.2812 221.375 28.0312 219.75C27.7812 218.125 27.6562 216.281 27.6562 214.219V170.062C27.6562 168.031 27.7812 166.219 28.0312 164.625C28.2812 163 28.9062 161.719 29.9062 160.781C30.9062 159.844 32.5312 159.375 34.7812 159.375ZM48 170.344H41.9062V213.844H48C49.2812 213.812 50.4844 213.5 51.6094 212.906C52.6719 212.375 53.5312 211.578 54.1875 210.516C54.875 209.422 55.2188 208.031 55.2188 206.344V178.688C55.2188 176.844 54.875 175.312 54.1875 174.094C53.5312 172.875 52.6719 171.969 51.6094 171.375C50.5469 170.781 49.3438 170.438 48 170.344ZM108.75 185.156C108.75 189.844 106.438 192.188 101.812 192.188C101.125 192.188 100.312 192.281 99.375 192.469C98.4688 192.625 97.5625 192.969 96.6562 193.5C95.9688 193.906 95.3438 194.438 94.7812 195.094C94.2188 195.781 93.7656 196.641 93.4219 197.672C93.0781 198.703 92.9062 199.938 92.9062 201.375V214.781C92.9062 216.625 92.7344 218.328 92.3906 219.891C92.0469 221.422 91.3594 222.656 90.3281 223.594C89.3281 224.531 87.8125 225 85.7812 225C83.8125 225 82.3281 224.531 81.3281 223.594C80.3281 222.656 79.6562 221.406 79.3125 219.844C79 218.281 78.8438 216.594 78.8438 214.781V188.531C78.8438 186.625 79 184.906 79.3125 183.375C79.6562 181.812 80.3281 180.562 81.3281 179.625C82.3281 178.688 83.8125 178.219 85.7812 178.219C87.8438 178.219 89.3125 178.781 90.1875 179.906C91.0938 181 91.6406 182.422 91.8281 184.172C92.0469 185.891 92.1562 187.719 92.1562 189.656H92.9062C93.7188 186.469 95.0312 183.766 96.8438 181.547C98.6562 179.328 100.656 178.219 102.844 178.219C105.25 178.219 106.828 178.766 107.578 179.859C108.359 180.953 108.75 182.719 108.75 185.156ZM131.531 217.219C131.531 219.875 130.859 221.844 129.516 223.125C128.172 224.375 126.281 225 123.844 225C118.656 225 116.062 222.406 116.062 217.219C116.062 214.531 116.734 212.578 118.078 211.359C119.422 210.141 121.344 209.531 123.844 209.531C126.438 209.531 128.359 210.141 129.609 211.359C130.891 212.578 131.531 214.531 131.531 217.219ZM151.5 159.375H169.781C171.656 159.375 173.406 159.531 175.031 159.844C176.688 160.156 178.016 160.812 179.016 161.812C180.047 162.781 180.562 164.281 180.562 166.312C180.562 168.344 180.047 169.859 179.016 170.859C178.016 171.828 176.688 172.469 175.031 172.781C173.406 173.094 171.656 173.25 169.781 173.25H158.625V185.438H164.531C166.406 185.438 168.156 185.578 169.781 185.859C171.438 186.109 172.766 186.734 173.766 187.734C174.797 188.703 175.312 190.25 175.312 192.375C175.312 194.5 174.812 196.062 173.812 197.062C172.812 198.031 171.484 198.656 169.828 198.938C168.203 199.188 166.438 199.312 164.531 199.312H158.625V214.219C158.625 216.25 158.5 218.078 158.25 219.703C158 221.328 157.375 222.625 156.375 223.594C155.375 224.531 153.75 225 151.5 225C149.25 225 147.625 224.531 146.625 223.594C145.625 222.656 145 221.375 144.75 219.75C144.5 218.125 144.375 216.281 144.375 214.219V170.156C144.375 168.125 144.5 166.297 144.75 164.672C145 163.047 145.625 161.766 146.625 160.828C147.625 159.859 149.25 159.375 151.5 159.375ZM203.344 166.5C203.344 168.906 202.719 170.703 201.469 171.891C200.219 173.047 198.469 173.625 196.219 173.625C193.969 173.625 192.219 173.047 190.969 171.891C189.719 170.703 189.094 168.906 189.094 166.5C189.094 164 189.719 162.188 190.969 161.062C192.219 159.938 193.969 159.375 196.219 159.375C198.625 159.375 200.406 159.938 201.562 161.062C202.75 162.188 203.344 164 203.344 166.5ZM189 214.5V188.625C189 186.75 189.156 185.016 189.469 183.422C189.812 181.828 190.484 180.547 191.484 179.578C192.516 178.609 194.062 178.125 196.125 178.125C198.188 178.125 199.719 178.609 200.719 179.578C201.75 180.547 202.422 181.828 202.734 183.422C203.078 185.016 203.25 186.75 203.25 188.625V214.5C203.25 216.406 203.078 218.156 202.734 219.75C202.422 221.344 201.75 222.625 200.719 223.594C199.719 224.531 198.188 225 196.125 225C194.062 225 192.516 224.531 191.484 223.594C190.484 222.625 189.812 221.344 189.469 219.75C189.156 218.156 189 216.406 189 214.5ZM229.219 190.406C229.219 191.688 230.031 192.812 231.656 193.781C233.281 194.719 235 195.625 236.812 196.5C239.031 197.562 241.172 198.734 243.234 200.016C245.297 201.297 246.984 202.828 248.297 204.609C249.641 206.391 250.312 208.625 250.312 211.312C250.312 213.125 250.047 214.781 249.516 216.281C248.391 219.094 246.609 221.203 244.172 222.609C243.578 222.953 242.953 223.266 242.297 223.547C241.672 223.797 241.031 224.031 240.375 224.25C239.031 224.656 237.672 224.938 236.297 225.094C234.922 225.281 233.625 225.375 232.406 225.375C229.938 225.375 227.844 225.172 226.125 224.766C224.344 224.359 222.812 223.828 221.531 223.172C220.25 222.484 219.203 221.703 218.391 220.828C217.234 219.641 216.406 218.328 215.906 216.891C215.406 215.453 215.156 214.094 215.156 212.812C215.156 209.188 217.281 207.375 221.531 207.375C223.094 207.375 224.375 207.797 225.375 208.641C226.375 209.484 226.906 210.844 226.969 212.719C227.031 213.906 227.625 214.703 228.75 215.109C229.875 215.516 231.062 215.719 232.312 215.719C233.531 215.719 234.516 215.406 235.266 214.781C236.047 214.125 236.438 213.281 236.438 212.25C236.438 211.031 235.984 209.938 235.078 208.969C234.172 208 233.016 207.109 231.609 206.297C230.234 205.484 228.844 204.688 227.438 203.906C225.5 202.875 223.609 201.766 221.766 200.578C219.922 199.359 218.406 197.969 217.219 196.406C216.031 194.812 215.438 192.938 215.438 190.781C215.438 188.344 215.828 186.312 216.609 184.688C217.422 183.031 218.594 181.688 220.125 180.656C221.656 179.656 223.516 178.938 225.703 178.5C227.922 178.062 230.438 177.812 233.25 177.75H234C236.469 177.75 238.625 177.969 240.469 178.406C242.219 178.844 243.672 179.422 244.828 180.141C246.016 180.828 246.953 181.609 247.641 182.484C248.578 183.703 249.172 184.953 249.422 186.234C249.703 187.484 249.844 188.656 249.844 189.75C249.844 191.594 249.156 192.844 247.781 193.5C246.438 194.125 244.844 194.469 243 194.531C241.625 194.531 240.453 194.125 239.484 193.312C238.516 192.469 238.031 191.562 238.031 190.594C237.969 189.406 237.484 188.5 236.578 187.875C235.703 187.25 234.625 186.938 233.344 186.938C232.219 186.938 231.25 187.203 230.438 187.734C229.625 188.234 229.219 189.125 229.219 190.406ZM298.594 194.906V214.406C298.594 216.312 298.422 218.078 298.078 219.703C297.766 221.297 297.094 222.578 296.062 223.547C295.062 224.516 293.531 225 291.469 225C289.406 225 287.844 224.516 286.781 223.547C285.75 222.578 285.047 221.297 284.672 219.703C284.328 218.078 284.156 216.312 284.156 214.406V195.938C284.156 194.188 283.938 192.641 283.5 191.297C283.062 189.953 281.906 189.281 280.031 189.281C278.781 189.281 277.766 189.688 276.984 190.5C276.203 191.312 275.594 192.453 275.156 193.922C274.688 195.359 274.359 197.078 274.172 199.078C274.016 201.078 273.938 203.219 273.938 205.5V214.406C273.938 216.312 273.766 218.078 273.422 219.703C273.078 221.297 272.391 222.578 271.359 223.547C270.328 224.516 268.75 225 266.625 225C264.562 225 263.016 224.516 261.984 223.547C260.984 222.578 260.312 221.297 259.969 219.703C259.656 218.078 259.5 216.312 259.5 214.406V169.969C259.5 168.031 259.656 166.266 259.969 164.672C260.312 163.078 260.984 161.797 261.984 160.828C263.016 159.859 264.562 159.375 266.625 159.375C268.75 159.375 270.328 159.859 271.359 160.828C272.391 161.797 273.078 163.078 273.422 164.672C273.766 166.266 273.938 168.031 273.938 169.969V186C274.562 183.969 275.719 182.156 277.406 180.562C279.094 178.938 281.344 178.125 284.156 178.125C285.875 178.125 287.609 178.422 289.359 179.016C291.109 179.578 292.656 180.516 294 181.828C295.375 183.141 296.484 184.875 297.328 187.031C298.172 189.156 298.594 191.781 298.594 194.906Z" fill="white"/>
</g>
<path d="M16.057 225.186C16.1746 226.023 15.5997 226.872 14.6636 227.004L7.51525 228.008C6.66426 228.128 5.80426 227.566 5.67487 226.645L5.39257 224.637C5.27494 223.8 5.93497 222.939 6.78596 222.819L13.9343 221.815C14.7853 221.695 15.6453 222.257 15.7747 223.178L16.057 225.186ZM45.0641 221.024C45.1347 221.526 44.7562 221.921 44.3307 221.981L40.5013 222.519C39.9907 222.591 39.5914 222.22 39.5326 221.802L39.3797 220.714C39.3091 220.211 39.6876 219.817 40.1131 219.757L43.9425 219.219C44.4531 219.147 44.8524 219.518 44.9112 219.936L45.0641 221.024ZM51.0608 245.786C51.3666 247.963 49.8266 249.971 47.614 250.282L8.21302 255.82C6.00043 256.131 3.96633 254.624 3.6605 252.448L3.49582 251.276L50.8961 244.615L51.0608 245.786Z" fill="#212528"/>
<path d="M0.481792 230.448C0.175959 228.272 1.71603 226.263 3.92861 225.952L43.3296 220.415C45.5422 220.104 47.5763 221.61 47.8821 223.786L48.0468 224.958L0.646471 231.62L0.481792 230.448Z" fill="#51575B"/>
<path d="M0.622925 231.452L48.0232 224.791L50.9169 245.38L3.51657 252.042L0.622925 231.452Z" fill="#3E4347"/>
<path d="M40.8949 224.085L17.1522 227.422L17.7353 214.282C17.7996 213.505 18.6679 212.273 19.2283 211.938C22.6641 209.834 30.8336 208.685 34.6313 209.773C35.2623 209.941 36.4482 210.969 36.7125 211.615L40.8949 224.085Z" fill="#51575B"/>
<path d="M40.8473 231.774L19.4023 234.787L20.0359 223.859C20.1238 223.249 20.9187 222.113 21.4058 221.874C24.4513 220.08 31.855 219.04 35.3621 219.913C35.9079 220.092 36.9734 220.881 37.226 221.443L40.8473 231.774Z" fill="#3E4347"/>
<path d="M47.2022 236.855C48.449 245.727 42.1421 253.953 33.1215 255.221C24.101 256.489 15.7709 250.319 14.524 241.448C13.2772 232.576 19.5841 224.349 28.6046 223.081C37.6369 221.897 45.9671 228.067 47.2022 236.855Z" fill="#788287"/>
<path d="M45.4151 237.106C46.5208 244.974 40.9472 252.243 32.9479 253.368C24.9485 254.492 17.587 249.04 16.4813 241.172C15.3756 233.305 20.9492 226.035 28.9485 224.911C36.9479 223.787 44.3094 229.239 45.4151 237.106Z" fill="#212528"/>
<path d="M32.5715 250.689C39.0573 249.778 43.5884 243.868 42.6919 237.489C41.7954 231.11 35.8108 226.678 29.3249 227.589C22.8391 228.501 18.308 234.411 19.2045 240.79C20.101 247.169 26.0856 251.601 32.5715 250.689Z" fill="#3E4347"/>
<path d="M31.8304 245.417C35.3553 244.921 37.8179 241.709 37.3307 238.242C36.8434 234.775 33.5909 232.367 30.066 232.862C26.5411 233.357 24.0785 236.569 24.5658 240.036C25.053 243.503 28.3055 245.912 31.8304 245.417Z" fill="#212528"/>
<path opacity="0.5" d="M38.8492 232.993C39.1315 235.002 37.7381 236.819 35.6958 237.106C33.6534 237.393 31.813 236.03 31.5307 234.022C31.2484 232.013 32.6418 230.196 34.6842 229.909C36.7265 229.621 38.5787 231.068 38.8492 232.993Z" fill="#F5F5F5"/>
<path opacity="0.5" d="M29.2857 243.982C30.5547 243.803 31.4412 242.647 31.2658 241.399C31.0904 240.151 29.9195 239.284 28.6505 239.462C27.3815 239.641 26.495 240.797 26.6704 242.045C26.8458 243.293 28.0167 244.16 29.2857 243.982Z" fill="#F5F5F5"/>
<path opacity="0.5" d="M25.6362 247.653C26.3881 247.547 26.9135 246.862 26.8095 246.122C26.7056 245.383 26.0117 244.869 25.2598 244.974C24.5078 245.08 23.9824 245.765 24.0864 246.505C24.1903 247.244 24.8842 247.758 25.6362 247.653Z" fill="#F5F5F5"/>
<path d="M14.2058 247.211C14.3235 248.048 13.7485 248.897 12.8124 249.028L5.9194 249.997C5.06841 250.117 4.20841 249.555 4.07902 248.634L2.09111 234.489C1.97348 233.652 2.54841 232.803 3.4845 232.672L10.3775 231.703C11.2285 231.583 12.0885 232.145 12.2179 233.066L14.2058 247.211Z" fill="#636C72"/>
<path d="M8.13522 230.567C9.45119 230.382 10.3705 229.183 10.1886 227.889C10.0067 226.594 8.79247 225.695 7.4765 225.88C6.16053 226.065 5.24118 227.264 5.42308 228.559C5.60498 229.853 6.81924 230.752 8.13522 230.567Z" fill="#212528"/>
<path d="M34.7033 215.226C34.821 216.063 34.2225 216.744 33.4566 216.852L22.3086 218.419C21.4576 218.538 20.7678 217.952 20.6619 217.199L20.4502 215.692C20.3326 214.856 20.931 214.174 21.6969 214.066L32.8449 212.5C33.6959 212.38 34.3857 212.966 34.4916 213.719L34.7033 215.226Z" fill="white"/>
<path d="M31.4661 213.803L40.7487 205.756L38.5354 203.592L31.4661 213.803ZM43.8152 215.225L43.4153 212.38L33.2186 215.776L43.8152 215.225ZM31.8907 200.77L28.4016 201.26L28.2351 213.66L31.8907 200.77ZM23.8922 214.867L13.9417 207.048L12.3256 209.75L23.8922 214.867ZM22.3596 202.11L18.7854 202.612L26.3629 213.923L22.3596 202.11ZM11.2477 216.9L11.6477 219.746L22.4961 217.283L11.2477 216.9Z" fill="#FFCE31"/>
<path d="M71.3965 240.199L68.4668 245.395V248.793C68.4668 249.19 68.4342 249.558 68.3691 249.896C68.304 250.229 68.1673 250.495 67.959 250.697C67.7572 250.899 67.4382 251 67.002 251C66.5658 251 66.2402 250.899 66.0254 250.697C65.8171 250.495 65.6803 250.229 65.6152 249.896C65.5501 249.558 65.5176 249.19 65.5176 248.793V245.395L62.6074 240.199C62.4512 239.926 62.3014 239.659 62.1582 239.398C62.015 239.132 61.9434 238.865 61.9434 238.598C61.9434 238.422 61.9922 238.246 62.0898 238.07C62.194 237.888 62.3796 237.719 62.6465 237.562C62.9395 237.406 63.2129 237.328 63.4668 237.328C63.8509 237.328 64.1699 237.488 64.4238 237.807C64.6842 238.119 64.8991 238.461 65.0684 238.832L66.8457 242.562H67.1582L68.9355 238.832C69.1048 238.461 69.3164 238.119 69.5703 237.807C69.8307 237.488 70.153 237.328 70.5371 237.328C70.7845 237.328 71.0579 237.406 71.3574 237.562C71.6113 237.719 71.7904 237.888 71.8945 238.07C72.0052 238.246 72.0605 238.422 72.0605 238.598C72.0605 238.721 72.0085 238.91 71.9043 239.164C71.8522 239.294 71.7839 239.447 71.6992 239.623C71.6146 239.799 71.5137 239.991 71.3965 240.199ZM71.2012 247.328V244.906C71.2012 244.301 71.2826 243.793 71.4453 243.383C71.6081 242.966 71.8164 242.618 72.0703 242.338C72.3307 242.058 72.6204 241.84 72.9395 241.684C73.2454 241.527 73.5547 241.41 73.8672 241.332C74.1732 241.254 74.4564 241.205 74.7168 241.186C74.9837 241.166 75.1921 241.156 75.3418 241.156C75.4915 241.156 75.6966 241.166 75.957 241.186C76.2174 241.205 76.4974 241.254 76.7969 241.332C77.0964 241.41 77.3958 241.527 77.6953 241.684C78.0013 241.84 78.2747 242.058 78.5156 242.338C78.763 242.618 78.9616 242.966 79.1113 243.383C79.2676 243.799 79.3457 244.307 79.3457 244.906V247.328C79.3457 247.921 79.2676 248.428 79.1113 248.852C78.9551 249.268 78.7565 249.617 78.5156 249.896C78.2747 250.176 78.0013 250.395 77.6953 250.551C77.3958 250.707 77.0964 250.824 76.7969 250.902C76.4974 250.98 76.2174 251.029 75.957 251.049C75.6966 251.068 75.4915 251.078 75.3418 251.078C75.1986 251.078 74.9935 251.068 74.7266 251.049C74.4661 251.029 74.1797 250.98 73.8672 250.902C73.5612 250.824 73.252 250.707 72.9395 250.551C72.6204 250.395 72.334 250.176 72.0801 249.896C71.8197 249.617 71.6081 249.268 71.4453 248.852C71.2826 248.435 71.2012 247.927 71.2012 247.328ZM74.209 244.477V248.012C74.222 248.207 74.2676 248.373 74.3457 248.51C74.4173 248.64 74.528 248.757 74.6777 248.861C74.834 248.959 75.0553 249.008 75.3418 249.008C75.6152 249.008 75.8236 248.959 75.9668 248.861C76.1165 248.757 76.2272 248.64 76.2988 248.51C76.3835 248.354 76.429 248.188 76.4355 248.012V244.477C76.429 244.294 76.3835 244.115 76.2988 243.939C76.2272 243.809 76.1165 243.689 75.9668 243.578C75.8236 243.461 75.6152 243.402 75.3418 243.402C75.0553 243.402 74.834 243.461 74.6777 243.578C74.528 243.689 74.4173 243.809 74.3457 243.939C74.2676 244.089 74.222 244.268 74.209 244.477ZM81.2598 247.523V243.461C81.2598 243.057 81.2956 242.689 81.3672 242.357C81.4453 242.019 81.5918 241.749 81.8066 241.547C82.028 241.339 82.3535 241.234 82.7832 241.234C83.2129 241.234 83.5319 241.335 83.7402 241.537C83.9551 241.739 84.0951 242.009 84.1602 242.348C84.2318 242.686 84.2676 243.057 84.2676 243.461V247.27C84.2676 247.66 84.3164 247.999 84.4141 248.285C84.5117 248.572 84.7493 248.715 85.127 248.715C85.3874 248.715 85.599 248.627 85.7617 248.451C85.931 248.275 86.0645 248.035 86.1621 247.729C86.2533 247.423 86.3151 247.064 86.3477 246.654C86.3802 246.238 86.3965 245.792 86.3965 245.316V243.461C86.3965 243.057 86.4323 242.689 86.5039 242.357C86.582 242.019 86.7285 241.749 86.9434 241.547C87.1647 241.339 87.4902 241.234 87.9199 241.234C88.3496 241.234 88.6686 241.335 88.877 241.537C89.0918 241.739 89.2318 242.009 89.2969 242.348C89.3685 242.686 89.4043 243.057 89.4043 243.461V248.793C89.4043 249.197 89.375 249.568 89.3164 249.906C89.2643 250.238 89.1341 250.505 88.9258 250.707C88.7174 250.902 88.3822 251 87.9199 251C87.4967 251 87.1745 250.919 86.9531 250.756C86.7383 250.587 86.5918 250.378 86.5137 250.131C86.4355 249.877 86.3965 249.62 86.3965 249.359C86.2793 249.789 86.0417 250.17 85.6836 250.502C85.3255 250.834 84.8535 251 84.2676 251C83.9095 251 83.5514 250.941 83.1934 250.824C82.8353 250.707 82.513 250.512 82.2266 250.238C81.9401 249.965 81.7057 249.607 81.5234 249.164C81.3477 248.721 81.2598 248.174 81.2598 247.523ZM98.1348 242.699C98.1348 243.676 97.653 244.164 96.6895 244.164C96.5462 244.164 96.377 244.184 96.1816 244.223C95.9928 244.255 95.804 244.327 95.6152 244.438C95.472 244.522 95.3418 244.633 95.2246 244.77C95.1074 244.913 95.013 245.092 94.9414 245.307C94.8698 245.521 94.834 245.779 94.834 246.078V248.871C94.834 249.255 94.7982 249.61 94.7266 249.936C94.6549 250.255 94.5117 250.512 94.2969 250.707C94.0885 250.902 93.7728 251 93.3496 251C92.9395 251 92.6302 250.902 92.4219 250.707C92.2135 250.512 92.0736 250.251 92.002 249.926C91.9368 249.6 91.9043 249.249 91.9043 248.871V243.402C91.9043 243.005 91.9368 242.647 92.002 242.328C92.0736 242.003 92.2135 241.742 92.4219 241.547C92.6302 241.352 92.9395 241.254 93.3496 241.254C93.7793 241.254 94.0853 241.371 94.2676 241.605C94.4564 241.833 94.5703 242.13 94.6094 242.494C94.6549 242.852 94.6777 243.233 94.6777 243.637H94.834C95.0033 242.973 95.2767 242.41 95.6543 241.947C96.0319 241.485 96.4486 241.254 96.9043 241.254C97.4056 241.254 97.7344 241.368 97.8906 241.596C98.0534 241.824 98.1348 242.191 98.1348 242.699ZM112.119 239.555V248.793C112.119 249.197 112.09 249.568 112.031 249.906C111.973 250.238 111.839 250.505 111.631 250.707C111.429 250.902 111.104 251 110.654 251C110.231 251 109.912 250.919 109.697 250.756C109.482 250.587 109.336 250.378 109.258 250.131C109.186 249.877 109.15 249.62 109.15 249.359C109.02 249.789 108.786 250.17 108.447 250.502C108.109 250.834 107.64 251 107.041 251C106.683 251 106.325 250.941 105.967 250.824C105.609 250.707 105.286 250.512 105 250.238C104.714 249.965 104.479 249.61 104.297 249.174C104.121 248.731 104.033 248.188 104.033 247.543V244.711C104.033 244.06 104.121 243.516 104.297 243.08C104.479 242.637 104.714 242.279 105 242.006C105.286 241.739 105.609 241.547 105.967 241.43C106.325 241.312 106.683 241.254 107.041 241.254C107.64 241.254 108.109 241.417 108.447 241.742C108.786 242.068 109.02 242.452 109.15 242.895V239.555C109.15 239.145 109.183 238.773 109.248 238.441C109.32 238.103 109.463 237.833 109.678 237.631C109.893 237.429 110.218 237.328 110.654 237.328C111.077 237.328 111.393 237.429 111.602 237.631C111.81 237.833 111.947 238.103 112.012 238.441C112.083 238.78 112.119 239.151 112.119 239.555ZM107.041 244.926V247.289C107.041 247.667 107.087 247.999 107.178 248.285C107.269 248.572 107.51 248.715 107.9 248.715C108.382 248.715 108.714 248.48 108.896 248.012C108.988 247.777 109.049 247.481 109.082 247.123C109.121 246.758 109.144 246.326 109.15 245.824C109.15 245.518 109.115 245.189 109.043 244.838C108.971 244.48 108.844 244.174 108.662 243.92C108.48 243.666 108.226 243.539 107.9 243.539C107.51 243.539 107.269 243.679 107.178 243.959C107.087 244.239 107.041 244.561 107.041 244.926ZM117.686 238.812C117.686 239.314 117.555 239.688 117.295 239.936C117.035 240.176 116.67 240.297 116.201 240.297C115.732 240.297 115.368 240.176 115.107 239.936C114.847 239.688 114.717 239.314 114.717 238.812C114.717 238.292 114.847 237.914 115.107 237.68C115.368 237.445 115.732 237.328 116.201 237.328C116.702 237.328 117.074 237.445 117.314 237.68C117.562 237.914 117.686 238.292 117.686 238.812ZM114.697 248.812V243.422C114.697 243.031 114.73 242.67 114.795 242.338C114.867 242.006 115.007 241.739 115.215 241.537C115.43 241.335 115.752 241.234 116.182 241.234C116.611 241.234 116.93 241.335 117.139 241.537C117.354 241.739 117.493 242.006 117.559 242.338C117.63 242.67 117.666 243.031 117.666 243.422V248.812C117.666 249.21 117.63 249.574 117.559 249.906C117.493 250.238 117.354 250.505 117.139 250.707C116.93 250.902 116.611 251 116.182 251C115.752 251 115.43 250.902 115.215 250.707C115.007 250.505 114.867 250.238 114.795 249.906C114.73 249.574 114.697 249.21 114.697 248.812ZM128.311 243.441V251.293C128.311 251.879 128.232 252.374 128.076 252.777C127.913 253.181 127.708 253.516 127.461 253.783C127.22 254.05 126.947 254.258 126.641 254.408C126.328 254.558 126.032 254.672 125.752 254.75C125.459 254.822 125.192 254.864 124.951 254.877C124.71 254.896 124.528 254.906 124.404 254.906C123.942 254.906 123.48 254.874 123.018 254.809C122.562 254.743 122.142 254.623 121.758 254.447C121.38 254.271 121.064 254.034 120.811 253.734C120.557 253.435 120.413 253.051 120.381 252.582C120.381 252.348 120.479 252.146 120.674 251.977C120.876 251.807 121.234 251.723 121.748 251.723C122.321 251.723 122.699 251.781 122.881 251.898C123.063 252.022 123.219 252.257 123.35 252.602C123.447 252.849 123.76 252.973 124.287 252.973C124.58 252.973 124.801 252.895 124.951 252.738C125.107 252.582 125.212 252.39 125.264 252.162C125.316 251.941 125.342 251.736 125.342 251.547V249.359C125.212 249.796 124.977 250.18 124.639 250.512C124.3 250.837 123.831 251 123.232 251C122.874 251 122.516 250.941 122.158 250.824C121.8 250.707 121.478 250.512 121.191 250.238C120.898 249.971 120.661 249.617 120.479 249.174C120.296 248.731 120.205 248.181 120.205 247.523V244.691C120.205 244.047 120.296 243.507 120.479 243.07C120.661 242.628 120.898 242.27 121.191 241.996C121.478 241.723 121.8 241.527 122.158 241.41C122.516 241.293 122.874 241.234 123.232 241.234C123.831 241.234 124.3 241.4 124.639 241.732C124.977 242.064 125.212 242.445 125.342 242.875C125.342 242.615 125.378 242.361 125.449 242.113C125.527 241.859 125.674 241.651 125.889 241.488C126.104 241.319 126.423 241.234 126.846 241.234C127.295 241.234 127.62 241.335 127.822 241.537C128.031 241.732 128.164 241.999 128.223 242.338C128.281 242.67 128.311 243.038 128.311 243.441ZM123.232 244.945V247.309C123.232 247.68 123.278 248.008 123.369 248.295C123.46 248.575 123.701 248.715 124.092 248.715C124.417 248.715 124.668 248.588 124.844 248.334C125.026 248.08 125.153 247.774 125.225 247.416C125.303 247.051 125.342 246.716 125.342 246.41C125.335 245.915 125.312 245.486 125.273 245.121C125.241 244.757 125.179 244.454 125.088 244.213C124.906 243.751 124.574 243.52 124.092 243.52C123.701 243.52 123.46 243.663 123.369 243.949C123.278 244.229 123.232 244.561 123.232 244.945ZM133.975 238.812C133.975 239.314 133.844 239.688 133.584 239.936C133.324 240.176 132.959 240.297 132.49 240.297C132.021 240.297 131.657 240.176 131.396 239.936C131.136 239.688 131.006 239.314 131.006 238.812C131.006 238.292 131.136 237.914 131.396 237.68C131.657 237.445 132.021 237.328 132.49 237.328C132.992 237.328 133.363 237.445 133.604 237.68C133.851 237.914 133.975 238.292 133.975 238.812ZM130.986 248.812V243.422C130.986 243.031 131.019 242.67 131.084 242.338C131.156 242.006 131.296 241.739 131.504 241.537C131.719 241.335 132.041 241.234 132.471 241.234C132.9 241.234 133.219 241.335 133.428 241.537C133.643 241.739 133.783 242.006 133.848 242.338C133.919 242.67 133.955 243.031 133.955 243.422V248.812C133.955 249.21 133.919 249.574 133.848 249.906C133.783 250.238 133.643 250.505 133.428 250.707C133.219 250.902 132.9 251 132.471 251C132.041 251 131.719 250.902 131.504 250.707C131.296 250.505 131.156 250.238 131.084 249.906C131.019 249.574 130.986 249.21 130.986 248.812ZM137.568 241.234H138.115V239.516C138.115 239.125 138.148 238.764 138.213 238.432C138.285 238.1 138.428 237.833 138.643 237.631C138.857 237.429 139.176 237.328 139.6 237.328C140.023 237.328 140.339 237.429 140.547 237.631C140.755 237.833 140.892 238.1 140.957 238.432C141.029 238.757 141.064 239.118 141.064 239.516V241.234H141.865C142.269 241.234 142.604 241.299 142.871 241.43C143.138 241.56 143.271 241.885 143.271 242.406C143.271 242.901 143.138 243.22 142.871 243.363C142.604 243.507 142.269 243.578 141.865 243.578H141.064V246.996C141.064 247.309 141.11 247.595 141.201 247.855C141.299 248.116 141.546 248.246 141.943 248.246C142.419 248.246 142.757 248.331 142.959 248.5C143.167 248.669 143.271 249.001 143.271 249.496C143.271 250.017 143.047 250.398 142.598 250.639C142.155 250.88 141.644 251 141.064 251C140.602 251 140.208 250.951 139.883 250.854C139.251 250.671 138.805 250.316 138.545 249.789C138.415 249.535 138.32 249.255 138.262 248.949C138.197 248.637 138.154 248.301 138.135 247.943C138.122 247.579 138.115 247.198 138.115 246.801V243.578H137.568C137.171 243.578 136.839 243.507 136.572 243.363C136.312 243.22 136.182 242.901 136.182 242.406C136.182 241.885 136.312 241.56 136.572 241.43C136.839 241.299 137.171 241.234 137.568 241.234ZM152.998 243.461V248.793C152.998 249.197 152.969 249.568 152.91 249.906C152.852 250.238 152.718 250.505 152.51 250.707C152.308 250.902 151.982 251 151.533 251C151.11 251 150.791 250.919 150.576 250.756C150.361 250.587 150.215 250.378 150.137 250.131C150.065 249.877 150.029 249.62 150.029 249.359C149.899 249.789 149.665 250.17 149.326 250.502C148.988 250.834 148.519 251 147.92 251C147.562 251 147.204 250.941 146.846 250.824C146.488 250.707 146.165 250.512 145.879 250.238C145.592 249.965 145.358 249.61 145.176 249.174C145 248.731 144.912 248.188 144.912 247.543V244.711C144.912 244.06 145 243.516 145.176 243.08C145.358 242.637 145.592 242.279 145.879 242.006C146.165 241.739 146.488 241.547 146.846 241.43C147.204 241.312 147.562 241.254 147.92 241.254C148.519 241.254 148.988 241.417 149.326 241.742C149.665 242.068 149.899 242.452 150.029 242.895C150.029 242.296 150.176 241.869 150.469 241.615C150.762 241.361 151.117 241.234 151.533 241.234C151.956 241.234 152.272 241.335 152.48 241.537C152.689 241.739 152.826 242.009 152.891 242.348C152.962 242.686 152.998 243.057 152.998 243.461ZM147.92 244.926V247.289C147.92 247.667 147.965 247.999 148.057 248.285C148.148 248.572 148.389 248.715 148.779 248.715C149.261 248.715 149.593 248.48 149.775 248.012C149.867 247.777 149.928 247.481 149.961 247.123C150 246.758 150.023 246.326 150.029 245.824C150.029 245.518 149.993 245.189 149.922 244.838C149.85 244.48 149.723 244.174 149.541 243.92C149.359 243.666 149.105 243.539 148.779 243.539C148.389 243.539 148.148 243.679 148.057 243.959C147.965 244.239 147.92 244.561 147.92 244.926ZM155.42 248.812V239.496C155.42 239.099 155.452 238.738 155.518 238.412C155.589 238.087 155.732 237.826 155.947 237.631C156.162 237.429 156.481 237.328 156.904 237.328C157.334 237.328 157.653 237.426 157.861 237.621C158.076 237.816 158.216 238.08 158.281 238.412C158.353 238.738 158.389 239.099 158.389 239.496V248.812C158.389 249.21 158.353 249.574 158.281 249.906C158.216 250.238 158.076 250.505 157.861 250.707C157.653 250.902 157.334 251 156.904 251C156.481 251 156.162 250.902 155.947 250.707C155.732 250.505 155.589 250.238 155.518 249.906C155.452 249.574 155.42 249.21 155.42 248.812ZM173.564 243.461V248.793C173.564 249.197 173.535 249.568 173.477 249.906C173.418 250.238 173.285 250.505 173.076 250.707C172.874 250.902 172.549 251 172.1 251C171.676 251 171.357 250.919 171.143 250.756C170.928 250.587 170.781 250.378 170.703 250.131C170.632 249.877 170.596 249.62 170.596 249.359C170.465 249.789 170.231 250.17 169.893 250.502C169.554 250.834 169.085 251 168.486 251C168.128 251 167.77 250.941 167.412 250.824C167.054 250.707 166.732 250.512 166.445 250.238C166.159 249.965 165.924 249.61 165.742 249.174C165.566 248.731 165.479 248.188 165.479 247.543V244.711C165.479 244.06 165.566 243.516 165.742 243.08C165.924 242.637 166.159 242.279 166.445 242.006C166.732 241.739 167.054 241.547 167.412 241.43C167.77 241.312 168.128 241.254 168.486 241.254C169.085 241.254 169.554 241.417 169.893 241.742C170.231 242.068 170.465 242.452 170.596 242.895C170.596 242.296 170.742 241.869 171.035 241.615C171.328 241.361 171.683 241.234 172.1 241.234C172.523 241.234 172.839 241.335 173.047 241.537C173.255 241.739 173.392 242.009 173.457 242.348C173.529 242.686 173.564 243.057 173.564 243.461ZM168.486 244.926V247.289C168.486 247.667 168.532 247.999 168.623 248.285C168.714 248.572 168.955 248.715 169.346 248.715C169.827 248.715 170.16 248.48 170.342 248.012C170.433 247.777 170.495 247.481 170.527 247.123C170.566 246.758 170.589 246.326 170.596 245.824C170.596 245.518 170.56 245.189 170.488 244.838C170.417 244.48 170.29 244.174 170.107 243.92C169.925 243.666 169.671 243.539 169.346 243.539C168.955 243.539 168.714 243.679 168.623 243.959C168.532 244.239 168.486 244.561 168.486 244.926ZM183.721 243.441V252.68C183.721 253.083 183.685 253.454 183.613 253.793C183.548 254.132 183.411 254.402 183.203 254.604C182.995 254.805 182.679 254.906 182.256 254.906C181.82 254.906 181.494 254.805 181.279 254.604C181.064 254.402 180.921 254.132 180.85 253.793C180.785 253.461 180.752 253.09 180.752 252.68V249.34C180.622 249.776 180.387 250.16 180.049 250.492C179.71 250.818 179.242 250.98 178.643 250.98C178.285 250.98 177.926 250.922 177.568 250.805C177.21 250.688 176.888 250.492 176.602 250.219C176.315 249.952 176.081 249.6 175.898 249.164C175.723 248.721 175.635 248.174 175.635 247.523V244.691C175.635 244.047 175.723 243.507 175.898 243.07C176.081 242.628 176.315 242.27 176.602 241.996C176.888 241.723 177.21 241.527 177.568 241.41C177.926 241.293 178.285 241.234 178.643 241.234C179.242 241.234 179.71 241.4 180.049 241.732C180.387 242.064 180.622 242.445 180.752 242.875C180.752 242.615 180.788 242.361 180.859 242.113C180.938 241.859 181.084 241.651 181.299 241.488C181.514 241.319 181.833 241.234 182.256 241.234C182.705 241.234 183.031 241.335 183.232 241.537C183.441 241.732 183.574 241.999 183.633 242.338C183.691 242.67 183.721 243.038 183.721 243.441ZM178.643 244.945V247.309C178.643 247.673 178.688 247.995 178.779 248.275C178.87 248.555 179.111 248.695 179.502 248.695C179.827 248.695 180.081 248.572 180.264 248.324C180.446 248.07 180.573 247.768 180.645 247.416C180.716 247.058 180.752 246.723 180.752 246.41C180.745 245.915 180.723 245.486 180.684 245.121C180.651 244.757 180.589 244.454 180.498 244.213C180.316 243.751 179.984 243.52 179.502 243.52C179.111 243.52 178.87 243.663 178.779 243.949C178.688 244.229 178.643 244.561 178.643 244.945ZM186.143 247.523V243.461C186.143 243.057 186.178 242.689 186.25 242.357C186.328 242.019 186.475 241.749 186.689 241.547C186.911 241.339 187.236 241.234 187.666 241.234C188.096 241.234 188.415 241.335 188.623 241.537C188.838 241.739 188.978 242.009 189.043 242.348C189.115 242.686 189.15 243.057 189.15 243.461V247.27C189.15 247.66 189.199 247.999 189.297 248.285C189.395 248.572 189.632 248.715 190.01 248.715C190.27 248.715 190.482 248.627 190.645 248.451C190.814 248.275 190.947 248.035 191.045 247.729C191.136 247.423 191.198 247.064 191.23 246.654C191.263 246.238 191.279 245.792 191.279 245.316V243.461C191.279 243.057 191.315 242.689 191.387 242.357C191.465 242.019 191.611 241.749 191.826 241.547C192.048 241.339 192.373 241.234 192.803 241.234C193.232 241.234 193.551 241.335 193.76 241.537C193.975 241.739 194.115 242.009 194.18 242.348C194.251 242.686 194.287 243.057 194.287 243.461V248.793C194.287 249.197 194.258 249.568 194.199 249.906C194.147 250.238 194.017 250.505 193.809 250.707C193.6 250.902 193.265 251 192.803 251C192.38 251 192.057 250.919 191.836 250.756C191.621 250.587 191.475 250.378 191.396 250.131C191.318 249.877 191.279 249.62 191.279 249.359C191.162 249.789 190.924 250.17 190.566 250.502C190.208 250.834 189.736 251 189.15 251C188.792 251 188.434 250.941 188.076 250.824C187.718 250.707 187.396 250.512 187.109 250.238C186.823 249.965 186.589 249.607 186.406 249.164C186.23 248.721 186.143 248.174 186.143 247.523ZM204.404 243.461V248.793C204.404 249.197 204.375 249.568 204.316 249.906C204.258 250.238 204.124 250.505 203.916 250.707C203.714 250.902 203.389 251 202.939 251C202.516 251 202.197 250.919 201.982 250.756C201.768 250.587 201.621 250.378 201.543 250.131C201.471 249.877 201.436 249.62 201.436 249.359C201.305 249.789 201.071 250.17 200.732 250.502C200.394 250.834 199.925 251 199.326 251C198.968 251 198.61 250.941 198.252 250.824C197.894 250.707 197.572 250.512 197.285 250.238C196.999 249.965 196.764 249.61 196.582 249.174C196.406 248.731 196.318 248.188 196.318 247.543V244.711C196.318 244.06 196.406 243.516 196.582 243.08C196.764 242.637 196.999 242.279 197.285 242.006C197.572 241.739 197.894 241.547 198.252 241.43C198.61 241.312 198.968 241.254 199.326 241.254C199.925 241.254 200.394 241.417 200.732 241.742C201.071 242.068 201.305 242.452 201.436 242.895C201.436 242.296 201.582 241.869 201.875 241.615C202.168 241.361 202.523 241.234 202.939 241.234C203.363 241.234 203.678 241.335 203.887 241.537C204.095 241.739 204.232 242.009 204.297 242.348C204.368 242.686 204.404 243.057 204.404 243.461ZM199.326 244.926V247.289C199.326 247.667 199.372 247.999 199.463 248.285C199.554 248.572 199.795 248.715 200.186 248.715C200.667 248.715 200.999 248.48 201.182 248.012C201.273 247.777 201.335 247.481 201.367 247.123C201.406 246.758 201.429 246.326 201.436 245.824C201.436 245.518 201.4 245.189 201.328 244.838C201.257 244.48 201.13 244.174 200.947 243.92C200.765 243.666 200.511 243.539 200.186 243.539C199.795 243.539 199.554 243.679 199.463 243.959C199.372 244.239 199.326 244.561 199.326 244.926ZM212.979 242.699C212.979 243.676 212.497 244.164 211.533 244.164C211.39 244.164 211.221 244.184 211.025 244.223C210.837 244.255 210.648 244.327 210.459 244.438C210.316 244.522 210.186 244.633 210.068 244.77C209.951 244.913 209.857 245.092 209.785 245.307C209.714 245.521 209.678 245.779 209.678 246.078V248.871C209.678 249.255 209.642 249.61 209.57 249.936C209.499 250.255 209.355 250.512 209.141 250.707C208.932 250.902 208.617 251 208.193 251C207.783 251 207.474 250.902 207.266 250.707C207.057 250.512 206.917 250.251 206.846 249.926C206.781 249.6 206.748 249.249 206.748 248.871V243.402C206.748 243.005 206.781 242.647 206.846 242.328C206.917 242.003 207.057 241.742 207.266 241.547C207.474 241.352 207.783 241.254 208.193 241.254C208.623 241.254 208.929 241.371 209.111 241.605C209.3 241.833 209.414 242.13 209.453 242.494C209.499 242.852 209.521 243.233 209.521 243.637H209.678C209.847 242.973 210.12 242.41 210.498 241.947C210.876 241.485 211.292 241.254 211.748 241.254C212.249 241.254 212.578 241.368 212.734 241.596C212.897 241.824 212.979 242.191 212.979 242.699ZM217.686 238.812C217.686 239.314 217.555 239.688 217.295 239.936C217.035 240.176 216.67 240.297 216.201 240.297C215.732 240.297 215.368 240.176 215.107 239.936C214.847 239.688 214.717 239.314 214.717 238.812C214.717 238.292 214.847 237.914 215.107 237.68C215.368 237.445 215.732 237.328 216.201 237.328C216.702 237.328 217.074 237.445 217.314 237.68C217.562 237.914 217.686 238.292 217.686 238.812ZM214.697 248.812V243.422C214.697 243.031 214.73 242.67 214.795 242.338C214.867 242.006 215.007 241.739 215.215 241.537C215.43 241.335 215.752 241.234 216.182 241.234C216.611 241.234 216.93 241.335 217.139 241.537C217.354 241.739 217.493 242.006 217.559 242.338C217.63 242.67 217.666 243.031 217.666 243.422V248.812C217.666 249.21 217.63 249.574 217.559 249.906C217.493 250.238 217.354 250.505 217.139 250.707C216.93 250.902 216.611 251 216.182 251C215.752 251 215.43 250.902 215.215 250.707C215.007 250.505 214.867 250.238 214.795 249.906C214.73 249.574 214.697 249.21 214.697 248.812ZM220.459 247.523V243.461C220.459 243.057 220.495 242.689 220.566 242.357C220.645 242.019 220.791 241.749 221.006 241.547C221.227 241.339 221.553 241.234 221.982 241.234C222.412 241.234 222.731 241.335 222.939 241.537C223.154 241.739 223.294 242.009 223.359 242.348C223.431 242.686 223.467 243.057 223.467 243.461V247.27C223.467 247.66 223.516 247.999 223.613 248.285C223.711 248.572 223.949 248.715 224.326 248.715C224.587 248.715 224.798 248.627 224.961 248.451C225.13 248.275 225.264 248.035 225.361 247.729C225.452 247.423 225.514 247.064 225.547 246.654C225.579 246.238 225.596 245.792 225.596 245.316V243.461C225.596 243.057 225.632 242.689 225.703 242.357C225.781 242.019 225.928 241.749 226.143 241.547C226.364 241.339 226.689 241.234 227.119 241.234C227.549 241.234 227.868 241.335 228.076 241.537C228.291 241.739 228.431 242.009 228.496 242.348C228.568 242.686 228.604 243.057 228.604 243.461V248.793C228.604 249.197 228.574 249.568 228.516 249.906C228.464 250.238 228.333 250.505 228.125 250.707C227.917 250.902 227.581 251 227.119 251C226.696 251 226.374 250.919 226.152 250.756C225.938 250.587 225.791 250.378 225.713 250.131C225.635 249.877 225.596 249.62 225.596 249.359C225.479 249.789 225.241 250.17 224.883 250.502C224.525 250.834 224.053 251 223.467 251C223.109 251 222.751 250.941 222.393 250.824C222.035 250.707 221.712 250.512 221.426 250.238C221.139 249.965 220.905 249.607 220.723 249.164C220.547 248.721 220.459 248.174 220.459 247.523ZM237.705 251C237.282 251 236.963 250.899 236.748 250.697C236.533 250.495 236.39 250.229 236.318 249.896C236.253 249.558 236.221 249.19 236.221 248.793V244.926C236.221 244.555 236.172 244.229 236.074 243.949C235.977 243.663 235.739 243.52 235.361 243.52C235.101 243.52 234.889 243.607 234.727 243.783C234.564 243.952 234.437 244.19 234.346 244.496C234.248 244.796 234.18 245.154 234.141 245.57C234.108 245.98 234.092 246.423 234.092 246.898V248.793C234.092 249.19 234.056 249.558 233.984 249.896C233.919 250.229 233.779 250.495 233.564 250.697C233.356 250.899 233.037 251 232.607 251C232.178 251 231.855 250.899 231.641 250.697C231.432 250.495 231.292 250.229 231.221 249.896C231.156 249.558 231.123 249.19 231.123 248.793V243.441C231.123 243.031 231.152 242.66 231.211 242.328C231.276 241.996 231.413 241.732 231.621 241.537C231.836 241.335 232.165 241.234 232.607 241.234C233.037 241.234 233.356 241.319 233.564 241.488C233.779 241.651 233.919 241.859 233.984 242.113C234.056 242.361 234.092 242.615 234.092 242.875C234.222 242.452 234.489 242.074 234.893 241.742C235.296 241.404 235.791 241.234 236.377 241.234C236.807 241.234 237.223 241.339 237.627 241.547C238.031 241.755 238.376 242.094 238.662 242.562C238.857 242.12 239.215 241.788 239.736 241.566C240.264 241.345 240.791 241.234 241.318 241.234C241.676 241.234 242.035 241.293 242.393 241.41C242.751 241.527 243.073 241.723 243.359 241.996C243.646 242.27 243.877 242.628 244.053 243.07C244.235 243.507 244.326 244.047 244.326 244.691V248.793C244.326 249.19 244.287 249.558 244.209 249.896C244.137 250.229 243.994 250.495 243.779 250.697C243.564 250.899 243.245 251 242.822 251C242.393 251 242.07 250.899 241.855 250.697C241.641 250.495 241.497 250.229 241.426 249.896C241.354 249.558 241.318 249.19 241.318 248.793V244.926C241.318 244.548 241.266 244.219 241.162 243.939C241.058 243.66 240.817 243.52 240.439 243.52C240.146 243.52 239.912 243.643 239.736 243.891C239.567 244.132 239.443 244.447 239.365 244.838C239.287 245.229 239.235 245.648 239.209 246.098V248.793C239.209 249.19 239.173 249.558 239.102 249.896C239.03 250.229 238.887 250.495 238.672 250.697C238.464 250.899 238.141 251 237.705 251ZM259.365 243.441V251.293C259.365 251.879 259.287 252.374 259.131 252.777C258.968 253.181 258.763 253.516 258.516 253.783C258.275 254.05 258.001 254.258 257.695 254.408C257.383 254.558 257.087 254.672 256.807 254.75C256.514 254.822 256.247 254.864 256.006 254.877C255.765 254.896 255.583 254.906 255.459 254.906C254.997 254.906 254.535 254.874 254.072 254.809C253.617 254.743 253.197 254.623 252.812 254.447C252.435 254.271 252.119 254.034 251.865 253.734C251.611 253.435 251.468 253.051 251.436 252.582C251.436 252.348 251.533 252.146 251.729 251.977C251.93 251.807 252.288 251.723 252.803 251.723C253.376 251.723 253.753 251.781 253.936 251.898C254.118 252.022 254.274 252.257 254.404 252.602C254.502 252.849 254.814 252.973 255.342 252.973C255.635 252.973 255.856 252.895 256.006 252.738C256.162 252.582 256.266 252.39 256.318 252.162C256.37 251.941 256.396 251.736 256.396 251.547V249.359C256.266 249.796 256.032 250.18 255.693 250.512C255.355 250.837 254.886 251 254.287 251C253.929 251 253.571 250.941 253.213 250.824C252.855 250.707 252.533 250.512 252.246 250.238C251.953 249.971 251.715 249.617 251.533 249.174C251.351 248.731 251.26 248.181 251.26 247.523V244.691C251.26 244.047 251.351 243.507 251.533 243.07C251.715 242.628 251.953 242.27 252.246 241.996C252.533 241.723 252.855 241.527 253.213 241.41C253.571 241.293 253.929 241.234 254.287 241.234C254.886 241.234 255.355 241.4 255.693 241.732C256.032 242.064 256.266 242.445 256.396 242.875C256.396 242.615 256.432 242.361 256.504 242.113C256.582 241.859 256.729 241.651 256.943 241.488C257.158 241.319 257.477 241.234 257.9 241.234C258.35 241.234 258.675 241.335 258.877 241.537C259.085 241.732 259.219 241.999 259.277 242.338C259.336 242.67 259.365 243.038 259.365 243.441ZM254.287 244.945V247.309C254.287 247.68 254.333 248.008 254.424 248.295C254.515 248.575 254.756 248.715 255.146 248.715C255.472 248.715 255.723 248.588 255.898 248.334C256.081 248.08 256.208 247.774 256.279 247.416C256.357 247.051 256.396 246.716 256.396 246.41C256.39 245.915 256.367 245.486 256.328 245.121C256.296 244.757 256.234 244.454 256.143 244.213C255.96 243.751 255.628 243.52 255.146 243.52C254.756 243.52 254.515 243.663 254.424 243.949C254.333 244.229 254.287 244.561 254.287 244.945ZM261.689 247.523V243.461C261.689 243.057 261.725 242.689 261.797 242.357C261.875 242.019 262.021 241.749 262.236 241.547C262.458 241.339 262.783 241.234 263.213 241.234C263.643 241.234 263.962 241.335 264.17 241.537C264.385 241.739 264.525 242.009 264.59 242.348C264.661 242.686 264.697 243.057 264.697 243.461V247.27C264.697 247.66 264.746 247.999 264.844 248.285C264.941 248.572 265.179 248.715 265.557 248.715C265.817 248.715 266.029 248.627 266.191 248.451C266.361 248.275 266.494 248.035 266.592 247.729C266.683 247.423 266.745 247.064 266.777 246.654C266.81 246.238 266.826 245.792 266.826 245.316V243.461C266.826 243.057 266.862 242.689 266.934 242.357C267.012 242.019 267.158 241.749 267.373 241.547C267.594 241.339 267.92 241.234 268.35 241.234C268.779 241.234 269.098 241.335 269.307 241.537C269.521 241.739 269.661 242.009 269.727 242.348C269.798 242.686 269.834 243.057 269.834 243.461V248.793C269.834 249.197 269.805 249.568 269.746 249.906C269.694 250.238 269.564 250.505 269.355 250.707C269.147 250.902 268.812 251 268.35 251C267.926 251 267.604 250.919 267.383 250.756C267.168 250.587 267.021 250.378 266.943 250.131C266.865 249.877 266.826 249.62 266.826 249.359C266.709 249.789 266.471 250.17 266.113 250.502C265.755 250.834 265.283 251 264.697 251C264.339 251 263.981 250.941 263.623 250.824C263.265 250.707 262.943 250.512 262.656 250.238C262.37 249.965 262.135 249.607 261.953 249.164C261.777 248.721 261.689 248.174 261.689 247.523ZM275.537 238.812C275.537 239.314 275.407 239.688 275.146 239.936C274.886 240.176 274.521 240.297 274.053 240.297C273.584 240.297 273.219 240.176 272.959 239.936C272.699 239.688 272.568 239.314 272.568 238.812C272.568 238.292 272.699 237.914 272.959 237.68C273.219 237.445 273.584 237.328 274.053 237.328C274.554 237.328 274.925 237.445 275.166 237.68C275.413 237.914 275.537 238.292 275.537 238.812ZM272.549 248.812V243.422C272.549 243.031 272.581 242.67 272.646 242.338C272.718 242.006 272.858 241.739 273.066 241.537C273.281 241.335 273.604 241.234 274.033 241.234C274.463 241.234 274.782 241.335 274.99 241.537C275.205 241.739 275.345 242.006 275.41 242.338C275.482 242.67 275.518 243.031 275.518 243.422V248.812C275.518 249.21 275.482 249.574 275.41 249.906C275.345 250.238 275.205 250.505 274.99 250.707C274.782 250.902 274.463 251 274.033 251C273.604 251 273.281 250.902 273.066 250.707C272.858 250.505 272.718 250.238 272.646 249.906C272.581 249.574 272.549 249.21 272.549 248.812ZM286.045 239.555V248.793C286.045 249.197 286.016 249.568 285.957 249.906C285.898 250.238 285.765 250.505 285.557 250.707C285.355 250.902 285.029 251 284.58 251C284.157 251 283.838 250.919 283.623 250.756C283.408 250.587 283.262 250.378 283.184 250.131C283.112 249.877 283.076 249.62 283.076 249.359C282.946 249.789 282.712 250.17 282.373 250.502C282.035 250.834 281.566 251 280.967 251C280.609 251 280.251 250.941 279.893 250.824C279.535 250.707 279.212 250.512 278.926 250.238C278.639 249.965 278.405 249.61 278.223 249.174C278.047 248.731 277.959 248.188 277.959 247.543V244.711C277.959 244.06 278.047 243.516 278.223 243.08C278.405 242.637 278.639 242.279 278.926 242.006C279.212 241.739 279.535 241.547 279.893 241.43C280.251 241.312 280.609 241.254 280.967 241.254C281.566 241.254 282.035 241.417 282.373 241.742C282.712 242.068 282.946 242.452 283.076 242.895V239.555C283.076 239.145 283.109 238.773 283.174 238.441C283.245 238.103 283.389 237.833 283.604 237.631C283.818 237.429 284.144 237.328 284.58 237.328C285.003 237.328 285.319 237.429 285.527 237.631C285.736 237.833 285.872 238.103 285.938 238.441C286.009 238.78 286.045 239.151 286.045 239.555ZM280.967 244.926V247.289C280.967 247.667 281.012 247.999 281.104 248.285C281.195 248.572 281.436 248.715 281.826 248.715C282.308 248.715 282.64 248.48 282.822 248.012C282.913 247.777 282.975 247.481 283.008 247.123C283.047 246.758 283.07 246.326 283.076 245.824C283.076 245.518 283.04 245.189 282.969 244.838C282.897 244.48 282.77 244.174 282.588 243.92C282.406 243.666 282.152 243.539 281.826 243.539C281.436 243.539 281.195 243.679 281.104 243.959C281.012 244.239 280.967 244.561 280.967 244.926ZM296.26 244.828V245.434C296.26 245.753 296.178 246.039 296.016 246.293C295.859 246.54 295.479 246.664 294.873 246.664H290.986V247.602C290.986 247.96 291.077 248.292 291.26 248.598C291.449 248.897 291.761 249.047 292.197 249.047C292.542 249.047 292.793 248.992 292.949 248.881C293.105 248.764 293.239 248.614 293.35 248.432C293.421 248.321 293.509 248.223 293.613 248.139C293.724 248.048 293.874 247.973 294.062 247.914C294.251 247.849 294.515 247.816 294.854 247.816C295.205 247.816 295.505 247.885 295.752 248.021C295.999 248.152 296.123 248.409 296.123 248.793C296.123 249.216 295.99 249.571 295.723 249.857C295.456 250.137 295.12 250.362 294.717 250.531C294.313 250.701 293.874 250.821 293.398 250.893C292.93 250.964 292.49 251 292.08 251C291.54 250.993 291.025 250.925 290.537 250.795C290.049 250.665 289.619 250.456 289.248 250.17C288.87 249.883 288.571 249.509 288.35 249.047C288.128 248.585 288.018 248.018 288.018 247.348V245.062C288.018 244.451 288.092 243.926 288.242 243.49C288.392 243.061 288.581 242.702 288.809 242.416C289.043 242.13 289.307 241.905 289.6 241.742C289.893 241.586 290.189 241.469 290.488 241.391C290.788 241.312 291.071 241.264 291.338 241.244C291.611 241.225 291.846 241.215 292.041 241.215C292.699 241.215 293.262 241.273 293.73 241.391C294.193 241.508 294.58 241.661 294.893 241.85C295.205 242.038 295.452 242.257 295.635 242.504C295.824 242.745 295.96 242.999 296.045 243.266C296.136 243.526 296.195 243.793 296.221 244.066C296.247 244.34 296.26 244.594 296.26 244.828ZM290.986 244.516V245.199H293.428C293.428 244.776 293.405 244.424 293.359 244.145C293.32 243.858 293.21 243.643 293.027 243.5C292.852 243.357 292.555 243.285 292.139 243.285C291.663 243.285 291.351 243.415 291.201 243.676C291.058 243.93 290.986 244.21 290.986 244.516ZM301.611 249.379C301.611 249.932 301.471 250.342 301.191 250.609C300.911 250.87 300.518 251 300.01 251C298.929 251 298.389 250.46 298.389 249.379C298.389 248.819 298.529 248.412 298.809 248.158C299.089 247.904 299.489 247.777 300.01 247.777C300.55 247.777 300.951 247.904 301.211 248.158C301.478 248.412 301.611 248.819 301.611 249.379Z" fill="url(#paint0_linear_142_3)" fill-opacity="0.95"/>
<path d="M308.898 175.002C305.16 174.477 302.318 171.753 302.692 169.093C303.066 166.434 306.549 164.599 310.286 165.124C314.023 165.649 316.865 168.373 316.492 171.033C316.046 173.682 312.635 175.527 308.898 175.002Z" fill="#E07E1E"/>
<path d="M310.19 165.808C313.855 166.323 316.133 168.89 315.855 170.866C315.578 172.842 312.681 174.681 309.015 174.166C305.35 173.651 303.072 171.084 303.35 169.108C303.627 167.133 306.524 165.293 310.19 165.808ZM310.393 164.364C306.296 163.788 302.555 165.897 302.117 169.013C301.679 172.128 304.694 175.186 308.791 175.762C312.888 176.338 316.629 174.229 317.067 171.114C317.515 167.922 314.49 164.94 310.393 164.364Z" fill="#3E4347"/>
<path d="M300.808 154.339C297.43 153.864 295.041 151.049 295.457 148.085C295.874 145.122 298.947 143.074 302.325 143.549C305.702 144.024 308.092 146.839 307.675 149.803C307.259 152.766 304.114 154.803 300.808 154.339Z" fill="#E07E1E"/>
<path d="M302.218 144.309C305.164 144.723 307.381 147.204 307.039 149.636C306.687 152.143 303.883 153.841 300.936 153.427C297.99 153.013 295.773 150.532 296.115 148.1C296.456 145.669 299.199 143.885 302.218 144.309ZM302.453 142.637C298.715 142.112 295.302 144.499 294.821 147.918C294.34 151.338 296.964 154.573 300.701 155.099C304.439 155.624 307.852 153.237 308.333 149.817C308.814 146.398 306.19 143.162 302.453 142.637Z" fill="#3E4347"/>
<path d="M312.62 161.035C311.182 160.833 309.852 159.872 308.966 158.352C308.13 156.995 307.78 155.319 307.86 153.703C308.013 152.097 308.564 150.78 309.494 149.903C310.34 149.092 311.411 148.778 312.489 148.929C313.926 149.131 315.257 150.093 316.143 151.612C316.978 152.97 317.329 154.646 317.248 156.262C317.096 157.868 316.544 159.185 315.615 160.062C314.779 160.796 313.77 161.197 312.62 161.035Z" fill="#E07E1E"/>
<path d="M312.465 149.623C313.686 149.795 314.884 150.661 315.647 152.008C316.35 153.269 316.732 154.717 316.601 156.171C316.492 157.473 316.033 158.648 315.269 159.393C314.422 160.204 313.456 160.301 312.809 160.21C311.587 160.038 310.39 159.172 309.626 157.825C308.924 156.564 308.541 155.116 308.672 153.662C308.782 152.36 309.24 151.185 310.004 150.44C310.851 149.629 311.818 149.532 312.465 149.623ZM312.7 147.952C311.478 147.78 310.253 148.15 309.241 149.093C306.959 151.252 306.638 155.623 308.542 158.758C309.612 160.535 311.075 161.593 312.585 161.805C313.807 161.977 315.031 161.607 316.043 160.664C318.326 158.505 318.647 154.134 316.742 150.999C315.744 149.232 314.209 148.164 312.7 147.952Z" fill="#3E4347"/>
<path d="M298.446 175.315C297.512 175.184 296.61 174.825 295.668 174.228C293.107 172.628 291.612 169.706 292.465 167.811C292.985 166.722 294.313 166.134 295.966 166.366C296.901 166.497 297.803 166.857 298.745 167.454C300.025 168.254 301.097 169.489 301.728 170.74C302.225 171.895 302.363 172.999 301.958 173.794C301.428 174.96 300.099 175.548 298.446 175.315Z" fill="#E07E1E"/>
<path d="M295.91 167.288C296.772 167.409 297.603 167.758 298.412 168.259C299.62 169.049 300.57 170.112 301.067 171.267C301.453 172.174 301.562 172.964 301.343 173.476C301.021 174.205 299.868 174.585 298.575 174.404C297.712 174.282 296.882 173.933 296.073 173.432C293.717 171.939 292.6 169.457 293.141 168.216C293.463 167.486 294.616 167.106 295.91 167.288ZM296.156 165.54C294.287 165.278 292.649 165.977 291.933 167.426C290.883 169.681 292.458 173.079 295.345 174.957C296.359 175.565 297.405 175.944 298.34 176.075C300.208 176.338 301.846 175.638 302.562 174.189C303.612 171.935 302.038 168.537 299.15 166.658C298.136 166.051 297.09 165.672 296.156 165.54Z" fill="#3E4347"/>
<path d="M306.515 149.717C304.404 148.568 302.035 147.693 299.376 147.319C298.585 147.208 297.856 147.183 297.127 147.158C297.929 150.835 298.042 154.725 297.497 158.6C296.889 162.931 295.428 167.065 293.313 170.642C294.154 170.915 295.089 171.047 296.023 171.178C297.245 171.35 298.395 171.511 299.483 171.587C299.391 169.637 299.525 167.641 299.813 165.589C300.657 159.587 302.978 154.024 306.515 149.717ZM291.965 147.904C284.513 150.344 281.411 157.812 281.411 157.812C281.411 157.812 281.85 158.338 281.991 158.9C282.142 159.387 280.601 159.402 280.925 160.223C281.848 162.522 285.004 166.143 288.485 168.491C290.597 165.456 291.983 161.854 292.538 157.903C293.019 154.484 292.842 151.05 291.965 147.904ZM323.086 163.746C323.438 161.239 326.508 159.733 324.207 155.768C324.207 155.768 322.348 157.521 320.657 158.601C320.447 159.578 320.225 160.632 320.087 161.62C319.702 164.355 319.677 167.141 320.033 169.826C321.291 170.778 321.975 171.648 321.975 171.648C325.269 168.547 322.712 166.406 323.086 163.746ZM315.863 157.772C314.097 155.741 312.308 153.863 310.262 152.258C308.696 155.06 307.6 158.16 307.13 161.504C306.671 164.771 306.808 167.967 307.481 171.006C309.672 170.539 312.06 169.713 314.933 168.567C314.771 166.064 314.908 163.527 315.271 160.943C315.41 159.955 315.57 158.816 315.863 157.772Z" fill="#F29A2E"/>
<path d="M293.185 157.994C292.608 162.097 291.129 165.841 289.089 168.886C290.103 169.494 291.272 170.045 292.605 170.465C294.699 167.04 296.221 162.992 296.84 158.585C297.395 154.634 297.2 150.81 296.376 147.285C295.05 147.331 293.775 147.539 292.633 147.843C293.46 150.827 293.698 154.347 293.185 157.994Z" fill="white"/>
<path d="M297.055 147.148C296.839 147.117 296.613 147.163 296.325 147.123C297.149 150.648 297.345 154.472 296.789 158.423C296.159 162.906 294.638 166.954 292.555 170.303C292.759 170.409 293.047 170.45 293.263 170.48C295.378 166.903 296.838 162.769 297.447 158.438C298.042 154.725 297.857 150.825 297.055 147.148ZM293.185 157.994C293.687 154.423 293.449 150.903 292.644 147.767C292.417 147.813 292.191 147.859 291.954 147.98C292.831 151.126 293.008 154.56 292.528 157.979C291.972 161.93 290.587 165.532 288.474 168.567C288.679 168.674 288.873 168.856 289.078 168.962C291.14 165.765 292.608 162.097 293.185 157.994Z" fill="#3E4347"/>
<path d="M300.46 165.68C300.182 167.656 300.12 169.662 300.141 171.602C302.318 171.753 304.456 171.666 306.791 171.219C306.119 168.18 305.931 164.822 306.401 161.479C306.903 157.907 308.02 154.655 309.586 151.853C308.798 151.2 307.928 150.613 307.047 150.102C303.758 154.211 301.314 159.602 300.46 165.68Z" fill="white"/>
<path d="M300.46 165.68C301.314 159.602 303.758 154.211 307.119 150.112C306.914 150.005 306.709 149.899 306.515 149.717C302.978 154.024 300.657 159.587 299.813 165.589C299.536 167.565 299.402 169.561 299.483 171.587C299.699 171.617 299.915 171.648 300.141 171.602C300.12 169.662 300.182 167.656 300.46 165.68ZM310.262 152.258C310.068 152.076 309.863 151.97 309.74 151.797C308.174 154.599 307.057 157.852 306.555 161.423C306.075 164.842 306.201 168.114 306.945 171.163L307.624 171.026C306.952 167.987 306.826 164.715 307.274 161.524C307.6 158.16 308.624 155.05 310.262 152.258Z" fill="#3E4347"/>
<path d="M316.691 158.663C316.63 158.577 316.497 158.481 316.446 158.319C316.236 159.297 316.036 160.198 315.907 161.11C315.566 163.542 315.44 166.003 315.622 168.354C315.777 168.298 315.942 168.166 316.168 168.12C316.796 167.821 318.087 168.545 319.296 169.335C319.062 166.822 319.055 164.264 319.429 161.605C319.547 160.769 319.736 159.943 319.853 159.108C318.679 159.64 317.569 159.716 316.691 158.663Z" fill="white"/>
<path d="M315.907 161.11C316.035 160.198 316.235 159.296 316.364 158.385C316.169 158.202 315.986 157.944 315.792 157.762C315.559 158.892 315.338 159.945 315.189 161.009C314.836 163.517 314.699 166.054 314.85 168.633C315.087 168.511 315.313 168.465 315.55 168.343C315.45 165.927 315.566 163.542 315.907 161.11ZM320.575 158.667C320.327 158.864 320.018 158.976 319.781 159.097C319.592 159.923 319.475 160.759 319.357 161.595C318.983 164.254 318.98 166.888 319.224 169.325C319.49 169.517 319.756 169.709 319.95 169.892C319.594 167.207 319.62 164.421 320.004 161.686C320.153 160.622 320.364 159.644 320.575 158.667Z" fill="#3E4347"/>
<path d="M298.806 156.072C296.401 158.059 295.254 163.089 298.733 163.888C302.92 164.864 304.524 168.576 306.929 166.589C309.333 164.603 309.106 161.006 307.036 158.004C304.977 154.925 301.282 154.096 298.806 156.072Z" fill="#E07E1E"/>
<path d="M298.877 156.082C297.639 157.07 296.901 158.671 296.759 160.201C296.724 160.971 296.833 161.761 297.262 162.364C297.618 162.956 298.233 163.275 298.941 163.452C300.511 163.75 301.935 164.57 303.205 165.446C303.881 165.851 304.485 166.246 305.11 166.489C305.747 166.656 306.21 166.488 306.716 166.017C307.222 165.546 307.595 164.978 307.835 164.315C308.074 163.651 308.099 162.957 307.979 162.243C307.812 160.825 307.131 159.412 306.346 158.217C305.551 157.098 304.446 156.09 303.134 155.518C302.437 155.265 301.718 155.164 300.978 155.215C300.227 155.342 299.455 155.621 298.877 156.082ZM298.816 155.996C300.065 154.932 301.66 154.536 303.313 154.768C304.894 154.991 306.451 155.907 307.502 157.294C308.492 158.596 309.284 160.257 309.47 162.065C309.558 163.007 309.429 163.919 309.086 164.8C308.742 165.682 308.193 166.457 307.461 166.974C307.083 167.283 306.652 167.512 306.193 167.648C305.741 167.74 305.227 167.745 304.807 167.608C303.965 167.335 303.311 166.778 302.707 166.383C301.437 165.508 300.229 164.718 298.824 164.288C298.475 164.162 298.054 164.025 297.727 163.746C297.4 163.468 297.083 163.114 296.91 162.779C296.514 161.949 296.488 161.093 296.605 160.257C296.722 159.421 297.056 158.616 297.45 157.896C297.7 157.156 298.156 156.523 298.816 155.996Z" fill="#3E4347"/>
<path d="M286.933 162.849C289.275 163.178 291.474 161.302 291.846 158.658C292.217 156.014 290.62 153.604 288.278 153.275C285.936 152.946 283.737 154.823 283.365 157.466C282.993 160.11 284.591 162.52 286.933 162.849Z" fill="#FCFCFA"/>
<path d="M287.146 161.33C288.774 161.558 290.299 160.281 290.552 158.476C290.806 156.672 289.692 155.024 288.065 154.795C286.437 154.566 284.912 155.844 284.659 157.648C284.405 159.453 285.519 161.101 287.146 161.33Z" fill="#29251C"/>
<defs>
<filter id="filter0_d_142_3" x="23.6562" y="159.375" width="278.938" height="74" filterUnits="userSpaceOnUse" color-interpolation-filters="sRGB">
<feFlood flood-opacity="0" result="BackgroundImageFix"/>
<feColorMatrix in="SourceAlpha" type="matrix" values="0 0 0 0 0 0 0 0 0 0 0 0 0 0 0 0 0 0 127 0" result="hardAlpha"/>
<feOffset dy="4"/>
<feGaussianBlur stdDeviation="2"/>
<feComposite in2="hardAlpha" operator="out"/>
<feColorMatrix type="matrix" values="0 0 0 0 0 0 0 0 0 0 0 0 0 0 0 0 0 0 0.25 0"/>
<feBlend mode="normal" in2="BackgroundImageFix" result="effect1_dropShadow_142_3"/>
<feBlend mode="normal" in="SourceGraphic" in2="effect1_dropShadow_142_3" result="shape"/>
</filter>
<linearGradient id="paint0_linear_142_3" x1="62" y1="245" x2="303" y2="245" gradientUnits="userSpaceOnUse">
<stop stop-color="#C8EAFD"/>
</linearGradient>
</defs>
</svg>
