<svg width="330" height="155" viewBox="0 0 330 155" fill="none" xmlns="http://www.w3.org/2000/svg">
<g filter="url(#filter0_d_144_43)">
<path d="M37.7812 51.375H51.375C57.2812 51.375 62.0781 52.7969 65.7656 55.6406C67.6094 57.0781 69.0469 58.8594 70.0781 60.9844C71.1094 63.1094 71.625 65.5938 71.625 68.4375V97.5C71.625 99.9375 71.3594 102.078 70.8281 103.922C70.2969 105.766 69.6094 107.375 68.7656 108.75C67.8906 110.094 66.9062 111.25 65.8125 112.219C64.7188 113.188 63.6094 113.969 62.4844 114.562C59.8594 116 56.8125 116.812 53.3438 117H37.7812C35.5312 117 33.9062 116.531 32.9062 115.594C31.9062 114.656 31.2812 113.375 31.0312 111.75C30.7812 110.125 30.6562 108.281 30.6562 106.219V62.0625C30.6562 60.0312 30.7812 58.2188 31.0312 56.625C31.2812 55 31.9062 53.7188 32.9062 52.7812C33.9062 51.8438 35.5312 51.375 37.7812 51.375ZM51 62.3438H44.9062V105.844H51C52.2812 105.812 53.4844 105.5 54.6094 104.906C55.6719 104.375 56.5312 103.578 57.1875 102.516C57.875 101.422 58.2188 100.031 58.2188 98.3438V70.6875C58.2188 68.8438 57.875 67.3125 57.1875 66.0938C56.5312 64.875 55.6719 63.9688 54.6094 63.375C53.5469 62.7812 52.3438 62.4375 51 62.3438ZM111.75 77.1562C111.75 81.8438 109.438 84.1875 104.812 84.1875C104.125 84.1875 103.312 84.2812 102.375 84.4688C101.469 84.625 100.562 84.9688 99.6562 85.5C98.9688 85.9062 98.3438 86.4375 97.7812 87.0938C97.2188 87.7812 96.7656 88.6406 96.4219 89.6719C96.0781 90.7031 95.9062 91.9375 95.9062 93.375V106.781C95.9062 108.625 95.7344 110.328 95.3906 111.891C95.0469 113.422 94.3594 114.656 93.3281 115.594C92.3281 116.531 90.8125 117 88.7812 117C86.8125 117 85.3281 116.531 84.3281 115.594C83.3281 114.656 82.6562 113.406 82.3125 111.844C82 110.281 81.8438 108.594 81.8438 106.781V80.5312C81.8438 78.625 82 76.9062 82.3125 75.375C82.6562 73.8125 83.3281 72.5625 84.3281 71.625C85.3281 70.6875 86.8125 70.2188 88.7812 70.2188C90.8438 70.2188 92.3125 70.7812 93.1875 71.9062C94.0938 73 94.6406 74.4219 94.8281 76.1719C95.0469 77.8906 95.1562 79.7188 95.1562 81.6562H95.9062C96.7188 78.4688 98.0312 75.7656 99.8438 73.5469C101.656 71.3281 103.656 70.2188 105.844 70.2188C108.25 70.2188 109.828 70.7656 110.578 71.8594C111.359 72.9531 111.75 74.7188 111.75 77.1562ZM134.531 109.219C134.531 111.875 133.859 113.844 132.516 115.125C131.172 116.375 129.281 117 126.844 117C121.656 117 119.062 114.406 119.062 109.219C119.062 106.531 119.734 104.578 121.078 103.359C122.422 102.141 124.344 101.531 126.844 101.531C129.438 101.531 131.359 102.141 132.609 103.359C133.891 104.578 134.531 106.531 134.531 109.219ZM154.5 51.375H172.781C174.656 51.375 176.406 51.5312 178.031 51.8438C179.688 52.1562 181.016 52.8125 182.016 53.8125C183.047 54.7812 183.562 56.2812 183.562 58.3125C183.562 60.3438 183.047 61.8594 182.016 62.8594C181.016 63.8281 179.688 64.4688 178.031 64.7812C176.406 65.0938 174.656 65.25 172.781 65.25H161.625V77.4375H167.531C169.406 77.4375 171.156 77.5781 172.781 77.8594C174.438 78.1094 175.766 78.7344 176.766 79.7344C177.797 80.7031 178.312 82.25 178.312 84.375C178.312 86.5 177.812 88.0625 176.812 89.0625C175.812 90.0312 174.484 90.6562 172.828 90.9375C171.203 91.1875 169.438 91.3125 167.531 91.3125H161.625V106.219C161.625 108.25 161.5 110.078 161.25 111.703C161 113.328 160.375 114.625 159.375 115.594C158.375 116.531 156.75 117 154.5 117C152.25 117 150.625 116.531 149.625 115.594C148.625 114.656 148 113.375 147.75 111.75C147.5 110.125 147.375 108.281 147.375 106.219V62.1562C147.375 60.125 147.5 58.2969 147.75 56.6719C148 55.0469 148.625 53.7656 149.625 52.8281C150.625 51.8594 152.25 51.375 154.5 51.375ZM206.344 58.5C206.344 60.9062 205.719 62.7031 204.469 63.8906C203.219 65.0469 201.469 65.625 199.219 65.625C196.969 65.625 195.219 65.0469 193.969 63.8906C192.719 62.7031 192.094 60.9062 192.094 58.5C192.094 56 192.719 54.1875 193.969 53.0625C195.219 51.9375 196.969 51.375 199.219 51.375C201.625 51.375 203.406 51.9375 204.562 53.0625C205.75 54.1875 206.344 56 206.344 58.5ZM192 106.5V80.625C192 78.75 192.156 77.0156 192.469 75.4219C192.812 73.8281 193.484 72.5469 194.484 71.5781C195.516 70.6094 197.062 70.125 199.125 70.125C201.188 70.125 202.719 70.6094 203.719 71.5781C204.75 72.5469 205.422 73.8281 205.734 75.4219C206.078 77.0156 206.25 78.75 206.25 80.625V106.5C206.25 108.406 206.078 110.156 205.734 111.75C205.422 113.344 204.75 114.625 203.719 115.594C202.719 116.531 201.188 117 199.125 117C197.062 117 195.516 116.531 194.484 115.594C193.484 114.625 192.812 113.344 192.469 111.75C192.156 110.156 192 108.406 192 106.5ZM232.219 82.4062C232.219 83.6875 233.031 84.8125 234.656 85.7812C236.281 86.7188 238 87.625 239.812 88.5C242.031 89.5625 244.172 90.7344 246.234 92.0156C248.297 93.2969 249.984 94.8281 251.297 96.6094C252.641 98.3906 253.312 100.625 253.312 103.312C253.312 105.125 253.047 106.781 252.516 108.281C251.391 111.094 249.609 113.203 247.172 114.609C246.578 114.953 245.953 115.266 245.297 115.547C244.672 115.797 244.031 116.031 243.375 116.25C242.031 116.656 240.672 116.938 239.297 117.094C237.922 117.281 236.625 117.375 235.406 117.375C232.938 117.375 230.844 117.172 229.125 116.766C227.344 116.359 225.812 115.828 224.531 115.172C223.25 114.484 222.203 113.703 221.391 112.828C220.234 111.641 219.406 110.328 218.906 108.891C218.406 107.453 218.156 106.094 218.156 104.812C218.156 101.188 220.281 99.375 224.531 99.375C226.094 99.375 227.375 99.7969 228.375 100.641C229.375 101.484 229.906 102.844 229.969 104.719C230.031 105.906 230.625 106.703 231.75 107.109C232.875 107.516 234.062 107.719 235.312 107.719C236.531 107.719 237.516 107.406 238.266 106.781C239.047 106.125 239.438 105.281 239.438 104.25C239.438 103.031 238.984 101.938 238.078 100.969C237.172 100 236.016 99.1094 234.609 98.2969C233.234 97.4844 231.844 96.6875 230.438 95.9062C228.5 94.875 226.609 93.7656 224.766 92.5781C222.922 91.3594 221.406 89.9688 220.219 88.4062C219.031 86.8125 218.438 84.9375 218.438 82.7812C218.438 80.3438 218.828 78.3125 219.609 76.6875C220.422 75.0312 221.594 73.6875 223.125 72.6562C224.656 71.6562 226.516 70.9375 228.703 70.5C230.922 70.0625 233.438 69.8125 236.25 69.75H237C239.469 69.75 241.625 69.9688 243.469 70.4062C245.219 70.8438 246.672 71.4219 247.828 72.1406C249.016 72.8281 249.953 73.6094 250.641 74.4844C251.578 75.7031 252.172 76.9531 252.422 78.2344C252.703 79.4844 252.844 80.6562 252.844 81.75C252.844 83.5938 252.156 84.8438 250.781 85.5C249.438 86.125 247.844 86.4688 246 86.5312C244.625 86.5312 243.453 86.125 242.484 85.3125C241.516 84.4688 241.031 83.5625 241.031 82.5938C240.969 81.4062 240.484 80.5 239.578 79.875C238.703 79.25 237.625 78.9375 236.344 78.9375C235.219 78.9375 234.25 79.2031 233.438 79.7344C232.625 80.2344 232.219 81.125 232.219 82.4062ZM301.594 86.9062V106.406C301.594 108.312 301.422 110.078 301.078 111.703C300.766 113.297 300.094 114.578 299.062 115.547C298.062 116.516 296.531 117 294.469 117C292.406 117 290.844 116.516 289.781 115.547C288.75 114.578 288.047 113.297 287.672 111.703C287.328 110.078 287.156 108.312 287.156 106.406V87.9375C287.156 86.1875 286.938 84.6406 286.5 83.2969C286.062 81.9531 284.906 81.2812 283.031 81.2812C281.781 81.2812 280.766 81.6875 279.984 82.5C279.203 83.3125 278.594 84.4531 278.156 85.9219C277.688 87.3594 277.359 89.0781 277.172 91.0781C277.016 93.0781 276.938 95.2188 276.938 97.5V106.406C276.938 108.312 276.766 110.078 276.422 111.703C276.078 113.297 275.391 114.578 274.359 115.547C273.328 116.516 271.75 117 269.625 117C267.562 117 266.016 116.516 264.984 115.547C263.984 114.578 263.312 113.297 262.969 111.703C262.656 110.078 262.5 108.312 262.5 106.406V61.9688C262.5 60.0312 262.656 58.2656 262.969 56.6719C263.312 55.0781 263.984 53.7969 264.984 52.8281C266.016 51.8594 267.562 51.375 269.625 51.375C271.75 51.375 273.328 51.8594 274.359 52.8281C275.391 53.7969 276.078 55.0781 276.422 56.6719C276.766 58.2656 276.938 60.0312 276.938 61.9688V78C277.562 75.9688 278.719 74.1562 280.406 72.5625C282.094 70.9375 284.344 70.125 287.156 70.125C288.875 70.125 290.609 70.4219 292.359 71.0156C294.109 71.5781 295.656 72.5156 297 73.8281C298.375 75.1406 299.484 76.875 300.328 79.0312C301.172 81.1562 301.594 83.7812 301.594 86.9062Z" fill="white"/>
</g>
<path d="M19.057 117.186C19.1746 118.023 18.5997 118.872 17.6636 119.004L10.5153 120.008C9.66426 120.128 8.80426 119.566 8.67487 118.645L8.39257 116.637C8.27494 115.8 8.93497 114.939 9.78596 114.819L16.9343 113.815C17.7853 113.695 18.6453 114.257 18.7747 115.178L19.057 117.186ZM48.0641 113.024C48.1347 113.526 47.7562 113.921 47.3307 113.981L43.5013 114.519C42.9907 114.591 42.5914 114.22 42.5326 113.802L42.3797 112.714C42.3091 112.211 42.6876 111.817 43.1131 111.757L46.9425 111.219C47.4531 111.147 47.8524 111.518 47.9112 111.936L48.0641 113.024ZM54.0608 137.786C54.3666 139.963 52.8266 141.971 50.614 142.282L11.213 147.82C9.00043 148.131 6.96633 146.624 6.6605 144.448L6.49582 143.276L53.8961 136.615L54.0608 137.786Z" fill="#212528"/>
<path d="M3.48179 122.448C3.17596 120.272 4.71603 118.263 6.92861 117.952L46.3296 112.415C48.5422 112.104 50.5763 113.61 50.8821 115.786L51.0468 116.958L3.64647 123.62L3.48179 122.448Z" fill="#51575B"/>
<path d="M3.62292 123.452L51.0232 116.791L53.9169 137.38L6.51657 144.042L3.62292 123.452Z" fill="#3E4347"/>
<path d="M43.8949 116.085L20.1522 119.422L20.7353 106.282C20.7996 105.505 21.6679 104.273 22.2283 103.938C25.6641 101.834 33.8336 100.685 37.6313 101.773C38.2623 101.941 39.4482 102.969 39.7125 103.615L43.8949 116.085Z" fill="#51575B"/>
<path d="M43.8473 123.774L22.4023 126.787L23.0359 115.859C23.1238 115.249 23.9187 114.113 24.4058 113.874C27.4513 112.08 34.855 111.04 38.3621 111.913C38.9079 112.092 39.9734 112.881 40.226 113.443L43.8473 123.774Z" fill="#3E4347"/>
<path d="M50.2022 128.855C51.449 137.727 45.1421 145.953 36.1215 147.221C27.101 148.489 18.7709 142.319 17.524 133.448C16.2772 124.576 22.5841 116.349 31.6046 115.081C40.6369 113.897 48.9671 120.067 50.2022 128.855Z" fill="#788287"/>
<path d="M48.4151 129.106C49.5208 136.974 43.9472 144.243 35.9479 145.368C27.9485 146.492 20.587 141.04 19.4813 133.172C18.3756 125.305 23.9492 118.035 31.9485 116.911C39.9479 115.787 47.3094 121.239 48.4151 129.106Z" fill="#212528"/>
<path d="M35.5715 142.689C42.0573 141.778 46.5884 135.868 45.6919 129.489C44.7954 123.11 38.8108 118.678 32.3249 119.589C25.8391 120.501 21.308 126.411 22.2045 132.79C23.101 139.169 29.0856 143.601 35.5715 142.689Z" fill="#3E4347"/>
<path d="M34.8304 137.417C38.3553 136.921 40.8179 133.709 40.3307 130.242C39.8434 126.775 36.5909 124.367 33.066 124.862C29.5411 125.357 27.0785 128.569 27.5658 132.036C28.053 135.503 31.3055 137.912 34.8304 137.417Z" fill="#212528"/>
<path opacity="0.5" d="M41.8492 124.993C42.1315 127.002 40.7381 128.819 38.6958 129.106C36.6534 129.393 34.813 128.03 34.5307 126.022C34.2484 124.013 35.6418 122.196 37.6842 121.909C39.7265 121.621 41.5787 123.068 41.8492 124.993Z" fill="#F5F5F5"/>
<path opacity="0.5" d="M32.2857 135.982C33.5547 135.803 34.4412 134.647 34.2658 133.399C34.0904 132.151 32.9195 131.284 31.6505 131.462C30.3815 131.641 29.495 132.797 29.6704 134.045C29.8458 135.293 31.0167 136.16 32.2857 135.982Z" fill="#F5F5F5"/>
<path opacity="0.5" d="M28.6362 139.653C29.3881 139.547 29.9135 138.862 29.8095 138.122C29.7056 137.383 29.0117 136.869 28.2598 136.974C27.5078 137.08 26.9824 137.765 27.0864 138.505C27.1903 139.244 27.8842 139.758 28.6362 139.653Z" fill="#F5F5F5"/>
<path d="M17.2058 139.211C17.3235 140.048 16.7485 140.897 15.8124 141.028L8.9194 141.997C8.06841 142.117 7.20841 141.555 7.07902 140.634L5.09111 126.489C4.97348 125.652 5.54841 124.803 6.4845 124.672L13.3775 123.703C14.2285 123.583 15.0885 124.145 15.2179 125.066L17.2058 139.211Z" fill="#636C72"/>
<path d="M11.1352 122.567C12.4512 122.382 13.3705 121.183 13.1886 119.889C13.0067 118.594 11.7925 117.695 10.4765 117.88C9.16053 118.065 8.24118 119.264 8.42308 120.559C8.60498 121.853 9.81924 122.752 11.1352 122.567Z" fill="#212528"/>
<path d="M37.7033 107.226C37.821 108.063 37.2225 108.744 36.4566 108.852L25.3086 110.419C24.4576 110.538 23.7678 109.952 23.6619 109.199L23.4502 107.692C23.3326 106.856 23.931 106.174 24.6969 106.066L35.8449 104.5C36.6959 104.38 37.3857 104.966 37.4916 105.719L37.7033 107.226Z" fill="white"/>
<path d="M34.4661 105.803L43.7487 97.7557L41.5354 95.5916L34.4661 105.803ZM46.8152 107.225L46.4153 104.38L36.2186 107.776L46.8152 107.225ZM34.8907 92.7701L31.4016 93.2604L31.2351 105.66L34.8907 92.7701ZM26.8922 106.867L16.9417 99.048L15.3256 101.75L26.8922 106.867ZM25.3596 94.1096L21.7854 94.6119L29.3629 105.923L25.3596 94.1096ZM14.2477 108.9L14.6477 111.746L25.4961 109.283L14.2477 108.9Z" fill="#FFCE31"/>
<path d="M74.3965 132.199L71.4668 137.395V140.793C71.4668 141.19 71.4342 141.558 71.3691 141.896C71.304 142.229 71.1673 142.495 70.959 142.697C70.7572 142.899 70.4382 143 70.002 143C69.5658 143 69.2402 142.899 69.0254 142.697C68.8171 142.495 68.6803 142.229 68.6152 141.896C68.5501 141.558 68.5176 141.19 68.5176 140.793V137.395L65.6074 132.199C65.4512 131.926 65.3014 131.659 65.1582 131.398C65.015 131.132 64.9434 130.865 64.9434 130.598C64.9434 130.422 64.9922 130.246 65.0898 130.07C65.194 129.888 65.3796 129.719 65.6465 129.562C65.9395 129.406 66.2129 129.328 66.4668 129.328C66.8509 129.328 67.1699 129.488 67.4238 129.807C67.6842 130.119 67.8991 130.461 68.0684 130.832L69.8457 134.562H70.1582L71.9355 130.832C72.1048 130.461 72.3164 130.119 72.5703 129.807C72.8307 129.488 73.153 129.328 73.5371 129.328C73.7845 129.328 74.0579 129.406 74.3574 129.562C74.6113 129.719 74.7904 129.888 74.8945 130.07C75.0052 130.246 75.0605 130.422 75.0605 130.598C75.0605 130.721 75.0085 130.91 74.9043 131.164C74.8522 131.294 74.7839 131.447 74.6992 131.623C74.6146 131.799 74.5137 131.991 74.3965 132.199ZM74.2012 139.328V136.906C74.2012 136.301 74.2826 135.793 74.4453 135.383C74.6081 134.966 74.8164 134.618 75.0703 134.338C75.3307 134.058 75.6204 133.84 75.9395 133.684C76.2454 133.527 76.5547 133.41 76.8672 133.332C77.1732 133.254 77.4564 133.205 77.7168 133.186C77.9837 133.166 78.1921 133.156 78.3418 133.156C78.4915 133.156 78.6966 133.166 78.957 133.186C79.2174 133.205 79.4974 133.254 79.7969 133.332C80.0964 133.41 80.3958 133.527 80.6953 133.684C81.0013 133.84 81.2747 134.058 81.5156 134.338C81.763 134.618 81.9616 134.966 82.1113 135.383C82.2676 135.799 82.3457 136.307 82.3457 136.906V139.328C82.3457 139.921 82.2676 140.428 82.1113 140.852C81.9551 141.268 81.7565 141.617 81.5156 141.896C81.2747 142.176 81.0013 142.395 80.6953 142.551C80.3958 142.707 80.0964 142.824 79.7969 142.902C79.4974 142.98 79.2174 143.029 78.957 143.049C78.6966 143.068 78.4915 143.078 78.3418 143.078C78.1986 143.078 77.9935 143.068 77.7266 143.049C77.4661 143.029 77.1797 142.98 76.8672 142.902C76.5612 142.824 76.252 142.707 75.9395 142.551C75.6204 142.395 75.334 142.176 75.0801 141.896C74.8197 141.617 74.6081 141.268 74.4453 140.852C74.2826 140.435 74.2012 139.927 74.2012 139.328ZM77.209 136.477V140.012C77.222 140.207 77.2676 140.373 77.3457 140.51C77.4173 140.64 77.528 140.757 77.6777 140.861C77.834 140.959 78.0553 141.008 78.3418 141.008C78.6152 141.008 78.8236 140.959 78.9668 140.861C79.1165 140.757 79.2272 140.64 79.2988 140.51C79.3835 140.354 79.429 140.188 79.4355 140.012V136.477C79.429 136.294 79.3835 136.115 79.2988 135.939C79.2272 135.809 79.1165 135.689 78.9668 135.578C78.8236 135.461 78.6152 135.402 78.3418 135.402C78.0553 135.402 77.834 135.461 77.6777 135.578C77.528 135.689 77.4173 135.809 77.3457 135.939C77.2676 136.089 77.222 136.268 77.209 136.477ZM84.2598 139.523V135.461C84.2598 135.057 84.2956 134.689 84.3672 134.357C84.4453 134.019 84.5918 133.749 84.8066 133.547C85.028 133.339 85.3535 133.234 85.7832 133.234C86.2129 133.234 86.5319 133.335 86.7402 133.537C86.9551 133.739 87.0951 134.009 87.1602 134.348C87.2318 134.686 87.2676 135.057 87.2676 135.461V139.27C87.2676 139.66 87.3164 139.999 87.4141 140.285C87.5117 140.572 87.7493 140.715 88.127 140.715C88.3874 140.715 88.599 140.627 88.7617 140.451C88.931 140.275 89.0645 140.035 89.1621 139.729C89.2533 139.423 89.3151 139.064 89.3477 138.654C89.3802 138.238 89.3965 137.792 89.3965 137.316V135.461C89.3965 135.057 89.4323 134.689 89.5039 134.357C89.582 134.019 89.7285 133.749 89.9434 133.547C90.1647 133.339 90.4902 133.234 90.9199 133.234C91.3496 133.234 91.6686 133.335 91.877 133.537C92.0918 133.739 92.2318 134.009 92.2969 134.348C92.3685 134.686 92.4043 135.057 92.4043 135.461V140.793C92.4043 141.197 92.375 141.568 92.3164 141.906C92.2643 142.238 92.1341 142.505 91.9258 142.707C91.7174 142.902 91.3822 143 90.9199 143C90.4967 143 90.1745 142.919 89.9531 142.756C89.7383 142.587 89.5918 142.378 89.5137 142.131C89.4355 141.877 89.3965 141.62 89.3965 141.359C89.2793 141.789 89.0417 142.17 88.6836 142.502C88.3255 142.834 87.8535 143 87.2676 143C86.9095 143 86.5514 142.941 86.1934 142.824C85.8353 142.707 85.513 142.512 85.2266 142.238C84.9401 141.965 84.7057 141.607 84.5234 141.164C84.3477 140.721 84.2598 140.174 84.2598 139.523ZM101.135 134.699C101.135 135.676 100.653 136.164 99.6895 136.164C99.5462 136.164 99.377 136.184 99.1816 136.223C98.9928 136.255 98.804 136.327 98.6152 136.438C98.472 136.522 98.3418 136.633 98.2246 136.77C98.1074 136.913 98.013 137.092 97.9414 137.307C97.8698 137.521 97.834 137.779 97.834 138.078V140.871C97.834 141.255 97.7982 141.61 97.7266 141.936C97.6549 142.255 97.5117 142.512 97.2969 142.707C97.0885 142.902 96.7728 143 96.3496 143C95.9395 143 95.6302 142.902 95.4219 142.707C95.2135 142.512 95.0736 142.251 95.002 141.926C94.9368 141.6 94.9043 141.249 94.9043 140.871V135.402C94.9043 135.005 94.9368 134.647 95.002 134.328C95.0736 134.003 95.2135 133.742 95.4219 133.547C95.6302 133.352 95.9395 133.254 96.3496 133.254C96.7793 133.254 97.0853 133.371 97.2676 133.605C97.4564 133.833 97.5703 134.13 97.6094 134.494C97.6549 134.852 97.6777 135.233 97.6777 135.637H97.834C98.0033 134.973 98.2767 134.41 98.6543 133.947C99.0319 133.485 99.4486 133.254 99.9043 133.254C100.406 133.254 100.734 133.368 100.891 133.596C101.053 133.824 101.135 134.191 101.135 134.699ZM115.119 131.555V140.793C115.119 141.197 115.09 141.568 115.031 141.906C114.973 142.238 114.839 142.505 114.631 142.707C114.429 142.902 114.104 143 113.654 143C113.231 143 112.912 142.919 112.697 142.756C112.482 142.587 112.336 142.378 112.258 142.131C112.186 141.877 112.15 141.62 112.15 141.359C112.02 141.789 111.786 142.17 111.447 142.502C111.109 142.834 110.64 143 110.041 143C109.683 143 109.325 142.941 108.967 142.824C108.609 142.707 108.286 142.512 108 142.238C107.714 141.965 107.479 141.61 107.297 141.174C107.121 140.731 107.033 140.188 107.033 139.543V136.711C107.033 136.06 107.121 135.516 107.297 135.08C107.479 134.637 107.714 134.279 108 134.006C108.286 133.739 108.609 133.547 108.967 133.43C109.325 133.312 109.683 133.254 110.041 133.254C110.64 133.254 111.109 133.417 111.447 133.742C111.786 134.068 112.02 134.452 112.15 134.895V131.555C112.15 131.145 112.183 130.773 112.248 130.441C112.32 130.103 112.463 129.833 112.678 129.631C112.893 129.429 113.218 129.328 113.654 129.328C114.077 129.328 114.393 129.429 114.602 129.631C114.81 129.833 114.947 130.103 115.012 130.441C115.083 130.78 115.119 131.151 115.119 131.555ZM110.041 136.926V139.289C110.041 139.667 110.087 139.999 110.178 140.285C110.269 140.572 110.51 140.715 110.9 140.715C111.382 140.715 111.714 140.48 111.896 140.012C111.988 139.777 112.049 139.481 112.082 139.123C112.121 138.758 112.144 138.326 112.15 137.824C112.15 137.518 112.115 137.189 112.043 136.838C111.971 136.48 111.844 136.174 111.662 135.92C111.48 135.666 111.226 135.539 110.9 135.539C110.51 135.539 110.269 135.679 110.178 135.959C110.087 136.239 110.041 136.561 110.041 136.926ZM120.686 130.812C120.686 131.314 120.555 131.688 120.295 131.936C120.035 132.176 119.67 132.297 119.201 132.297C118.732 132.297 118.368 132.176 118.107 131.936C117.847 131.688 117.717 131.314 117.717 130.812C117.717 130.292 117.847 129.914 118.107 129.68C118.368 129.445 118.732 129.328 119.201 129.328C119.702 129.328 120.074 129.445 120.314 129.68C120.562 129.914 120.686 130.292 120.686 130.812ZM117.697 140.812V135.422C117.697 135.031 117.73 134.67 117.795 134.338C117.867 134.006 118.007 133.739 118.215 133.537C118.43 133.335 118.752 133.234 119.182 133.234C119.611 133.234 119.93 133.335 120.139 133.537C120.354 133.739 120.493 134.006 120.559 134.338C120.63 134.67 120.666 135.031 120.666 135.422V140.812C120.666 141.21 120.63 141.574 120.559 141.906C120.493 142.238 120.354 142.505 120.139 142.707C119.93 142.902 119.611 143 119.182 143C118.752 143 118.43 142.902 118.215 142.707C118.007 142.505 117.867 142.238 117.795 141.906C117.73 141.574 117.697 141.21 117.697 140.812ZM131.311 135.441V143.293C131.311 143.879 131.232 144.374 131.076 144.777C130.913 145.181 130.708 145.516 130.461 145.783C130.22 146.05 129.947 146.258 129.641 146.408C129.328 146.558 129.032 146.672 128.752 146.75C128.459 146.822 128.192 146.864 127.951 146.877C127.71 146.896 127.528 146.906 127.404 146.906C126.942 146.906 126.48 146.874 126.018 146.809C125.562 146.743 125.142 146.623 124.758 146.447C124.38 146.271 124.064 146.034 123.811 145.734C123.557 145.435 123.413 145.051 123.381 144.582C123.381 144.348 123.479 144.146 123.674 143.977C123.876 143.807 124.234 143.723 124.748 143.723C125.321 143.723 125.699 143.781 125.881 143.898C126.063 144.022 126.219 144.257 126.35 144.602C126.447 144.849 126.76 144.973 127.287 144.973C127.58 144.973 127.801 144.895 127.951 144.738C128.107 144.582 128.212 144.39 128.264 144.162C128.316 143.941 128.342 143.736 128.342 143.547V141.359C128.212 141.796 127.977 142.18 127.639 142.512C127.3 142.837 126.831 143 126.232 143C125.874 143 125.516 142.941 125.158 142.824C124.8 142.707 124.478 142.512 124.191 142.238C123.898 141.971 123.661 141.617 123.479 141.174C123.296 140.731 123.205 140.181 123.205 139.523V136.691C123.205 136.047 123.296 135.507 123.479 135.07C123.661 134.628 123.898 134.27 124.191 133.996C124.478 133.723 124.8 133.527 125.158 133.41C125.516 133.293 125.874 133.234 126.232 133.234C126.831 133.234 127.3 133.4 127.639 133.732C127.977 134.064 128.212 134.445 128.342 134.875C128.342 134.615 128.378 134.361 128.449 134.113C128.527 133.859 128.674 133.651 128.889 133.488C129.104 133.319 129.423 133.234 129.846 133.234C130.295 133.234 130.62 133.335 130.822 133.537C131.031 133.732 131.164 133.999 131.223 134.338C131.281 134.67 131.311 135.038 131.311 135.441ZM126.232 136.945V139.309C126.232 139.68 126.278 140.008 126.369 140.295C126.46 140.575 126.701 140.715 127.092 140.715C127.417 140.715 127.668 140.588 127.844 140.334C128.026 140.08 128.153 139.774 128.225 139.416C128.303 139.051 128.342 138.716 128.342 138.41C128.335 137.915 128.312 137.486 128.273 137.121C128.241 136.757 128.179 136.454 128.088 136.213C127.906 135.751 127.574 135.52 127.092 135.52C126.701 135.52 126.46 135.663 126.369 135.949C126.278 136.229 126.232 136.561 126.232 136.945ZM136.975 130.812C136.975 131.314 136.844 131.688 136.584 131.936C136.324 132.176 135.959 132.297 135.49 132.297C135.021 132.297 134.657 132.176 134.396 131.936C134.136 131.688 134.006 131.314 134.006 130.812C134.006 130.292 134.136 129.914 134.396 129.68C134.657 129.445 135.021 129.328 135.49 129.328C135.992 129.328 136.363 129.445 136.604 129.68C136.851 129.914 136.975 130.292 136.975 130.812ZM133.986 140.812V135.422C133.986 135.031 134.019 134.67 134.084 134.338C134.156 134.006 134.296 133.739 134.504 133.537C134.719 133.335 135.041 133.234 135.471 133.234C135.9 133.234 136.219 133.335 136.428 133.537C136.643 133.739 136.783 134.006 136.848 134.338C136.919 134.67 136.955 135.031 136.955 135.422V140.812C136.955 141.21 136.919 141.574 136.848 141.906C136.783 142.238 136.643 142.505 136.428 142.707C136.219 142.902 135.9 143 135.471 143C135.041 143 134.719 142.902 134.504 142.707C134.296 142.505 134.156 142.238 134.084 141.906C134.019 141.574 133.986 141.21 133.986 140.812ZM140.568 133.234H141.115V131.516C141.115 131.125 141.148 130.764 141.213 130.432C141.285 130.1 141.428 129.833 141.643 129.631C141.857 129.429 142.176 129.328 142.6 129.328C143.023 129.328 143.339 129.429 143.547 129.631C143.755 129.833 143.892 130.1 143.957 130.432C144.029 130.757 144.064 131.118 144.064 131.516V133.234H144.865C145.269 133.234 145.604 133.299 145.871 133.43C146.138 133.56 146.271 133.885 146.271 134.406C146.271 134.901 146.138 135.22 145.871 135.363C145.604 135.507 145.269 135.578 144.865 135.578H144.064V138.996C144.064 139.309 144.11 139.595 144.201 139.855C144.299 140.116 144.546 140.246 144.943 140.246C145.419 140.246 145.757 140.331 145.959 140.5C146.167 140.669 146.271 141.001 146.271 141.496C146.271 142.017 146.047 142.398 145.598 142.639C145.155 142.88 144.644 143 144.064 143C143.602 143 143.208 142.951 142.883 142.854C142.251 142.671 141.805 142.316 141.545 141.789C141.415 141.535 141.32 141.255 141.262 140.949C141.197 140.637 141.154 140.301 141.135 139.943C141.122 139.579 141.115 139.198 141.115 138.801V135.578H140.568C140.171 135.578 139.839 135.507 139.572 135.363C139.312 135.22 139.182 134.901 139.182 134.406C139.182 133.885 139.312 133.56 139.572 133.43C139.839 133.299 140.171 133.234 140.568 133.234ZM155.998 135.461V140.793C155.998 141.197 155.969 141.568 155.91 141.906C155.852 142.238 155.718 142.505 155.51 142.707C155.308 142.902 154.982 143 154.533 143C154.11 143 153.791 142.919 153.576 142.756C153.361 142.587 153.215 142.378 153.137 142.131C153.065 141.877 153.029 141.62 153.029 141.359C152.899 141.789 152.665 142.17 152.326 142.502C151.988 142.834 151.519 143 150.92 143C150.562 143 150.204 142.941 149.846 142.824C149.488 142.707 149.165 142.512 148.879 142.238C148.592 141.965 148.358 141.61 148.176 141.174C148 140.731 147.912 140.188 147.912 139.543V136.711C147.912 136.06 148 135.516 148.176 135.08C148.358 134.637 148.592 134.279 148.879 134.006C149.165 133.739 149.488 133.547 149.846 133.43C150.204 133.312 150.562 133.254 150.92 133.254C151.519 133.254 151.988 133.417 152.326 133.742C152.665 134.068 152.899 134.452 153.029 134.895C153.029 134.296 153.176 133.869 153.469 133.615C153.762 133.361 154.117 133.234 154.533 133.234C154.956 133.234 155.272 133.335 155.48 133.537C155.689 133.739 155.826 134.009 155.891 134.348C155.962 134.686 155.998 135.057 155.998 135.461ZM150.92 136.926V139.289C150.92 139.667 150.965 139.999 151.057 140.285C151.148 140.572 151.389 140.715 151.779 140.715C152.261 140.715 152.593 140.48 152.775 140.012C152.867 139.777 152.928 139.481 152.961 139.123C153 138.758 153.023 138.326 153.029 137.824C153.029 137.518 152.993 137.189 152.922 136.838C152.85 136.48 152.723 136.174 152.541 135.92C152.359 135.666 152.105 135.539 151.779 135.539C151.389 135.539 151.148 135.679 151.057 135.959C150.965 136.239 150.92 136.561 150.92 136.926ZM158.42 140.812V131.496C158.42 131.099 158.452 130.738 158.518 130.412C158.589 130.087 158.732 129.826 158.947 129.631C159.162 129.429 159.481 129.328 159.904 129.328C160.334 129.328 160.653 129.426 160.861 129.621C161.076 129.816 161.216 130.08 161.281 130.412C161.353 130.738 161.389 131.099 161.389 131.496V140.812C161.389 141.21 161.353 141.574 161.281 141.906C161.216 142.238 161.076 142.505 160.861 142.707C160.653 142.902 160.334 143 159.904 143C159.481 143 159.162 142.902 158.947 142.707C158.732 142.505 158.589 142.238 158.518 141.906C158.452 141.574 158.42 141.21 158.42 140.812ZM176.564 135.461V140.793C176.564 141.197 176.535 141.568 176.477 141.906C176.418 142.238 176.285 142.505 176.076 142.707C175.874 142.902 175.549 143 175.1 143C174.676 143 174.357 142.919 174.143 142.756C173.928 142.587 173.781 142.378 173.703 142.131C173.632 141.877 173.596 141.62 173.596 141.359C173.465 141.789 173.231 142.17 172.893 142.502C172.554 142.834 172.085 143 171.486 143C171.128 143 170.77 142.941 170.412 142.824C170.054 142.707 169.732 142.512 169.445 142.238C169.159 141.965 168.924 141.61 168.742 141.174C168.566 140.731 168.479 140.188 168.479 139.543V136.711C168.479 136.06 168.566 135.516 168.742 135.08C168.924 134.637 169.159 134.279 169.445 134.006C169.732 133.739 170.054 133.547 170.412 133.43C170.77 133.312 171.128 133.254 171.486 133.254C172.085 133.254 172.554 133.417 172.893 133.742C173.231 134.068 173.465 134.452 173.596 134.895C173.596 134.296 173.742 133.869 174.035 133.615C174.328 133.361 174.683 133.234 175.1 133.234C175.523 133.234 175.839 133.335 176.047 133.537C176.255 133.739 176.392 134.009 176.457 134.348C176.529 134.686 176.564 135.057 176.564 135.461ZM171.486 136.926V139.289C171.486 139.667 171.532 139.999 171.623 140.285C171.714 140.572 171.955 140.715 172.346 140.715C172.827 140.715 173.16 140.48 173.342 140.012C173.433 139.777 173.495 139.481 173.527 139.123C173.566 138.758 173.589 138.326 173.596 137.824C173.596 137.518 173.56 137.189 173.488 136.838C173.417 136.48 173.29 136.174 173.107 135.92C172.925 135.666 172.671 135.539 172.346 135.539C171.955 135.539 171.714 135.679 171.623 135.959C171.532 136.239 171.486 136.561 171.486 136.926ZM186.721 135.441V144.68C186.721 145.083 186.685 145.454 186.613 145.793C186.548 146.132 186.411 146.402 186.203 146.604C185.995 146.805 185.679 146.906 185.256 146.906C184.82 146.906 184.494 146.805 184.279 146.604C184.064 146.402 183.921 146.132 183.85 145.793C183.785 145.461 183.752 145.09 183.752 144.68V141.34C183.622 141.776 183.387 142.16 183.049 142.492C182.71 142.818 182.242 142.98 181.643 142.98C181.285 142.98 180.926 142.922 180.568 142.805C180.21 142.688 179.888 142.492 179.602 142.219C179.315 141.952 179.081 141.6 178.898 141.164C178.723 140.721 178.635 140.174 178.635 139.523V136.691C178.635 136.047 178.723 135.507 178.898 135.07C179.081 134.628 179.315 134.27 179.602 133.996C179.888 133.723 180.21 133.527 180.568 133.41C180.926 133.293 181.285 133.234 181.643 133.234C182.242 133.234 182.71 133.4 183.049 133.732C183.387 134.064 183.622 134.445 183.752 134.875C183.752 134.615 183.788 134.361 183.859 134.113C183.938 133.859 184.084 133.651 184.299 133.488C184.514 133.319 184.833 133.234 185.256 133.234C185.705 133.234 186.031 133.335 186.232 133.537C186.441 133.732 186.574 133.999 186.633 134.338C186.691 134.67 186.721 135.038 186.721 135.441ZM181.643 136.945V139.309C181.643 139.673 181.688 139.995 181.779 140.275C181.87 140.555 182.111 140.695 182.502 140.695C182.827 140.695 183.081 140.572 183.264 140.324C183.446 140.07 183.573 139.768 183.645 139.416C183.716 139.058 183.752 138.723 183.752 138.41C183.745 137.915 183.723 137.486 183.684 137.121C183.651 136.757 183.589 136.454 183.498 136.213C183.316 135.751 182.984 135.52 182.502 135.52C182.111 135.52 181.87 135.663 181.779 135.949C181.688 136.229 181.643 136.561 181.643 136.945ZM189.143 139.523V135.461C189.143 135.057 189.178 134.689 189.25 134.357C189.328 134.019 189.475 133.749 189.689 133.547C189.911 133.339 190.236 133.234 190.666 133.234C191.096 133.234 191.415 133.335 191.623 133.537C191.838 133.739 191.978 134.009 192.043 134.348C192.115 134.686 192.15 135.057 192.15 135.461V139.27C192.15 139.66 192.199 139.999 192.297 140.285C192.395 140.572 192.632 140.715 193.01 140.715C193.27 140.715 193.482 140.627 193.645 140.451C193.814 140.275 193.947 140.035 194.045 139.729C194.136 139.423 194.198 139.064 194.23 138.654C194.263 138.238 194.279 137.792 194.279 137.316V135.461C194.279 135.057 194.315 134.689 194.387 134.357C194.465 134.019 194.611 133.749 194.826 133.547C195.048 133.339 195.373 133.234 195.803 133.234C196.232 133.234 196.551 133.335 196.76 133.537C196.975 133.739 197.115 134.009 197.18 134.348C197.251 134.686 197.287 135.057 197.287 135.461V140.793C197.287 141.197 197.258 141.568 197.199 141.906C197.147 142.238 197.017 142.505 196.809 142.707C196.6 142.902 196.265 143 195.803 143C195.38 143 195.057 142.919 194.836 142.756C194.621 142.587 194.475 142.378 194.396 142.131C194.318 141.877 194.279 141.62 194.279 141.359C194.162 141.789 193.924 142.17 193.566 142.502C193.208 142.834 192.736 143 192.15 143C191.792 143 191.434 142.941 191.076 142.824C190.718 142.707 190.396 142.512 190.109 142.238C189.823 141.965 189.589 141.607 189.406 141.164C189.23 140.721 189.143 140.174 189.143 139.523ZM207.404 135.461V140.793C207.404 141.197 207.375 141.568 207.316 141.906C207.258 142.238 207.124 142.505 206.916 142.707C206.714 142.902 206.389 143 205.939 143C205.516 143 205.197 142.919 204.982 142.756C204.768 142.587 204.621 142.378 204.543 142.131C204.471 141.877 204.436 141.62 204.436 141.359C204.305 141.789 204.071 142.17 203.732 142.502C203.394 142.834 202.925 143 202.326 143C201.968 143 201.61 142.941 201.252 142.824C200.894 142.707 200.572 142.512 200.285 142.238C199.999 141.965 199.764 141.61 199.582 141.174C199.406 140.731 199.318 140.188 199.318 139.543V136.711C199.318 136.06 199.406 135.516 199.582 135.08C199.764 134.637 199.999 134.279 200.285 134.006C200.572 133.739 200.894 133.547 201.252 133.43C201.61 133.312 201.968 133.254 202.326 133.254C202.925 133.254 203.394 133.417 203.732 133.742C204.071 134.068 204.305 134.452 204.436 134.895C204.436 134.296 204.582 133.869 204.875 133.615C205.168 133.361 205.523 133.234 205.939 133.234C206.363 133.234 206.678 133.335 206.887 133.537C207.095 133.739 207.232 134.009 207.297 134.348C207.368 134.686 207.404 135.057 207.404 135.461ZM202.326 136.926V139.289C202.326 139.667 202.372 139.999 202.463 140.285C202.554 140.572 202.795 140.715 203.186 140.715C203.667 140.715 203.999 140.48 204.182 140.012C204.273 139.777 204.335 139.481 204.367 139.123C204.406 138.758 204.429 138.326 204.436 137.824C204.436 137.518 204.4 137.189 204.328 136.838C204.257 136.48 204.13 136.174 203.947 135.92C203.765 135.666 203.511 135.539 203.186 135.539C202.795 135.539 202.554 135.679 202.463 135.959C202.372 136.239 202.326 136.561 202.326 136.926ZM215.979 134.699C215.979 135.676 215.497 136.164 214.533 136.164C214.39 136.164 214.221 136.184 214.025 136.223C213.837 136.255 213.648 136.327 213.459 136.438C213.316 136.522 213.186 136.633 213.068 136.77C212.951 136.913 212.857 137.092 212.785 137.307C212.714 137.521 212.678 137.779 212.678 138.078V140.871C212.678 141.255 212.642 141.61 212.57 141.936C212.499 142.255 212.355 142.512 212.141 142.707C211.932 142.902 211.617 143 211.193 143C210.783 143 210.474 142.902 210.266 142.707C210.057 142.512 209.917 142.251 209.846 141.926C209.781 141.6 209.748 141.249 209.748 140.871V135.402C209.748 135.005 209.781 134.647 209.846 134.328C209.917 134.003 210.057 133.742 210.266 133.547C210.474 133.352 210.783 133.254 211.193 133.254C211.623 133.254 211.929 133.371 212.111 133.605C212.3 133.833 212.414 134.13 212.453 134.494C212.499 134.852 212.521 135.233 212.521 135.637H212.678C212.847 134.973 213.12 134.41 213.498 133.947C213.876 133.485 214.292 133.254 214.748 133.254C215.249 133.254 215.578 133.368 215.734 133.596C215.897 133.824 215.979 134.191 215.979 134.699ZM220.686 130.812C220.686 131.314 220.555 131.688 220.295 131.936C220.035 132.176 219.67 132.297 219.201 132.297C218.732 132.297 218.368 132.176 218.107 131.936C217.847 131.688 217.717 131.314 217.717 130.812C217.717 130.292 217.847 129.914 218.107 129.68C218.368 129.445 218.732 129.328 219.201 129.328C219.702 129.328 220.074 129.445 220.314 129.68C220.562 129.914 220.686 130.292 220.686 130.812ZM217.697 140.812V135.422C217.697 135.031 217.73 134.67 217.795 134.338C217.867 134.006 218.007 133.739 218.215 133.537C218.43 133.335 218.752 133.234 219.182 133.234C219.611 133.234 219.93 133.335 220.139 133.537C220.354 133.739 220.493 134.006 220.559 134.338C220.63 134.67 220.666 135.031 220.666 135.422V140.812C220.666 141.21 220.63 141.574 220.559 141.906C220.493 142.238 220.354 142.505 220.139 142.707C219.93 142.902 219.611 143 219.182 143C218.752 143 218.43 142.902 218.215 142.707C218.007 142.505 217.867 142.238 217.795 141.906C217.73 141.574 217.697 141.21 217.697 140.812ZM223.459 139.523V135.461C223.459 135.057 223.495 134.689 223.566 134.357C223.645 134.019 223.791 133.749 224.006 133.547C224.227 133.339 224.553 133.234 224.982 133.234C225.412 133.234 225.731 133.335 225.939 133.537C226.154 133.739 226.294 134.009 226.359 134.348C226.431 134.686 226.467 135.057 226.467 135.461V139.27C226.467 139.66 226.516 139.999 226.613 140.285C226.711 140.572 226.949 140.715 227.326 140.715C227.587 140.715 227.798 140.627 227.961 140.451C228.13 140.275 228.264 140.035 228.361 139.729C228.452 139.423 228.514 139.064 228.547 138.654C228.579 138.238 228.596 137.792 228.596 137.316V135.461C228.596 135.057 228.632 134.689 228.703 134.357C228.781 134.019 228.928 133.749 229.143 133.547C229.364 133.339 229.689 133.234 230.119 133.234C230.549 133.234 230.868 133.335 231.076 133.537C231.291 133.739 231.431 134.009 231.496 134.348C231.568 134.686 231.604 135.057 231.604 135.461V140.793C231.604 141.197 231.574 141.568 231.516 141.906C231.464 142.238 231.333 142.505 231.125 142.707C230.917 142.902 230.581 143 230.119 143C229.696 143 229.374 142.919 229.152 142.756C228.938 142.587 228.791 142.378 228.713 142.131C228.635 141.877 228.596 141.62 228.596 141.359C228.479 141.789 228.241 142.17 227.883 142.502C227.525 142.834 227.053 143 226.467 143C226.109 143 225.751 142.941 225.393 142.824C225.035 142.707 224.712 142.512 224.426 142.238C224.139 141.965 223.905 141.607 223.723 141.164C223.547 140.721 223.459 140.174 223.459 139.523ZM240.705 143C240.282 143 239.963 142.899 239.748 142.697C239.533 142.495 239.39 142.229 239.318 141.896C239.253 141.558 239.221 141.19 239.221 140.793V136.926C239.221 136.555 239.172 136.229 239.074 135.949C238.977 135.663 238.739 135.52 238.361 135.52C238.101 135.52 237.889 135.607 237.727 135.783C237.564 135.952 237.437 136.19 237.346 136.496C237.248 136.796 237.18 137.154 237.141 137.57C237.108 137.98 237.092 138.423 237.092 138.898V140.793C237.092 141.19 237.056 141.558 236.984 141.896C236.919 142.229 236.779 142.495 236.564 142.697C236.356 142.899 236.037 143 235.607 143C235.178 143 234.855 142.899 234.641 142.697C234.432 142.495 234.292 142.229 234.221 141.896C234.156 141.558 234.123 141.19 234.123 140.793V135.441C234.123 135.031 234.152 134.66 234.211 134.328C234.276 133.996 234.413 133.732 234.621 133.537C234.836 133.335 235.165 133.234 235.607 133.234C236.037 133.234 236.356 133.319 236.564 133.488C236.779 133.651 236.919 133.859 236.984 134.113C237.056 134.361 237.092 134.615 237.092 134.875C237.222 134.452 237.489 134.074 237.893 133.742C238.296 133.404 238.791 133.234 239.377 133.234C239.807 133.234 240.223 133.339 240.627 133.547C241.031 133.755 241.376 134.094 241.662 134.562C241.857 134.12 242.215 133.788 242.736 133.566C243.264 133.345 243.791 133.234 244.318 133.234C244.676 133.234 245.035 133.293 245.393 133.41C245.751 133.527 246.073 133.723 246.359 133.996C246.646 134.27 246.877 134.628 247.053 135.07C247.235 135.507 247.326 136.047 247.326 136.691V140.793C247.326 141.19 247.287 141.558 247.209 141.896C247.137 142.229 246.994 142.495 246.779 142.697C246.564 142.899 246.245 143 245.822 143C245.393 143 245.07 142.899 244.855 142.697C244.641 142.495 244.497 142.229 244.426 141.896C244.354 141.558 244.318 141.19 244.318 140.793V136.926C244.318 136.548 244.266 136.219 244.162 135.939C244.058 135.66 243.817 135.52 243.439 135.52C243.146 135.52 242.912 135.643 242.736 135.891C242.567 136.132 242.443 136.447 242.365 136.838C242.287 137.229 242.235 137.648 242.209 138.098V140.793C242.209 141.19 242.173 141.558 242.102 141.896C242.03 142.229 241.887 142.495 241.672 142.697C241.464 142.899 241.141 143 240.705 143ZM262.365 135.441V143.293C262.365 143.879 262.287 144.374 262.131 144.777C261.968 145.181 261.763 145.516 261.516 145.783C261.275 146.05 261.001 146.258 260.695 146.408C260.383 146.558 260.087 146.672 259.807 146.75C259.514 146.822 259.247 146.864 259.006 146.877C258.765 146.896 258.583 146.906 258.459 146.906C257.997 146.906 257.535 146.874 257.072 146.809C256.617 146.743 256.197 146.623 255.812 146.447C255.435 146.271 255.119 146.034 254.865 145.734C254.611 145.435 254.468 145.051 254.436 144.582C254.436 144.348 254.533 144.146 254.729 143.977C254.93 143.807 255.288 143.723 255.803 143.723C256.376 143.723 256.753 143.781 256.936 143.898C257.118 144.022 257.274 144.257 257.404 144.602C257.502 144.849 257.814 144.973 258.342 144.973C258.635 144.973 258.856 144.895 259.006 144.738C259.162 144.582 259.266 144.39 259.318 144.162C259.37 143.941 259.396 143.736 259.396 143.547V141.359C259.266 141.796 259.032 142.18 258.693 142.512C258.355 142.837 257.886 143 257.287 143C256.929 143 256.571 142.941 256.213 142.824C255.855 142.707 255.533 142.512 255.246 142.238C254.953 141.971 254.715 141.617 254.533 141.174C254.351 140.731 254.26 140.181 254.26 139.523V136.691C254.26 136.047 254.351 135.507 254.533 135.07C254.715 134.628 254.953 134.27 255.246 133.996C255.533 133.723 255.855 133.527 256.213 133.41C256.571 133.293 256.929 133.234 257.287 133.234C257.886 133.234 258.355 133.4 258.693 133.732C259.032 134.064 259.266 134.445 259.396 134.875C259.396 134.615 259.432 134.361 259.504 134.113C259.582 133.859 259.729 133.651 259.943 133.488C260.158 133.319 260.477 133.234 260.9 133.234C261.35 133.234 261.675 133.335 261.877 133.537C262.085 133.732 262.219 133.999 262.277 134.338C262.336 134.67 262.365 135.038 262.365 135.441ZM257.287 136.945V139.309C257.287 139.68 257.333 140.008 257.424 140.295C257.515 140.575 257.756 140.715 258.146 140.715C258.472 140.715 258.723 140.588 258.898 140.334C259.081 140.08 259.208 139.774 259.279 139.416C259.357 139.051 259.396 138.716 259.396 138.41C259.39 137.915 259.367 137.486 259.328 137.121C259.296 136.757 259.234 136.454 259.143 136.213C258.96 135.751 258.628 135.52 258.146 135.52C257.756 135.52 257.515 135.663 257.424 135.949C257.333 136.229 257.287 136.561 257.287 136.945ZM264.689 139.523V135.461C264.689 135.057 264.725 134.689 264.797 134.357C264.875 134.019 265.021 133.749 265.236 133.547C265.458 133.339 265.783 133.234 266.213 133.234C266.643 133.234 266.962 133.335 267.17 133.537C267.385 133.739 267.525 134.009 267.59 134.348C267.661 134.686 267.697 135.057 267.697 135.461V139.27C267.697 139.66 267.746 139.999 267.844 140.285C267.941 140.572 268.179 140.715 268.557 140.715C268.817 140.715 269.029 140.627 269.191 140.451C269.361 140.275 269.494 140.035 269.592 139.729C269.683 139.423 269.745 139.064 269.777 138.654C269.81 138.238 269.826 137.792 269.826 137.316V135.461C269.826 135.057 269.862 134.689 269.934 134.357C270.012 134.019 270.158 133.749 270.373 133.547C270.594 133.339 270.92 133.234 271.35 133.234C271.779 133.234 272.098 133.335 272.307 133.537C272.521 133.739 272.661 134.009 272.727 134.348C272.798 134.686 272.834 135.057 272.834 135.461V140.793C272.834 141.197 272.805 141.568 272.746 141.906C272.694 142.238 272.564 142.505 272.355 142.707C272.147 142.902 271.812 143 271.35 143C270.926 143 270.604 142.919 270.383 142.756C270.168 142.587 270.021 142.378 269.943 142.131C269.865 141.877 269.826 141.62 269.826 141.359C269.709 141.789 269.471 142.17 269.113 142.502C268.755 142.834 268.283 143 267.697 143C267.339 143 266.981 142.941 266.623 142.824C266.265 142.707 265.943 142.512 265.656 142.238C265.37 141.965 265.135 141.607 264.953 141.164C264.777 140.721 264.689 140.174 264.689 139.523ZM278.537 130.812C278.537 131.314 278.407 131.688 278.146 131.936C277.886 132.176 277.521 132.297 277.053 132.297C276.584 132.297 276.219 132.176 275.959 131.936C275.699 131.688 275.568 131.314 275.568 130.812C275.568 130.292 275.699 129.914 275.959 129.68C276.219 129.445 276.584 129.328 277.053 129.328C277.554 129.328 277.925 129.445 278.166 129.68C278.413 129.914 278.537 130.292 278.537 130.812ZM275.549 140.812V135.422C275.549 135.031 275.581 134.67 275.646 134.338C275.718 134.006 275.858 133.739 276.066 133.537C276.281 133.335 276.604 133.234 277.033 133.234C277.463 133.234 277.782 133.335 277.99 133.537C278.205 133.739 278.345 134.006 278.41 134.338C278.482 134.67 278.518 135.031 278.518 135.422V140.812C278.518 141.21 278.482 141.574 278.41 141.906C278.345 142.238 278.205 142.505 277.99 142.707C277.782 142.902 277.463 143 277.033 143C276.604 143 276.281 142.902 276.066 142.707C275.858 142.505 275.718 142.238 275.646 141.906C275.581 141.574 275.549 141.21 275.549 140.812ZM289.045 131.555V140.793C289.045 141.197 289.016 141.568 288.957 141.906C288.898 142.238 288.765 142.505 288.557 142.707C288.355 142.902 288.029 143 287.58 143C287.157 143 286.838 142.919 286.623 142.756C286.408 142.587 286.262 142.378 286.184 142.131C286.112 141.877 286.076 141.62 286.076 141.359C285.946 141.789 285.712 142.17 285.373 142.502C285.035 142.834 284.566 143 283.967 143C283.609 143 283.251 142.941 282.893 142.824C282.535 142.707 282.212 142.512 281.926 142.238C281.639 141.965 281.405 141.61 281.223 141.174C281.047 140.731 280.959 140.188 280.959 139.543V136.711C280.959 136.06 281.047 135.516 281.223 135.08C281.405 134.637 281.639 134.279 281.926 134.006C282.212 133.739 282.535 133.547 282.893 133.43C283.251 133.312 283.609 133.254 283.967 133.254C284.566 133.254 285.035 133.417 285.373 133.742C285.712 134.068 285.946 134.452 286.076 134.895V131.555C286.076 131.145 286.109 130.773 286.174 130.441C286.245 130.103 286.389 129.833 286.604 129.631C286.818 129.429 287.144 129.328 287.58 129.328C288.003 129.328 288.319 129.429 288.527 129.631C288.736 129.833 288.872 130.103 288.938 130.441C289.009 130.78 289.045 131.151 289.045 131.555ZM283.967 136.926V139.289C283.967 139.667 284.012 139.999 284.104 140.285C284.195 140.572 284.436 140.715 284.826 140.715C285.308 140.715 285.64 140.48 285.822 140.012C285.913 139.777 285.975 139.481 286.008 139.123C286.047 138.758 286.07 138.326 286.076 137.824C286.076 137.518 286.04 137.189 285.969 136.838C285.897 136.48 285.77 136.174 285.588 135.92C285.406 135.666 285.152 135.539 284.826 135.539C284.436 135.539 284.195 135.679 284.104 135.959C284.012 136.239 283.967 136.561 283.967 136.926ZM299.26 136.828V137.434C299.26 137.753 299.178 138.039 299.016 138.293C298.859 138.54 298.479 138.664 297.873 138.664H293.986V139.602C293.986 139.96 294.077 140.292 294.26 140.598C294.449 140.897 294.761 141.047 295.197 141.047C295.542 141.047 295.793 140.992 295.949 140.881C296.105 140.764 296.239 140.614 296.35 140.432C296.421 140.321 296.509 140.223 296.613 140.139C296.724 140.048 296.874 139.973 297.062 139.914C297.251 139.849 297.515 139.816 297.854 139.816C298.205 139.816 298.505 139.885 298.752 140.021C298.999 140.152 299.123 140.409 299.123 140.793C299.123 141.216 298.99 141.571 298.723 141.857C298.456 142.137 298.12 142.362 297.717 142.531C297.313 142.701 296.874 142.821 296.398 142.893C295.93 142.964 295.49 143 295.08 143C294.54 142.993 294.025 142.925 293.537 142.795C293.049 142.665 292.619 142.456 292.248 142.17C291.87 141.883 291.571 141.509 291.35 141.047C291.128 140.585 291.018 140.018 291.018 139.348V137.062C291.018 136.451 291.092 135.926 291.242 135.49C291.392 135.061 291.581 134.702 291.809 134.416C292.043 134.13 292.307 133.905 292.6 133.742C292.893 133.586 293.189 133.469 293.488 133.391C293.788 133.312 294.071 133.264 294.338 133.244C294.611 133.225 294.846 133.215 295.041 133.215C295.699 133.215 296.262 133.273 296.73 133.391C297.193 133.508 297.58 133.661 297.893 133.85C298.205 134.038 298.452 134.257 298.635 134.504C298.824 134.745 298.96 134.999 299.045 135.266C299.136 135.526 299.195 135.793 299.221 136.066C299.247 136.34 299.26 136.594 299.26 136.828ZM293.986 136.516V137.199H296.428C296.428 136.776 296.405 136.424 296.359 136.145C296.32 135.858 296.21 135.643 296.027 135.5C295.852 135.357 295.555 135.285 295.139 135.285C294.663 135.285 294.351 135.415 294.201 135.676C294.058 135.93 293.986 136.21 293.986 136.516ZM304.611 141.379C304.611 141.932 304.471 142.342 304.191 142.609C303.911 142.87 303.518 143 303.01 143C301.929 143 301.389 142.46 301.389 141.379C301.389 140.819 301.529 140.412 301.809 140.158C302.089 139.904 302.489 139.777 303.01 139.777C303.55 139.777 303.951 139.904 304.211 140.158C304.478 140.412 304.611 140.819 304.611 141.379Z" fill="url(#paint0_linear_144_43)" fill-opacity="0.95"/>
<path d="M311.898 67.0022C308.16 66.4769 305.318 63.7529 305.692 61.0935C306.066 58.434 309.549 56.5989 313.286 57.1241C317.023 57.6494 319.865 60.3734 319.492 63.0328C319.046 65.6822 315.635 67.5274 311.898 67.0022Z" fill="#E07E1E"/>
<path d="M313.19 57.808C316.855 58.3231 319.133 60.8903 318.855 62.8659C318.578 64.8415 315.681 66.6814 312.015 66.1663C308.35 65.6511 306.072 63.0839 306.35 61.1083C306.627 59.1327 309.524 57.2928 313.19 57.808ZM313.393 56.3642C309.296 55.7885 305.555 57.8972 305.117 61.0126C304.679 64.128 307.694 67.1862 311.791 67.762C315.888 68.3377 319.629 66.229 320.067 63.1136C320.515 59.9222 317.49 56.94 313.393 56.3642Z" fill="#3E4347"/>
<path d="M303.808 46.3388C300.43 45.8641 298.041 43.0487 298.457 40.0853C298.874 37.1219 301.947 35.0743 305.325 35.549C308.702 36.0238 311.092 38.8391 310.675 41.8025C310.259 44.7659 307.114 46.8035 303.808 46.3388Z" fill="#E07E1E"/>
<path d="M305.218 36.3089C308.164 36.723 310.381 39.2041 310.039 41.6356C309.687 44.1431 306.883 45.8412 303.936 45.427C300.99 45.0129 298.773 42.5318 299.115 40.1003C299.456 37.6688 302.199 35.8846 305.218 36.3089ZM305.453 34.6372C301.715 34.112 298.302 36.4991 297.821 39.9185C297.34 43.3378 299.964 46.5734 303.701 47.0987C307.439 47.6239 310.852 45.2368 311.333 41.8174C311.814 38.3981 309.19 35.1625 305.453 34.6372Z" fill="#3E4347"/>
<path d="M315.62 53.0354C314.182 52.8334 312.852 51.8715 311.966 50.3523C311.13 48.9951 310.78 47.3186 310.86 45.7027C311.013 44.097 311.564 42.7797 312.494 41.903C313.34 41.0922 314.411 40.7777 315.489 40.9293C316.926 41.1313 318.257 42.0931 319.143 43.6124C319.978 44.9695 320.329 46.646 320.248 48.2619C320.096 49.8677 319.544 51.1849 318.615 52.0616C317.779 52.7964 316.77 53.197 315.62 53.0354Z" fill="#E07E1E"/>
<path d="M315.465 41.6233C316.686 41.795 317.884 42.6607 318.647 44.0077C319.35 45.2687 319.732 46.7172 319.601 48.171C319.492 49.4729 319.033 50.6482 318.269 51.3932C317.422 52.204 316.456 52.3006 315.809 52.2097C314.587 52.038 313.39 51.1723 312.626 49.8252C311.924 48.5643 311.541 47.1157 311.672 45.6619C311.782 44.3601 312.24 43.1847 313.004 42.4398C313.851 41.629 314.818 41.5323 315.465 41.6233ZM315.7 39.9516C314.478 39.7799 313.253 40.1502 312.241 41.0927C309.959 43.2515 309.638 47.623 311.542 50.7577C312.612 52.5352 314.075 53.5933 315.585 53.8054C316.807 53.9771 318.031 53.6068 319.043 52.6642C321.326 50.5055 321.647 46.1339 319.742 42.9993C318.744 41.2319 317.209 40.1637 315.7 39.9516Z" fill="#3E4347"/>
<path d="M301.446 67.3155C300.512 67.1842 299.61 66.8249 298.668 66.2276C296.107 64.628 294.612 61.7059 295.465 59.8111C295.985 58.7218 297.313 58.1337 298.966 58.366C299.901 58.4973 300.803 58.8566 301.745 59.4539C303.025 60.2537 304.097 61.4892 304.728 62.7401C305.225 63.8948 305.363 64.999 304.958 65.7944C304.428 66.9597 303.099 67.5478 301.446 67.3155Z" fill="#E07E1E"/>
<path d="M298.91 59.2879C299.772 59.4091 300.603 59.7583 301.412 60.2594C302.62 61.0491 303.57 62.1125 304.067 63.2672C304.453 64.1737 304.562 64.9638 304.343 65.4755C304.021 66.2051 302.868 66.5855 301.575 66.4036C300.712 66.2824 299.882 65.9333 299.073 65.4321C296.717 63.9388 295.6 61.4573 296.141 60.216C296.463 59.4865 297.616 59.1061 298.91 59.2879ZM299.156 57.5403C297.287 57.2776 295.649 57.9773 294.933 59.4263C293.883 61.6808 295.458 65.079 298.345 66.9571C299.359 67.5645 300.405 67.944 301.34 68.0753C303.208 68.3379 304.846 67.6382 305.562 66.1892C306.612 63.9347 305.038 60.5365 302.15 58.6585C301.136 58.051 300.09 57.6716 299.156 57.5403Z" fill="#3E4347"/>
<path d="M309.515 41.7168C307.404 40.5679 305.035 39.6926 302.376 39.3188C301.585 39.2077 300.856 39.1827 300.127 39.1577C300.929 42.8348 301.042 46.7249 300.497 50.6001C299.889 54.9313 298.428 59.0652 296.313 62.6422C297.154 62.9154 298.089 63.0467 299.023 63.178C300.245 63.3497 301.395 63.5113 302.483 63.5869C302.391 61.6368 302.525 59.6409 302.813 57.5894C303.657 51.5866 305.978 46.0239 309.515 41.7168ZM294.965 39.9044C287.513 42.3439 284.411 49.8115 284.411 49.8115C284.411 49.8115 284.85 50.3382 284.991 50.9003C285.142 51.3866 283.601 51.4024 283.925 52.2228C284.848 54.5221 288.004 58.1426 291.485 60.4914C293.597 57.4564 294.983 53.8544 295.538 49.9032C296.019 46.4839 295.842 43.0496 294.965 39.9044ZM326.086 55.7461C326.438 53.2386 329.508 51.7329 327.207 47.7677C327.207 47.7677 325.348 49.5211 323.657 50.6007C323.447 51.5784 323.225 52.6321 323.087 53.6199C322.702 56.3553 322.677 59.1413 323.033 61.8258C324.291 62.7775 324.975 63.6485 324.975 63.6485C328.269 60.5471 325.712 58.4055 326.086 55.7461ZM318.863 49.7719C317.097 47.7415 315.308 45.863 313.262 44.2581C311.696 47.0599 310.6 50.1603 310.13 53.5037C309.671 56.771 309.808 59.9672 310.481 63.0061C312.672 62.5392 315.06 61.7126 317.933 60.5666C317.771 58.0644 317.908 55.5266 318.271 52.9431C318.41 51.9553 318.57 50.8155 318.863 49.7719Z" fill="#F29A2E"/>
<path d="M296.185 49.9941C295.608 54.0973 294.129 57.8412 292.089 60.8863C293.103 61.4938 294.272 62.0454 295.605 62.4653C297.699 59.0402 299.221 54.9924 299.84 50.5853C300.395 46.6341 300.2 42.8098 299.376 39.2846C298.05 39.3308 296.775 39.539 295.633 39.8434C296.46 42.8265 296.698 46.3469 296.185 49.9941Z" fill="white"/>
<path d="M300.055 39.1476C299.839 39.1173 299.613 39.163 299.325 39.1226C300.149 42.6477 300.345 46.472 299.789 50.4232C299.159 54.9063 297.638 58.9541 295.555 62.3032C295.759 62.4095 296.047 62.4499 296.263 62.4802C298.378 58.9032 299.838 54.7692 300.447 50.4381C301.042 46.7249 300.857 42.8247 300.055 39.1476ZM296.185 49.9941C296.687 46.4228 296.449 42.9025 295.644 39.7674C295.417 39.8131 295.191 39.8587 294.954 39.9804C295.831 43.1256 296.008 46.5599 295.528 49.9792C294.972 53.9304 293.587 57.5324 291.474 60.5675C291.679 60.6737 291.873 60.856 292.078 60.9623C294.14 57.7652 295.608 54.0973 296.185 49.9941Z" fill="#3E4347"/>
<path d="M303.46 57.6803C303.182 59.6559 303.12 61.6618 303.141 63.6018C305.318 63.7529 307.456 63.6659 309.791 63.2192C309.119 60.1802 308.931 56.822 309.401 53.4787C309.903 49.9074 311.02 46.655 312.586 43.8532C311.798 43.2001 310.928 42.6128 310.047 42.1016C306.758 46.211 304.314 51.6015 303.46 57.6803Z" fill="white"/>
<path d="M303.46 57.6803C304.314 51.6016 306.758 46.211 310.119 42.1117C309.914 42.0055 309.709 41.8992 309.515 41.7169C305.978 46.0239 303.657 51.5866 302.813 57.5894C302.536 59.565 302.402 61.5608 302.483 63.5869C302.699 63.6172 302.915 63.6475 303.141 63.6019C303.12 61.6618 303.182 59.6559 303.46 57.6803ZM313.262 44.2582C313.068 44.0759 312.863 43.9696 312.74 43.7974C311.174 46.5992 310.057 49.8516 309.555 53.4229C309.075 56.8422 309.201 60.1144 309.945 63.1634L310.624 63.0264C309.952 59.9874 309.826 56.7153 310.274 53.5239C310.6 50.1604 311.624 47.0498 313.262 44.2582Z" fill="#3E4347"/>
<path d="M319.691 50.6631C319.63 50.5771 319.497 50.4809 319.446 50.3188C319.236 51.2965 319.036 52.1982 318.907 53.11C318.566 55.5415 318.44 58.0034 318.622 60.3536C318.777 60.2978 318.942 60.1661 319.168 60.1204C319.796 59.8213 321.087 60.5451 322.296 61.3348C322.062 58.8224 322.055 56.2644 322.429 53.605C322.547 52.7691 322.736 51.9434 322.853 51.1076C321.679 51.6399 320.569 51.7164 319.691 50.6631Z" fill="white"/>
<path d="M318.907 53.11C319.035 52.1982 319.235 51.2965 319.364 50.3847C319.169 50.2024 318.986 49.9441 318.792 49.7619C318.559 50.8915 318.338 51.9452 318.189 53.009C317.836 55.5165 317.699 58.0543 317.85 60.6325C318.087 60.5108 318.313 60.4652 318.55 60.3435C318.45 57.9274 318.566 55.5415 318.907 53.11ZM323.575 50.6666C323.327 50.8642 323.018 50.9758 322.781 51.0975C322.592 51.9232 322.475 52.759 322.357 53.5949C321.983 56.2543 321.98 58.8883 322.224 61.3247C322.49 61.517 322.756 61.7094 322.95 61.8917C322.594 59.2072 322.62 56.4212 323.004 53.6858C323.153 52.622 323.364 51.6443 323.575 50.6666Z" fill="#3E4347"/>
<path d="M301.806 48.072C299.401 50.0586 298.254 55.089 301.733 55.8879C305.92 56.8638 307.524 60.576 309.929 58.5894C312.333 56.6028 312.106 53.0065 310.036 50.0036C307.977 46.9247 304.282 46.0955 301.806 48.072Z" fill="#E07E1E"/>
<path d="M301.877 48.0821C300.639 49.0704 299.901 50.6713 299.759 52.2011C299.724 52.9711 299.833 53.7612 300.262 54.3638C300.618 54.9563 301.233 55.2752 301.941 55.4522C303.511 55.7504 304.935 56.5704 306.205 57.4462C306.881 57.8511 307.485 58.246 308.11 58.4889C308.747 58.6557 309.21 58.4884 309.716 58.0171C310.222 57.5458 310.595 56.9784 310.835 56.3147C311.074 55.651 311.099 54.9571 310.979 54.2429C310.812 52.8247 310.131 51.4117 309.346 50.2166C308.551 49.0975 307.446 48.09 306.134 47.5181C305.437 47.2651 304.718 47.1641 303.978 47.2151C303.227 47.342 302.455 47.6209 301.877 48.0821ZM301.816 47.996C303.065 46.9318 304.66 46.536 306.313 46.7684C307.894 46.9906 309.451 47.9068 310.502 49.2942C311.492 50.5956 312.284 52.2567 312.47 54.065C312.558 55.0071 312.429 55.9189 312.086 56.8004C311.742 57.682 311.193 58.4572 310.461 58.9742C310.083 59.2834 309.652 59.5125 309.193 59.6484C308.741 59.7397 308.227 59.745 307.807 59.6084C306.965 59.3352 306.311 58.7783 305.707 58.3835C304.437 57.5077 303.229 56.718 301.824 56.288C301.475 56.1615 301.054 56.0249 300.727 55.7465C300.4 55.468 300.083 55.1136 299.91 54.7793C299.514 53.9488 299.488 53.0928 299.605 52.2569C299.722 51.4211 300.056 50.6156 300.45 49.8961C300.7 49.1565 301.156 48.5231 301.816 47.996Z" fill="#3E4347"/>
<path d="M289.933 54.8493C292.275 55.1785 294.474 53.302 294.846 50.6582C295.217 48.0144 293.62 45.6044 291.278 45.2752C288.936 44.9461 286.737 46.8225 286.365 49.4663C285.993 52.1101 287.591 54.5202 289.933 54.8493Z" fill="#FCFCFA"/>
<path d="M290.146 53.3297C291.774 53.5584 293.299 52.281 293.552 50.4764C293.806 48.6719 292.692 47.0237 291.065 46.795C289.437 46.5662 287.912 47.8437 287.659 49.6482C287.405 51.4527 288.519 53.1009 290.146 53.3297Z" fill="#29251C"/>
<defs>
<filter id="filter0_d_144_43" x="26.6562" y="51.375" width="278.938" height="74" filterUnits="userSpaceOnUse" color-interpolation-filters="sRGB">
<feFlood flood-opacity="0" result="BackgroundImageFix"/>
<feColorMatrix in="SourceAlpha" type="matrix" values="0 0 0 0 0 0 0 0 0 0 0 0 0 0 0 0 0 0 127 0" result="hardAlpha"/>
<feOffset dy="4"/>
<feGaussianBlur stdDeviation="2"/>
<feComposite in2="hardAlpha" operator="out"/>
<feColorMatrix type="matrix" values="0 0 0 0 0 0 0 0 0 0 0 0 0 0 0 0 0 0 0.25 0"/>
<feBlend mode="normal" in2="BackgroundImageFix" result="effect1_dropShadow_144_43"/>
<feBlend mode="normal" in="SourceGraphic" in2="effect1_dropShadow_144_43" result="shape"/>
</filter>
<linearGradient id="paint0_linear_144_43" x1="65" y1="137" x2="306" y2="137" gradientUnits="userSpaceOnUse">
<stop stop-color="#C8EAFD"/>
</linearGradient>
</defs>
</svg>
